G04 #@! TF.GenerationSoftware,KiCad,Pcbnew,(5.1.2)-2*
G04 #@! TF.CreationDate,2020-03-21T00:34:28+09:00*
G04 #@! TF.ProjectId,kyosoc,6b796f73-6f63-42e6-9b69-6361645f7063,rev?*
G04 #@! TF.SameCoordinates,Original*
G04 #@! TF.FileFunction,Legend,Bot*
G04 #@! TF.FilePolarity,Positive*
%FSLAX46Y46*%
G04 Gerber Fmt 4.6, Leading zero omitted, Abs format (unit mm)*
G04 Created by KiCad (PCBNEW (5.1.2)-2) date 2020-03-21 00:34:28*
%MOMM*%
%LPD*%
G04 APERTURE LIST*
%ADD10C,0.100000*%
%ADD11C,0.200000*%
%ADD12C,0.150000*%
G04 APERTURE END LIST*
D10*
X135800000Y-91700000D02*
X135800000Y-90100000D01*
X142000000Y-91700000D02*
X142000000Y-90100000D01*
X140650000Y-90900000D02*
G75*
G03X140650000Y-90900000I-1750000J0D01*
G01*
X15000000Y-95100000D02*
X15000000Y-95700000D01*
X13200000Y-95100000D02*
X13200000Y-95700000D01*
X24000000Y-77400000D02*
X23400000Y-77400000D01*
X24000000Y-75600000D02*
X23400000Y-75600000D01*
X10000000Y-72000000D02*
X10000000Y-71400000D01*
X11800000Y-72000000D02*
X11800000Y-71400000D01*
X6800000Y-72000000D02*
X6800000Y-71400000D01*
X8600000Y-72000000D02*
X8600000Y-71400000D01*
X10200000Y-42600000D02*
X10200000Y-43200000D01*
X8400000Y-42600000D02*
X8400000Y-43200000D01*
X8400000Y-62400000D02*
X8400000Y-61800000D01*
X10200000Y-62400000D02*
X10200000Y-61800000D01*
X24000000Y-81000000D02*
X23400000Y-81000000D01*
X24000000Y-79200000D02*
X23400000Y-79200000D01*
X52200000Y-88400000D02*
X52800000Y-88400000D01*
X52200000Y-90200000D02*
X52800000Y-90200000D01*
X52200000Y-91600000D02*
X52800000Y-91600000D01*
X52200000Y-93400000D02*
X52800000Y-93400000D01*
D11*
X40600000Y-94100000D02*
G75*
G03X45200000Y-94100000I2300000J0D01*
G01*
X45200000Y-87700000D02*
G75*
G03X40600000Y-87700000I-2300000J0D01*
G01*
X45200000Y-94100000D02*
X45200000Y-87700000D01*
X40600000Y-94100000D02*
X40600000Y-87700000D01*
G36*
X19300000Y-86500000D02*
G01*
X20100000Y-86500000D01*
X19300000Y-87300000D01*
X19300000Y-86500000D01*
G37*
X19300000Y-86500000D02*
X20100000Y-86500000D01*
X19300000Y-87300000D01*
X19300000Y-86500000D01*
X18700000Y-95900000D02*
X18700000Y-85900000D01*
X28700000Y-95900000D02*
X18700000Y-95900000D01*
X28700000Y-85900000D02*
X28700000Y-95900000D01*
X18700000Y-85900000D02*
X28700000Y-85900000D01*
G36*
X213500000Y-90500000D02*
G01*
X214300000Y-90500000D01*
X213900000Y-91300000D01*
X213500000Y-90500000D01*
G37*
X213500000Y-90500000D02*
X214300000Y-90500000D01*
X213900000Y-91300000D01*
X213500000Y-90500000D01*
X213500000Y-91400000D02*
X214300000Y-91400000D01*
G36*
X194300000Y-90500000D02*
G01*
X195100000Y-90500000D01*
X194700000Y-91300000D01*
X194300000Y-90500000D01*
G37*
X194300000Y-90500000D02*
X195100000Y-90500000D01*
X194700000Y-91300000D01*
X194300000Y-90500000D01*
X194300000Y-91400000D02*
X195100000Y-91400000D01*
G36*
X165500000Y-90500000D02*
G01*
X166300000Y-90500000D01*
X165900000Y-91300000D01*
X165500000Y-90500000D01*
G37*
X165500000Y-90500000D02*
X166300000Y-90500000D01*
X165900000Y-91300000D01*
X165500000Y-90500000D01*
X165500000Y-91400000D02*
X166300000Y-91400000D01*
G36*
X127100000Y-90500000D02*
G01*
X127900000Y-90500000D01*
X127500000Y-91300000D01*
X127100000Y-90500000D01*
G37*
X127100000Y-90500000D02*
X127900000Y-90500000D01*
X127500000Y-91300000D01*
X127100000Y-90500000D01*
X127100000Y-91400000D02*
X127900000Y-91400000D01*
G36*
X98300000Y-90500000D02*
G01*
X99100000Y-90500000D01*
X98700000Y-91300000D01*
X98300000Y-90500000D01*
G37*
X98300000Y-90500000D02*
X99100000Y-90500000D01*
X98700000Y-91300000D01*
X98300000Y-90500000D01*
X98300000Y-91400000D02*
X99100000Y-91400000D01*
G36*
X79100000Y-90500000D02*
G01*
X79900000Y-90500000D01*
X79500000Y-91300000D01*
X79100000Y-90500000D01*
G37*
X79100000Y-90500000D02*
X79900000Y-90500000D01*
X79500000Y-91300000D01*
X79100000Y-90500000D01*
X79100000Y-91400000D02*
X79900000Y-91400000D01*
G36*
X290300000Y-71300000D02*
G01*
X291100000Y-71300000D01*
X290700000Y-72100000D01*
X290300000Y-71300000D01*
G37*
X290300000Y-71300000D02*
X291100000Y-71300000D01*
X290700000Y-72100000D01*
X290300000Y-71300000D01*
X290300000Y-72200000D02*
X291100000Y-72200000D01*
G36*
X261500000Y-71300000D02*
G01*
X262300000Y-71300000D01*
X261900000Y-72100000D01*
X261500000Y-71300000D01*
G37*
X261500000Y-71300000D02*
X262300000Y-71300000D01*
X261900000Y-72100000D01*
X261500000Y-71300000D01*
X261500000Y-72200000D02*
X262300000Y-72200000D01*
G36*
X232700000Y-71300000D02*
G01*
X233500000Y-71300000D01*
X233100000Y-72100000D01*
X232700000Y-71300000D01*
G37*
X232700000Y-71300000D02*
X233500000Y-71300000D01*
X233100000Y-72100000D01*
X232700000Y-71300000D01*
X232700000Y-72200000D02*
X233500000Y-72200000D01*
G36*
X213500000Y-71300000D02*
G01*
X214300000Y-71300000D01*
X213900000Y-72100000D01*
X213500000Y-71300000D01*
G37*
X213500000Y-71300000D02*
X214300000Y-71300000D01*
X213900000Y-72100000D01*
X213500000Y-71300000D01*
X213500000Y-72200000D02*
X214300000Y-72200000D01*
G36*
X194300000Y-71300000D02*
G01*
X195100000Y-71300000D01*
X194700000Y-72100000D01*
X194300000Y-71300000D01*
G37*
X194300000Y-71300000D02*
X195100000Y-71300000D01*
X194700000Y-72100000D01*
X194300000Y-71300000D01*
X194300000Y-72200000D02*
X195100000Y-72200000D01*
G36*
X175100000Y-71300000D02*
G01*
X175900000Y-71300000D01*
X175500000Y-72100000D01*
X175100000Y-71300000D01*
G37*
X175100000Y-71300000D02*
X175900000Y-71300000D01*
X175500000Y-72100000D01*
X175100000Y-71300000D01*
X175100000Y-72200000D02*
X175900000Y-72200000D01*
G36*
X155900000Y-71300000D02*
G01*
X156700000Y-71300000D01*
X156300000Y-72100000D01*
X155900000Y-71300000D01*
G37*
X155900000Y-71300000D02*
X156700000Y-71300000D01*
X156300000Y-72100000D01*
X155900000Y-71300000D01*
X155900000Y-72200000D02*
X156700000Y-72200000D01*
G36*
X136700000Y-71300000D02*
G01*
X137500000Y-71300000D01*
X137100000Y-72100000D01*
X136700000Y-71300000D01*
G37*
X136700000Y-71300000D02*
X137500000Y-71300000D01*
X137100000Y-72100000D01*
X136700000Y-71300000D01*
X136700000Y-72200000D02*
X137500000Y-72200000D01*
G36*
X117500000Y-71300000D02*
G01*
X118300000Y-71300000D01*
X117900000Y-72100000D01*
X117500000Y-71300000D01*
G37*
X117500000Y-71300000D02*
X118300000Y-71300000D01*
X117900000Y-72100000D01*
X117500000Y-71300000D01*
X117500000Y-72200000D02*
X118300000Y-72200000D01*
G36*
X98300000Y-71300000D02*
G01*
X99100000Y-71300000D01*
X98700000Y-72100000D01*
X98300000Y-71300000D01*
G37*
X98300000Y-71300000D02*
X99100000Y-71300000D01*
X98700000Y-72100000D01*
X98300000Y-71300000D01*
X98300000Y-72200000D02*
X99100000Y-72200000D01*
G36*
X79100000Y-71300000D02*
G01*
X79900000Y-71300000D01*
X79500000Y-72100000D01*
X79100000Y-71300000D01*
G37*
X79100000Y-71300000D02*
X79900000Y-71300000D01*
X79500000Y-72100000D01*
X79100000Y-71300000D01*
X79100000Y-72200000D02*
X79900000Y-72200000D01*
G36*
X59900000Y-71300000D02*
G01*
X60700000Y-71300000D01*
X60300000Y-72100000D01*
X59900000Y-71300000D01*
G37*
X59900000Y-71300000D02*
X60700000Y-71300000D01*
X60300000Y-72100000D01*
X59900000Y-71300000D01*
X59900000Y-72200000D02*
X60700000Y-72200000D01*
G36*
X31100000Y-71300000D02*
G01*
X31900000Y-71300000D01*
X31500000Y-72100000D01*
X31100000Y-71300000D01*
G37*
X31100000Y-71300000D02*
X31900000Y-71300000D01*
X31500000Y-72100000D01*
X31100000Y-71300000D01*
X31100000Y-72200000D02*
X31900000Y-72200000D01*
G36*
X280700000Y-52100000D02*
G01*
X281500000Y-52100000D01*
X281100000Y-52900000D01*
X280700000Y-52100000D01*
G37*
X280700000Y-52100000D02*
X281500000Y-52100000D01*
X281100000Y-52900000D01*
X280700000Y-52100000D01*
X280700000Y-53000000D02*
X281500000Y-53000000D01*
G36*
X251900000Y-52100000D02*
G01*
X252700000Y-52100000D01*
X252300000Y-52900000D01*
X251900000Y-52100000D01*
G37*
X251900000Y-52100000D02*
X252700000Y-52100000D01*
X252300000Y-52900000D01*
X251900000Y-52100000D01*
X251900000Y-53000000D02*
X252700000Y-53000000D01*
G36*
X232700000Y-52100000D02*
G01*
X233500000Y-52100000D01*
X233100000Y-52900000D01*
X232700000Y-52100000D01*
G37*
X232700000Y-52100000D02*
X233500000Y-52100000D01*
X233100000Y-52900000D01*
X232700000Y-52100000D01*
X232700000Y-53000000D02*
X233500000Y-53000000D01*
G36*
X213500000Y-52100000D02*
G01*
X214300000Y-52100000D01*
X213900000Y-52900000D01*
X213500000Y-52100000D01*
G37*
X213500000Y-52100000D02*
X214300000Y-52100000D01*
X213900000Y-52900000D01*
X213500000Y-52100000D01*
X213500000Y-53000000D02*
X214300000Y-53000000D01*
G36*
X194300000Y-52100000D02*
G01*
X195100000Y-52100000D01*
X194700000Y-52900000D01*
X194300000Y-52100000D01*
G37*
X194300000Y-52100000D02*
X195100000Y-52100000D01*
X194700000Y-52900000D01*
X194300000Y-52100000D01*
X194300000Y-53000000D02*
X195100000Y-53000000D01*
G36*
X175100000Y-52100000D02*
G01*
X175900000Y-52100000D01*
X175500000Y-52900000D01*
X175100000Y-52100000D01*
G37*
X175100000Y-52100000D02*
X175900000Y-52100000D01*
X175500000Y-52900000D01*
X175100000Y-52100000D01*
X175100000Y-53000000D02*
X175900000Y-53000000D01*
G36*
X155900000Y-52100000D02*
G01*
X156700000Y-52100000D01*
X156300000Y-52900000D01*
X155900000Y-52100000D01*
G37*
X155900000Y-52100000D02*
X156700000Y-52100000D01*
X156300000Y-52900000D01*
X155900000Y-52100000D01*
X155900000Y-53000000D02*
X156700000Y-53000000D01*
G36*
X136700000Y-52100000D02*
G01*
X137500000Y-52100000D01*
X137100000Y-52900000D01*
X136700000Y-52100000D01*
G37*
X136700000Y-52100000D02*
X137500000Y-52100000D01*
X137100000Y-52900000D01*
X136700000Y-52100000D01*
X136700000Y-53000000D02*
X137500000Y-53000000D01*
G36*
X117500000Y-52100000D02*
G01*
X118300000Y-52100000D01*
X117900000Y-52900000D01*
X117500000Y-52100000D01*
G37*
X117500000Y-52100000D02*
X118300000Y-52100000D01*
X117900000Y-52900000D01*
X117500000Y-52100000D01*
X117500000Y-53000000D02*
X118300000Y-53000000D01*
G36*
X98300000Y-52100000D02*
G01*
X99100000Y-52100000D01*
X98700000Y-52900000D01*
X98300000Y-52100000D01*
G37*
X98300000Y-52100000D02*
X99100000Y-52100000D01*
X98700000Y-52900000D01*
X98300000Y-52100000D01*
X98300000Y-53000000D02*
X99100000Y-53000000D01*
G36*
X79100000Y-52100000D02*
G01*
X79900000Y-52100000D01*
X79500000Y-52900000D01*
X79100000Y-52100000D01*
G37*
X79100000Y-52100000D02*
X79900000Y-52100000D01*
X79500000Y-52900000D01*
X79100000Y-52100000D01*
X79100000Y-53000000D02*
X79900000Y-53000000D01*
G36*
X59900000Y-52100000D02*
G01*
X60700000Y-52100000D01*
X60300000Y-52900000D01*
X59900000Y-52100000D01*
G37*
X59900000Y-52100000D02*
X60700000Y-52100000D01*
X60300000Y-52900000D01*
X59900000Y-52100000D01*
X59900000Y-53000000D02*
X60700000Y-53000000D01*
G36*
X31100000Y-52100000D02*
G01*
X31900000Y-52100000D01*
X31500000Y-52900000D01*
X31100000Y-52100000D01*
G37*
X31100000Y-52100000D02*
X31900000Y-52100000D01*
X31500000Y-52900000D01*
X31100000Y-52100000D01*
X31100000Y-53000000D02*
X31900000Y-53000000D01*
G36*
X290300000Y-32900000D02*
G01*
X291100000Y-32900000D01*
X290700000Y-33700000D01*
X290300000Y-32900000D01*
G37*
X290300000Y-32900000D02*
X291100000Y-32900000D01*
X290700000Y-33700000D01*
X290300000Y-32900000D01*
X290300000Y-33800000D02*
X291100000Y-33800000D01*
G36*
X271100000Y-32900000D02*
G01*
X271900000Y-32900000D01*
X271500000Y-33700000D01*
X271100000Y-32900000D01*
G37*
X271100000Y-32900000D02*
X271900000Y-32900000D01*
X271500000Y-33700000D01*
X271100000Y-32900000D01*
X271100000Y-33800000D02*
X271900000Y-33800000D01*
G36*
X251900000Y-32900000D02*
G01*
X252700000Y-32900000D01*
X252300000Y-33700000D01*
X251900000Y-32900000D01*
G37*
X251900000Y-32900000D02*
X252700000Y-32900000D01*
X252300000Y-33700000D01*
X251900000Y-32900000D01*
X251900000Y-33800000D02*
X252700000Y-33800000D01*
G36*
X232700000Y-32900000D02*
G01*
X233500000Y-32900000D01*
X233100000Y-33700000D01*
X232700000Y-32900000D01*
G37*
X232700000Y-32900000D02*
X233500000Y-32900000D01*
X233100000Y-33700000D01*
X232700000Y-32900000D01*
X232700000Y-33800000D02*
X233500000Y-33800000D01*
G36*
X213500000Y-32900000D02*
G01*
X214300000Y-32900000D01*
X213900000Y-33700000D01*
X213500000Y-32900000D01*
G37*
X213500000Y-32900000D02*
X214300000Y-32900000D01*
X213900000Y-33700000D01*
X213500000Y-32900000D01*
X213500000Y-33800000D02*
X214300000Y-33800000D01*
G36*
X194300000Y-32900000D02*
G01*
X195100000Y-32900000D01*
X194700000Y-33700000D01*
X194300000Y-32900000D01*
G37*
X194300000Y-32900000D02*
X195100000Y-32900000D01*
X194700000Y-33700000D01*
X194300000Y-32900000D01*
X194300000Y-33800000D02*
X195100000Y-33800000D01*
G36*
X175100000Y-32900000D02*
G01*
X175900000Y-32900000D01*
X175500000Y-33700000D01*
X175100000Y-32900000D01*
G37*
X175100000Y-32900000D02*
X175900000Y-32900000D01*
X175500000Y-33700000D01*
X175100000Y-32900000D01*
X175100000Y-33800000D02*
X175900000Y-33800000D01*
G36*
X155900000Y-32900000D02*
G01*
X156700000Y-32900000D01*
X156300000Y-33700000D01*
X155900000Y-32900000D01*
G37*
X155900000Y-32900000D02*
X156700000Y-32900000D01*
X156300000Y-33700000D01*
X155900000Y-32900000D01*
X155900000Y-33800000D02*
X156700000Y-33800000D01*
G36*
X136700000Y-32900000D02*
G01*
X137500000Y-32900000D01*
X137100000Y-33700000D01*
X136700000Y-32900000D01*
G37*
X136700000Y-32900000D02*
X137500000Y-32900000D01*
X137100000Y-33700000D01*
X136700000Y-32900000D01*
X136700000Y-33800000D02*
X137500000Y-33800000D01*
G36*
X117500000Y-32900000D02*
G01*
X118300000Y-32900000D01*
X117900000Y-33700000D01*
X117500000Y-32900000D01*
G37*
X117500000Y-32900000D02*
X118300000Y-32900000D01*
X117900000Y-33700000D01*
X117500000Y-32900000D01*
X117500000Y-33800000D02*
X118300000Y-33800000D01*
G36*
X98300000Y-32900000D02*
G01*
X99100000Y-32900000D01*
X98700000Y-33700000D01*
X98300000Y-32900000D01*
G37*
X98300000Y-32900000D02*
X99100000Y-32900000D01*
X98700000Y-33700000D01*
X98300000Y-32900000D01*
X98300000Y-33800000D02*
X99100000Y-33800000D01*
G36*
X79100000Y-32900000D02*
G01*
X79900000Y-32900000D01*
X79500000Y-33700000D01*
X79100000Y-32900000D01*
G37*
X79100000Y-32900000D02*
X79900000Y-32900000D01*
X79500000Y-33700000D01*
X79100000Y-32900000D01*
X79100000Y-33800000D02*
X79900000Y-33800000D01*
G36*
X59900000Y-32900000D02*
G01*
X60700000Y-32900000D01*
X60300000Y-33700000D01*
X59900000Y-32900000D01*
G37*
X59900000Y-32900000D02*
X60700000Y-32900000D01*
X60300000Y-33700000D01*
X59900000Y-32900000D01*
X59900000Y-33800000D02*
X60700000Y-33800000D01*
G36*
X31100000Y-32900000D02*
G01*
X31900000Y-32900000D01*
X31500000Y-33700000D01*
X31100000Y-32900000D01*
G37*
X31100000Y-32900000D02*
X31900000Y-32900000D01*
X31500000Y-33700000D01*
X31100000Y-32900000D01*
X31100000Y-33800000D02*
X31900000Y-33800000D01*
G36*
X290300000Y-13700000D02*
G01*
X291100000Y-13700000D01*
X290700000Y-14500000D01*
X290300000Y-13700000D01*
G37*
X290300000Y-13700000D02*
X291100000Y-13700000D01*
X290700000Y-14500000D01*
X290300000Y-13700000D01*
X290300000Y-14600000D02*
X291100000Y-14600000D01*
G36*
X271100000Y-13700000D02*
G01*
X271900000Y-13700000D01*
X271500000Y-14500000D01*
X271100000Y-13700000D01*
G37*
X271100000Y-13700000D02*
X271900000Y-13700000D01*
X271500000Y-14500000D01*
X271100000Y-13700000D01*
X271100000Y-14600000D02*
X271900000Y-14600000D01*
G36*
X251900000Y-13700000D02*
G01*
X252700000Y-13700000D01*
X252300000Y-14500000D01*
X251900000Y-13700000D01*
G37*
X251900000Y-13700000D02*
X252700000Y-13700000D01*
X252300000Y-14500000D01*
X251900000Y-13700000D01*
X251900000Y-14600000D02*
X252700000Y-14600000D01*
G36*
X232700000Y-13700000D02*
G01*
X233500000Y-13700000D01*
X233100000Y-14500000D01*
X232700000Y-13700000D01*
G37*
X232700000Y-13700000D02*
X233500000Y-13700000D01*
X233100000Y-14500000D01*
X232700000Y-13700000D01*
X232700000Y-14600000D02*
X233500000Y-14600000D01*
G36*
X213500000Y-13700000D02*
G01*
X214300000Y-13700000D01*
X213900000Y-14500000D01*
X213500000Y-13700000D01*
G37*
X213500000Y-13700000D02*
X214300000Y-13700000D01*
X213900000Y-14500000D01*
X213500000Y-13700000D01*
X213500000Y-14600000D02*
X214300000Y-14600000D01*
G36*
X194300000Y-13700000D02*
G01*
X195100000Y-13700000D01*
X194700000Y-14500000D01*
X194300000Y-13700000D01*
G37*
X194300000Y-13700000D02*
X195100000Y-13700000D01*
X194700000Y-14500000D01*
X194300000Y-13700000D01*
X194300000Y-14600000D02*
X195100000Y-14600000D01*
G36*
X175100000Y-13700000D02*
G01*
X175900000Y-13700000D01*
X175500000Y-14500000D01*
X175100000Y-13700000D01*
G37*
X175100000Y-13700000D02*
X175900000Y-13700000D01*
X175500000Y-14500000D01*
X175100000Y-13700000D01*
X175100000Y-14600000D02*
X175900000Y-14600000D01*
G36*
X155900000Y-13700000D02*
G01*
X156700000Y-13700000D01*
X156300000Y-14500000D01*
X155900000Y-13700000D01*
G37*
X155900000Y-13700000D02*
X156700000Y-13700000D01*
X156300000Y-14500000D01*
X155900000Y-13700000D01*
X155900000Y-14600000D02*
X156700000Y-14600000D01*
G36*
X136700000Y-13700000D02*
G01*
X137500000Y-13700000D01*
X137100000Y-14500000D01*
X136700000Y-13700000D01*
G37*
X136700000Y-13700000D02*
X137500000Y-13700000D01*
X137100000Y-14500000D01*
X136700000Y-13700000D01*
X136700000Y-14600000D02*
X137500000Y-14600000D01*
G36*
X117500000Y-13700000D02*
G01*
X118300000Y-13700000D01*
X117900000Y-14500000D01*
X117500000Y-13700000D01*
G37*
X117500000Y-13700000D02*
X118300000Y-13700000D01*
X117900000Y-14500000D01*
X117500000Y-13700000D01*
X117500000Y-14600000D02*
X118300000Y-14600000D01*
G36*
X98300000Y-13700000D02*
G01*
X99100000Y-13700000D01*
X98700000Y-14500000D01*
X98300000Y-13700000D01*
G37*
X98300000Y-13700000D02*
X99100000Y-13700000D01*
X98700000Y-14500000D01*
X98300000Y-13700000D01*
X98300000Y-14600000D02*
X99100000Y-14600000D01*
G36*
X79100000Y-13700000D02*
G01*
X79900000Y-13700000D01*
X79500000Y-14500000D01*
X79100000Y-13700000D01*
G37*
X79100000Y-13700000D02*
X79900000Y-13700000D01*
X79500000Y-14500000D01*
X79100000Y-13700000D01*
X79100000Y-14600000D02*
X79900000Y-14600000D01*
G36*
X59900000Y-13700000D02*
G01*
X60700000Y-13700000D01*
X60300000Y-14500000D01*
X59900000Y-13700000D01*
G37*
X59900000Y-13700000D02*
X60700000Y-13700000D01*
X60300000Y-14500000D01*
X59900000Y-13700000D01*
X59900000Y-14600000D02*
X60700000Y-14600000D01*
G36*
X40700000Y-13700000D02*
G01*
X41500000Y-13700000D01*
X41100000Y-14500000D01*
X40700000Y-13700000D01*
G37*
X40700000Y-13700000D02*
X41500000Y-13700000D01*
X41100000Y-14500000D01*
X40700000Y-13700000D01*
X40700000Y-14600000D02*
X41500000Y-14600000D01*
G36*
X21500000Y-13700000D02*
G01*
X22300000Y-13700000D01*
X21900000Y-14500000D01*
X21500000Y-13700000D01*
G37*
X21500000Y-13700000D02*
X22300000Y-13700000D01*
X21900000Y-14500000D01*
X21500000Y-13700000D01*
X21500000Y-14600000D02*
X22300000Y-14600000D01*
D10*
X140528571Y-91264285D02*
X140400000Y-91307142D01*
X140185714Y-91307142D01*
X140100000Y-91264285D01*
X140057142Y-91221428D01*
X140014285Y-91135714D01*
X140014285Y-91050000D01*
X140057142Y-90964285D01*
X140100000Y-90921428D01*
X140185714Y-90878571D01*
X140357142Y-90835714D01*
X140442857Y-90792857D01*
X140485714Y-90750000D01*
X140528571Y-90664285D01*
X140528571Y-90578571D01*
X140485714Y-90492857D01*
X140442857Y-90450000D01*
X140357142Y-90407142D01*
X140142857Y-90407142D01*
X140014285Y-90450000D01*
X139714285Y-90407142D02*
X139500000Y-91307142D01*
X139328571Y-90664285D01*
X139157142Y-91307142D01*
X138942857Y-90407142D01*
X138214285Y-90407142D02*
X138385714Y-90407142D01*
X138471428Y-90450000D01*
X138514285Y-90492857D01*
X138600000Y-90621428D01*
X138642857Y-90792857D01*
X138642857Y-91135714D01*
X138600000Y-91221428D01*
X138557142Y-91264285D01*
X138471428Y-91307142D01*
X138300000Y-91307142D01*
X138214285Y-91264285D01*
X138171428Y-91221428D01*
X138128571Y-91135714D01*
X138128571Y-90921428D01*
X138171428Y-90835714D01*
X138214285Y-90792857D01*
X138300000Y-90750000D01*
X138471428Y-90750000D01*
X138557142Y-90792857D01*
X138600000Y-90835714D01*
X138642857Y-90921428D01*
X137785714Y-90492857D02*
X137742857Y-90450000D01*
X137657142Y-90407142D01*
X137442857Y-90407142D01*
X137357142Y-90450000D01*
X137314285Y-90492857D01*
X137271428Y-90578571D01*
X137271428Y-90664285D01*
X137314285Y-90792857D01*
X137828571Y-91307142D01*
X137271428Y-91307142D01*
X12407142Y-95293571D02*
X11978571Y-94993571D01*
X12407142Y-94779285D02*
X11507142Y-94779285D01*
X11507142Y-95122142D01*
X11550000Y-95207857D01*
X11592857Y-95250714D01*
X11678571Y-95293571D01*
X11807142Y-95293571D01*
X11892857Y-95250714D01*
X11935714Y-95207857D01*
X11978571Y-95122142D01*
X11978571Y-94779285D01*
X11507142Y-96065000D02*
X11507142Y-95893571D01*
X11550000Y-95807857D01*
X11592857Y-95765000D01*
X11721428Y-95679285D01*
X11892857Y-95636428D01*
X12235714Y-95636428D01*
X12321428Y-95679285D01*
X12364285Y-95722142D01*
X12407142Y-95807857D01*
X12407142Y-95979285D01*
X12364285Y-96065000D01*
X12321428Y-96107857D01*
X12235714Y-96150714D01*
X12021428Y-96150714D01*
X11935714Y-96107857D01*
X11892857Y-96065000D01*
X11850000Y-95979285D01*
X11850000Y-95807857D01*
X11892857Y-95722142D01*
X11935714Y-95679285D01*
X12021428Y-95636428D01*
D12*
X5652380Y-52166666D02*
X6366666Y-52166666D01*
X6509523Y-52119047D01*
X6604761Y-52023809D01*
X6652380Y-51880952D01*
X6652380Y-51785714D01*
X6652380Y-53166666D02*
X6652380Y-52595238D01*
X6652380Y-52880952D02*
X5652380Y-52880952D01*
X5795238Y-52785714D01*
X5890476Y-52690476D01*
X5938095Y-52595238D01*
D10*
X19906428Y-76957142D02*
X20206428Y-76528571D01*
X20420714Y-76957142D02*
X20420714Y-76057142D01*
X20077857Y-76057142D01*
X19992142Y-76100000D01*
X19949285Y-76142857D01*
X19906428Y-76228571D01*
X19906428Y-76357142D01*
X19949285Y-76442857D01*
X19992142Y-76485714D01*
X20077857Y-76528571D01*
X20420714Y-76528571D01*
X19092142Y-76057142D02*
X19520714Y-76057142D01*
X19563571Y-76485714D01*
X19520714Y-76442857D01*
X19435000Y-76400000D01*
X19220714Y-76400000D01*
X19135000Y-76442857D01*
X19092142Y-76485714D01*
X19049285Y-76571428D01*
X19049285Y-76785714D01*
X19092142Y-76871428D01*
X19135000Y-76914285D01*
X19220714Y-76957142D01*
X19435000Y-76957142D01*
X19520714Y-76914285D01*
X19563571Y-76871428D01*
X11257142Y-67606428D02*
X10828571Y-67306428D01*
X11257142Y-67092142D02*
X10357142Y-67092142D01*
X10357142Y-67435000D01*
X10400000Y-67520714D01*
X10442857Y-67563571D01*
X10528571Y-67606428D01*
X10657142Y-67606428D01*
X10742857Y-67563571D01*
X10785714Y-67520714D01*
X10828571Y-67435000D01*
X10828571Y-67092142D01*
X10657142Y-68377857D02*
X11257142Y-68377857D01*
X10314285Y-68163571D02*
X10957142Y-67949285D01*
X10957142Y-68506428D01*
X8057142Y-67606428D02*
X7628571Y-67306428D01*
X8057142Y-67092142D02*
X7157142Y-67092142D01*
X7157142Y-67435000D01*
X7200000Y-67520714D01*
X7242857Y-67563571D01*
X7328571Y-67606428D01*
X7457142Y-67606428D01*
X7542857Y-67563571D01*
X7585714Y-67520714D01*
X7628571Y-67435000D01*
X7628571Y-67092142D01*
X7157142Y-67906428D02*
X7157142Y-68463571D01*
X7500000Y-68163571D01*
X7500000Y-68292142D01*
X7542857Y-68377857D01*
X7585714Y-68420714D01*
X7671428Y-68463571D01*
X7885714Y-68463571D01*
X7971428Y-68420714D01*
X8014285Y-68377857D01*
X8057142Y-68292142D01*
X8057142Y-68035000D01*
X8014285Y-67949285D01*
X7971428Y-67906428D01*
X9707142Y-38993571D02*
X9278571Y-38693571D01*
X9707142Y-38479285D02*
X8807142Y-38479285D01*
X8807142Y-38822142D01*
X8850000Y-38907857D01*
X8892857Y-38950714D01*
X8978571Y-38993571D01*
X9107142Y-38993571D01*
X9192857Y-38950714D01*
X9235714Y-38907857D01*
X9278571Y-38822142D01*
X9278571Y-38479285D01*
X8892857Y-39336428D02*
X8850000Y-39379285D01*
X8807142Y-39465000D01*
X8807142Y-39679285D01*
X8850000Y-39765000D01*
X8892857Y-39807857D01*
X8978571Y-39850714D01*
X9064285Y-39850714D01*
X9192857Y-39807857D01*
X9707142Y-39293571D01*
X9707142Y-39850714D01*
X9707142Y-65706428D02*
X9278571Y-65406428D01*
X9707142Y-65192142D02*
X8807142Y-65192142D01*
X8807142Y-65535000D01*
X8850000Y-65620714D01*
X8892857Y-65663571D01*
X8978571Y-65706428D01*
X9107142Y-65706428D01*
X9192857Y-65663571D01*
X9235714Y-65620714D01*
X9278571Y-65535000D01*
X9278571Y-65192142D01*
X9707142Y-66563571D02*
X9707142Y-66049285D01*
X9707142Y-66306428D02*
X8807142Y-66306428D01*
X8935714Y-66220714D01*
X9021428Y-66135000D01*
X9064285Y-66049285D01*
X19906428Y-80471428D02*
X19949285Y-80514285D01*
X20077857Y-80557142D01*
X20163571Y-80557142D01*
X20292142Y-80514285D01*
X20377857Y-80428571D01*
X20420714Y-80342857D01*
X20463571Y-80171428D01*
X20463571Y-80042857D01*
X20420714Y-79871428D01*
X20377857Y-79785714D01*
X20292142Y-79700000D01*
X20163571Y-79657142D01*
X20077857Y-79657142D01*
X19949285Y-79700000D01*
X19906428Y-79742857D01*
X19606428Y-79657142D02*
X19049285Y-79657142D01*
X19349285Y-80000000D01*
X19220714Y-80000000D01*
X19135000Y-80042857D01*
X19092142Y-80085714D01*
X19049285Y-80171428D01*
X19049285Y-80385714D01*
X19092142Y-80471428D01*
X19135000Y-80514285D01*
X19220714Y-80557142D01*
X19477857Y-80557142D01*
X19563571Y-80514285D01*
X19606428Y-80471428D01*
X56593571Y-89571428D02*
X56636428Y-89614285D01*
X56765000Y-89657142D01*
X56850714Y-89657142D01*
X56979285Y-89614285D01*
X57065000Y-89528571D01*
X57107857Y-89442857D01*
X57150714Y-89271428D01*
X57150714Y-89142857D01*
X57107857Y-88971428D01*
X57065000Y-88885714D01*
X56979285Y-88800000D01*
X56850714Y-88757142D01*
X56765000Y-88757142D01*
X56636428Y-88800000D01*
X56593571Y-88842857D01*
X56250714Y-88842857D02*
X56207857Y-88800000D01*
X56122142Y-88757142D01*
X55907857Y-88757142D01*
X55822142Y-88800000D01*
X55779285Y-88842857D01*
X55736428Y-88928571D01*
X55736428Y-89014285D01*
X55779285Y-89142857D01*
X56293571Y-89657142D01*
X55736428Y-89657142D01*
X56593571Y-92771428D02*
X56636428Y-92814285D01*
X56765000Y-92857142D01*
X56850714Y-92857142D01*
X56979285Y-92814285D01*
X57065000Y-92728571D01*
X57107857Y-92642857D01*
X57150714Y-92471428D01*
X57150714Y-92342857D01*
X57107857Y-92171428D01*
X57065000Y-92085714D01*
X56979285Y-92000000D01*
X56850714Y-91957142D01*
X56765000Y-91957142D01*
X56636428Y-92000000D01*
X56593571Y-92042857D01*
X55736428Y-92857142D02*
X56250714Y-92857142D01*
X55993571Y-92857142D02*
X55993571Y-91957142D01*
X56079285Y-92085714D01*
X56165000Y-92171428D01*
X56250714Y-92214285D01*
D12*
X42876190Y-90423809D02*
X43352380Y-90423809D01*
X42352380Y-90090476D02*
X42876190Y-90423809D01*
X42352380Y-90757142D01*
X43352380Y-91614285D02*
X43352380Y-91042857D01*
X43352380Y-91328571D02*
X42352380Y-91328571D01*
X42495238Y-91233333D01*
X42590476Y-91138095D01*
X42638095Y-91042857D01*
X23152380Y-90138095D02*
X23961904Y-90138095D01*
X24057142Y-90185714D01*
X24104761Y-90233333D01*
X24152380Y-90328571D01*
X24152380Y-90519047D01*
X24104761Y-90614285D01*
X24057142Y-90661904D01*
X23961904Y-90709523D01*
X23152380Y-90709523D01*
X24152380Y-91709523D02*
X24152380Y-91138095D01*
X24152380Y-91423809D02*
X23152380Y-91423809D01*
X23295238Y-91328571D01*
X23390476Y-91233333D01*
X23438095Y-91138095D01*
X207909523Y-94804761D02*
X207766666Y-94852380D01*
X207528571Y-94852380D01*
X207433333Y-94804761D01*
X207385714Y-94757142D01*
X207338095Y-94661904D01*
X207338095Y-94566666D01*
X207385714Y-94471428D01*
X207433333Y-94423809D01*
X207528571Y-94376190D01*
X207719047Y-94328571D01*
X207814285Y-94280952D01*
X207861904Y-94233333D01*
X207909523Y-94138095D01*
X207909523Y-94042857D01*
X207861904Y-93947619D01*
X207814285Y-93900000D01*
X207719047Y-93852380D01*
X207480952Y-93852380D01*
X207338095Y-93900000D01*
X207004761Y-93852380D02*
X206766666Y-94852380D01*
X206576190Y-94138095D01*
X206385714Y-94852380D01*
X206147619Y-93852380D01*
X205338095Y-93852380D02*
X205528571Y-93852380D01*
X205623809Y-93900000D01*
X205671428Y-93947619D01*
X205766666Y-94090476D01*
X205814285Y-94280952D01*
X205814285Y-94661904D01*
X205766666Y-94757142D01*
X205719047Y-94804761D01*
X205623809Y-94852380D01*
X205433333Y-94852380D01*
X205338095Y-94804761D01*
X205290476Y-94757142D01*
X205242857Y-94661904D01*
X205242857Y-94423809D01*
X205290476Y-94328571D01*
X205338095Y-94280952D01*
X205433333Y-94233333D01*
X205623809Y-94233333D01*
X205719047Y-94280952D01*
X205766666Y-94328571D01*
X205814285Y-94423809D01*
X204290476Y-94852380D02*
X204861904Y-94852380D01*
X204576190Y-94852380D02*
X204576190Y-93852380D01*
X204671428Y-93995238D01*
X204766666Y-94090476D01*
X204861904Y-94138095D01*
X188709523Y-94804761D02*
X188566666Y-94852380D01*
X188328571Y-94852380D01*
X188233333Y-94804761D01*
X188185714Y-94757142D01*
X188138095Y-94661904D01*
X188138095Y-94566666D01*
X188185714Y-94471428D01*
X188233333Y-94423809D01*
X188328571Y-94376190D01*
X188519047Y-94328571D01*
X188614285Y-94280952D01*
X188661904Y-94233333D01*
X188709523Y-94138095D01*
X188709523Y-94042857D01*
X188661904Y-93947619D01*
X188614285Y-93900000D01*
X188519047Y-93852380D01*
X188280952Y-93852380D01*
X188138095Y-93900000D01*
X187804761Y-93852380D02*
X187566666Y-94852380D01*
X187376190Y-94138095D01*
X187185714Y-94852380D01*
X186947619Y-93852380D01*
X186138095Y-93852380D02*
X186328571Y-93852380D01*
X186423809Y-93900000D01*
X186471428Y-93947619D01*
X186566666Y-94090476D01*
X186614285Y-94280952D01*
X186614285Y-94661904D01*
X186566666Y-94757142D01*
X186519047Y-94804761D01*
X186423809Y-94852380D01*
X186233333Y-94852380D01*
X186138095Y-94804761D01*
X186090476Y-94757142D01*
X186042857Y-94661904D01*
X186042857Y-94423809D01*
X186090476Y-94328571D01*
X186138095Y-94280952D01*
X186233333Y-94233333D01*
X186423809Y-94233333D01*
X186519047Y-94280952D01*
X186566666Y-94328571D01*
X186614285Y-94423809D01*
X185423809Y-93852380D02*
X185328571Y-93852380D01*
X185233333Y-93900000D01*
X185185714Y-93947619D01*
X185138095Y-94042857D01*
X185090476Y-94233333D01*
X185090476Y-94471428D01*
X185138095Y-94661904D01*
X185185714Y-94757142D01*
X185233333Y-94804761D01*
X185328571Y-94852380D01*
X185423809Y-94852380D01*
X185519047Y-94804761D01*
X185566666Y-94757142D01*
X185614285Y-94661904D01*
X185661904Y-94471428D01*
X185661904Y-94233333D01*
X185614285Y-94042857D01*
X185566666Y-93947619D01*
X185519047Y-93900000D01*
X185423809Y-93852380D01*
X159909523Y-94804761D02*
X159766666Y-94852380D01*
X159528571Y-94852380D01*
X159433333Y-94804761D01*
X159385714Y-94757142D01*
X159338095Y-94661904D01*
X159338095Y-94566666D01*
X159385714Y-94471428D01*
X159433333Y-94423809D01*
X159528571Y-94376190D01*
X159719047Y-94328571D01*
X159814285Y-94280952D01*
X159861904Y-94233333D01*
X159909523Y-94138095D01*
X159909523Y-94042857D01*
X159861904Y-93947619D01*
X159814285Y-93900000D01*
X159719047Y-93852380D01*
X159480952Y-93852380D01*
X159338095Y-93900000D01*
X159004761Y-93852380D02*
X158766666Y-94852380D01*
X158576190Y-94138095D01*
X158385714Y-94852380D01*
X158147619Y-93852380D01*
X157290476Y-93852380D02*
X157766666Y-93852380D01*
X157814285Y-94328571D01*
X157766666Y-94280952D01*
X157671428Y-94233333D01*
X157433333Y-94233333D01*
X157338095Y-94280952D01*
X157290476Y-94328571D01*
X157242857Y-94423809D01*
X157242857Y-94661904D01*
X157290476Y-94757142D01*
X157338095Y-94804761D01*
X157433333Y-94852380D01*
X157671428Y-94852380D01*
X157766666Y-94804761D01*
X157814285Y-94757142D01*
X156766666Y-94852380D02*
X156576190Y-94852380D01*
X156480952Y-94804761D01*
X156433333Y-94757142D01*
X156338095Y-94614285D01*
X156290476Y-94423809D01*
X156290476Y-94042857D01*
X156338095Y-93947619D01*
X156385714Y-93900000D01*
X156480952Y-93852380D01*
X156671428Y-93852380D01*
X156766666Y-93900000D01*
X156814285Y-93947619D01*
X156861904Y-94042857D01*
X156861904Y-94280952D01*
X156814285Y-94376190D01*
X156766666Y-94423809D01*
X156671428Y-94471428D01*
X156480952Y-94471428D01*
X156385714Y-94423809D01*
X156338095Y-94376190D01*
X156290476Y-94280952D01*
X121509523Y-94804761D02*
X121366666Y-94852380D01*
X121128571Y-94852380D01*
X121033333Y-94804761D01*
X120985714Y-94757142D01*
X120938095Y-94661904D01*
X120938095Y-94566666D01*
X120985714Y-94471428D01*
X121033333Y-94423809D01*
X121128571Y-94376190D01*
X121319047Y-94328571D01*
X121414285Y-94280952D01*
X121461904Y-94233333D01*
X121509523Y-94138095D01*
X121509523Y-94042857D01*
X121461904Y-93947619D01*
X121414285Y-93900000D01*
X121319047Y-93852380D01*
X121080952Y-93852380D01*
X120938095Y-93900000D01*
X120604761Y-93852380D02*
X120366666Y-94852380D01*
X120176190Y-94138095D01*
X119985714Y-94852380D01*
X119747619Y-93852380D01*
X118890476Y-93852380D02*
X119366666Y-93852380D01*
X119414285Y-94328571D01*
X119366666Y-94280952D01*
X119271428Y-94233333D01*
X119033333Y-94233333D01*
X118938095Y-94280952D01*
X118890476Y-94328571D01*
X118842857Y-94423809D01*
X118842857Y-94661904D01*
X118890476Y-94757142D01*
X118938095Y-94804761D01*
X119033333Y-94852380D01*
X119271428Y-94852380D01*
X119366666Y-94804761D01*
X119414285Y-94757142D01*
X118271428Y-94280952D02*
X118366666Y-94233333D01*
X118414285Y-94185714D01*
X118461904Y-94090476D01*
X118461904Y-94042857D01*
X118414285Y-93947619D01*
X118366666Y-93900000D01*
X118271428Y-93852380D01*
X118080952Y-93852380D01*
X117985714Y-93900000D01*
X117938095Y-93947619D01*
X117890476Y-94042857D01*
X117890476Y-94090476D01*
X117938095Y-94185714D01*
X117985714Y-94233333D01*
X118080952Y-94280952D01*
X118271428Y-94280952D01*
X118366666Y-94328571D01*
X118414285Y-94376190D01*
X118461904Y-94471428D01*
X118461904Y-94661904D01*
X118414285Y-94757142D01*
X118366666Y-94804761D01*
X118271428Y-94852380D01*
X118080952Y-94852380D01*
X117985714Y-94804761D01*
X117938095Y-94757142D01*
X117890476Y-94661904D01*
X117890476Y-94471428D01*
X117938095Y-94376190D01*
X117985714Y-94328571D01*
X118080952Y-94280952D01*
X92709523Y-94804761D02*
X92566666Y-94852380D01*
X92328571Y-94852380D01*
X92233333Y-94804761D01*
X92185714Y-94757142D01*
X92138095Y-94661904D01*
X92138095Y-94566666D01*
X92185714Y-94471428D01*
X92233333Y-94423809D01*
X92328571Y-94376190D01*
X92519047Y-94328571D01*
X92614285Y-94280952D01*
X92661904Y-94233333D01*
X92709523Y-94138095D01*
X92709523Y-94042857D01*
X92661904Y-93947619D01*
X92614285Y-93900000D01*
X92519047Y-93852380D01*
X92280952Y-93852380D01*
X92138095Y-93900000D01*
X91804761Y-93852380D02*
X91566666Y-94852380D01*
X91376190Y-94138095D01*
X91185714Y-94852380D01*
X90947619Y-93852380D01*
X90090476Y-93852380D02*
X90566666Y-93852380D01*
X90614285Y-94328571D01*
X90566666Y-94280952D01*
X90471428Y-94233333D01*
X90233333Y-94233333D01*
X90138095Y-94280952D01*
X90090476Y-94328571D01*
X90042857Y-94423809D01*
X90042857Y-94661904D01*
X90090476Y-94757142D01*
X90138095Y-94804761D01*
X90233333Y-94852380D01*
X90471428Y-94852380D01*
X90566666Y-94804761D01*
X90614285Y-94757142D01*
X89709523Y-93852380D02*
X89042857Y-93852380D01*
X89471428Y-94852380D01*
X73509523Y-94804761D02*
X73366666Y-94852380D01*
X73128571Y-94852380D01*
X73033333Y-94804761D01*
X72985714Y-94757142D01*
X72938095Y-94661904D01*
X72938095Y-94566666D01*
X72985714Y-94471428D01*
X73033333Y-94423809D01*
X73128571Y-94376190D01*
X73319047Y-94328571D01*
X73414285Y-94280952D01*
X73461904Y-94233333D01*
X73509523Y-94138095D01*
X73509523Y-94042857D01*
X73461904Y-93947619D01*
X73414285Y-93900000D01*
X73319047Y-93852380D01*
X73080952Y-93852380D01*
X72938095Y-93900000D01*
X72604761Y-93852380D02*
X72366666Y-94852380D01*
X72176190Y-94138095D01*
X71985714Y-94852380D01*
X71747619Y-93852380D01*
X70890476Y-93852380D02*
X71366666Y-93852380D01*
X71414285Y-94328571D01*
X71366666Y-94280952D01*
X71271428Y-94233333D01*
X71033333Y-94233333D01*
X70938095Y-94280952D01*
X70890476Y-94328571D01*
X70842857Y-94423809D01*
X70842857Y-94661904D01*
X70890476Y-94757142D01*
X70938095Y-94804761D01*
X71033333Y-94852380D01*
X71271428Y-94852380D01*
X71366666Y-94804761D01*
X71414285Y-94757142D01*
X69985714Y-93852380D02*
X70176190Y-93852380D01*
X70271428Y-93900000D01*
X70319047Y-93947619D01*
X70414285Y-94090476D01*
X70461904Y-94280952D01*
X70461904Y-94661904D01*
X70414285Y-94757142D01*
X70366666Y-94804761D01*
X70271428Y-94852380D01*
X70080952Y-94852380D01*
X69985714Y-94804761D01*
X69938095Y-94757142D01*
X69890476Y-94661904D01*
X69890476Y-94423809D01*
X69938095Y-94328571D01*
X69985714Y-94280952D01*
X70080952Y-94233333D01*
X70271428Y-94233333D01*
X70366666Y-94280952D01*
X70414285Y-94328571D01*
X70461904Y-94423809D01*
X284709523Y-75604761D02*
X284566666Y-75652380D01*
X284328571Y-75652380D01*
X284233333Y-75604761D01*
X284185714Y-75557142D01*
X284138095Y-75461904D01*
X284138095Y-75366666D01*
X284185714Y-75271428D01*
X284233333Y-75223809D01*
X284328571Y-75176190D01*
X284519047Y-75128571D01*
X284614285Y-75080952D01*
X284661904Y-75033333D01*
X284709523Y-74938095D01*
X284709523Y-74842857D01*
X284661904Y-74747619D01*
X284614285Y-74700000D01*
X284519047Y-74652380D01*
X284280952Y-74652380D01*
X284138095Y-74700000D01*
X283804761Y-74652380D02*
X283566666Y-75652380D01*
X283376190Y-74938095D01*
X283185714Y-75652380D01*
X282947619Y-74652380D01*
X282090476Y-74652380D02*
X282566666Y-74652380D01*
X282614285Y-75128571D01*
X282566666Y-75080952D01*
X282471428Y-75033333D01*
X282233333Y-75033333D01*
X282138095Y-75080952D01*
X282090476Y-75128571D01*
X282042857Y-75223809D01*
X282042857Y-75461904D01*
X282090476Y-75557142D01*
X282138095Y-75604761D01*
X282233333Y-75652380D01*
X282471428Y-75652380D01*
X282566666Y-75604761D01*
X282614285Y-75557142D01*
X281138095Y-74652380D02*
X281614285Y-74652380D01*
X281661904Y-75128571D01*
X281614285Y-75080952D01*
X281519047Y-75033333D01*
X281280952Y-75033333D01*
X281185714Y-75080952D01*
X281138095Y-75128571D01*
X281090476Y-75223809D01*
X281090476Y-75461904D01*
X281138095Y-75557142D01*
X281185714Y-75604761D01*
X281280952Y-75652380D01*
X281519047Y-75652380D01*
X281614285Y-75604761D01*
X281661904Y-75557142D01*
X255909523Y-75604761D02*
X255766666Y-75652380D01*
X255528571Y-75652380D01*
X255433333Y-75604761D01*
X255385714Y-75557142D01*
X255338095Y-75461904D01*
X255338095Y-75366666D01*
X255385714Y-75271428D01*
X255433333Y-75223809D01*
X255528571Y-75176190D01*
X255719047Y-75128571D01*
X255814285Y-75080952D01*
X255861904Y-75033333D01*
X255909523Y-74938095D01*
X255909523Y-74842857D01*
X255861904Y-74747619D01*
X255814285Y-74700000D01*
X255719047Y-74652380D01*
X255480952Y-74652380D01*
X255338095Y-74700000D01*
X255004761Y-74652380D02*
X254766666Y-75652380D01*
X254576190Y-74938095D01*
X254385714Y-75652380D01*
X254147619Y-74652380D01*
X253290476Y-74652380D02*
X253766666Y-74652380D01*
X253814285Y-75128571D01*
X253766666Y-75080952D01*
X253671428Y-75033333D01*
X253433333Y-75033333D01*
X253338095Y-75080952D01*
X253290476Y-75128571D01*
X253242857Y-75223809D01*
X253242857Y-75461904D01*
X253290476Y-75557142D01*
X253338095Y-75604761D01*
X253433333Y-75652380D01*
X253671428Y-75652380D01*
X253766666Y-75604761D01*
X253814285Y-75557142D01*
X252385714Y-74985714D02*
X252385714Y-75652380D01*
X252623809Y-74604761D02*
X252861904Y-75319047D01*
X252242857Y-75319047D01*
X227109523Y-75604761D02*
X226966666Y-75652380D01*
X226728571Y-75652380D01*
X226633333Y-75604761D01*
X226585714Y-75557142D01*
X226538095Y-75461904D01*
X226538095Y-75366666D01*
X226585714Y-75271428D01*
X226633333Y-75223809D01*
X226728571Y-75176190D01*
X226919047Y-75128571D01*
X227014285Y-75080952D01*
X227061904Y-75033333D01*
X227109523Y-74938095D01*
X227109523Y-74842857D01*
X227061904Y-74747619D01*
X227014285Y-74700000D01*
X226919047Y-74652380D01*
X226680952Y-74652380D01*
X226538095Y-74700000D01*
X226204761Y-74652380D02*
X225966666Y-75652380D01*
X225776190Y-74938095D01*
X225585714Y-75652380D01*
X225347619Y-74652380D01*
X224490476Y-74652380D02*
X224966666Y-74652380D01*
X225014285Y-75128571D01*
X224966666Y-75080952D01*
X224871428Y-75033333D01*
X224633333Y-75033333D01*
X224538095Y-75080952D01*
X224490476Y-75128571D01*
X224442857Y-75223809D01*
X224442857Y-75461904D01*
X224490476Y-75557142D01*
X224538095Y-75604761D01*
X224633333Y-75652380D01*
X224871428Y-75652380D01*
X224966666Y-75604761D01*
X225014285Y-75557142D01*
X224109523Y-74652380D02*
X223490476Y-74652380D01*
X223823809Y-75033333D01*
X223680952Y-75033333D01*
X223585714Y-75080952D01*
X223538095Y-75128571D01*
X223490476Y-75223809D01*
X223490476Y-75461904D01*
X223538095Y-75557142D01*
X223585714Y-75604761D01*
X223680952Y-75652380D01*
X223966666Y-75652380D01*
X224061904Y-75604761D01*
X224109523Y-75557142D01*
X207909523Y-75604761D02*
X207766666Y-75652380D01*
X207528571Y-75652380D01*
X207433333Y-75604761D01*
X207385714Y-75557142D01*
X207338095Y-75461904D01*
X207338095Y-75366666D01*
X207385714Y-75271428D01*
X207433333Y-75223809D01*
X207528571Y-75176190D01*
X207719047Y-75128571D01*
X207814285Y-75080952D01*
X207861904Y-75033333D01*
X207909523Y-74938095D01*
X207909523Y-74842857D01*
X207861904Y-74747619D01*
X207814285Y-74700000D01*
X207719047Y-74652380D01*
X207480952Y-74652380D01*
X207338095Y-74700000D01*
X207004761Y-74652380D02*
X206766666Y-75652380D01*
X206576190Y-74938095D01*
X206385714Y-75652380D01*
X206147619Y-74652380D01*
X205290476Y-74652380D02*
X205766666Y-74652380D01*
X205814285Y-75128571D01*
X205766666Y-75080952D01*
X205671428Y-75033333D01*
X205433333Y-75033333D01*
X205338095Y-75080952D01*
X205290476Y-75128571D01*
X205242857Y-75223809D01*
X205242857Y-75461904D01*
X205290476Y-75557142D01*
X205338095Y-75604761D01*
X205433333Y-75652380D01*
X205671428Y-75652380D01*
X205766666Y-75604761D01*
X205814285Y-75557142D01*
X204861904Y-74747619D02*
X204814285Y-74700000D01*
X204719047Y-74652380D01*
X204480952Y-74652380D01*
X204385714Y-74700000D01*
X204338095Y-74747619D01*
X204290476Y-74842857D01*
X204290476Y-74938095D01*
X204338095Y-75080952D01*
X204909523Y-75652380D01*
X204290476Y-75652380D01*
X188709523Y-75604761D02*
X188566666Y-75652380D01*
X188328571Y-75652380D01*
X188233333Y-75604761D01*
X188185714Y-75557142D01*
X188138095Y-75461904D01*
X188138095Y-75366666D01*
X188185714Y-75271428D01*
X188233333Y-75223809D01*
X188328571Y-75176190D01*
X188519047Y-75128571D01*
X188614285Y-75080952D01*
X188661904Y-75033333D01*
X188709523Y-74938095D01*
X188709523Y-74842857D01*
X188661904Y-74747619D01*
X188614285Y-74700000D01*
X188519047Y-74652380D01*
X188280952Y-74652380D01*
X188138095Y-74700000D01*
X187804761Y-74652380D02*
X187566666Y-75652380D01*
X187376190Y-74938095D01*
X187185714Y-75652380D01*
X186947619Y-74652380D01*
X186090476Y-74652380D02*
X186566666Y-74652380D01*
X186614285Y-75128571D01*
X186566666Y-75080952D01*
X186471428Y-75033333D01*
X186233333Y-75033333D01*
X186138095Y-75080952D01*
X186090476Y-75128571D01*
X186042857Y-75223809D01*
X186042857Y-75461904D01*
X186090476Y-75557142D01*
X186138095Y-75604761D01*
X186233333Y-75652380D01*
X186471428Y-75652380D01*
X186566666Y-75604761D01*
X186614285Y-75557142D01*
X185090476Y-75652380D02*
X185661904Y-75652380D01*
X185376190Y-75652380D02*
X185376190Y-74652380D01*
X185471428Y-74795238D01*
X185566666Y-74890476D01*
X185661904Y-74938095D01*
X169509523Y-75604761D02*
X169366666Y-75652380D01*
X169128571Y-75652380D01*
X169033333Y-75604761D01*
X168985714Y-75557142D01*
X168938095Y-75461904D01*
X168938095Y-75366666D01*
X168985714Y-75271428D01*
X169033333Y-75223809D01*
X169128571Y-75176190D01*
X169319047Y-75128571D01*
X169414285Y-75080952D01*
X169461904Y-75033333D01*
X169509523Y-74938095D01*
X169509523Y-74842857D01*
X169461904Y-74747619D01*
X169414285Y-74700000D01*
X169319047Y-74652380D01*
X169080952Y-74652380D01*
X168938095Y-74700000D01*
X168604761Y-74652380D02*
X168366666Y-75652380D01*
X168176190Y-74938095D01*
X167985714Y-75652380D01*
X167747619Y-74652380D01*
X166890476Y-74652380D02*
X167366666Y-74652380D01*
X167414285Y-75128571D01*
X167366666Y-75080952D01*
X167271428Y-75033333D01*
X167033333Y-75033333D01*
X166938095Y-75080952D01*
X166890476Y-75128571D01*
X166842857Y-75223809D01*
X166842857Y-75461904D01*
X166890476Y-75557142D01*
X166938095Y-75604761D01*
X167033333Y-75652380D01*
X167271428Y-75652380D01*
X167366666Y-75604761D01*
X167414285Y-75557142D01*
X166223809Y-74652380D02*
X166128571Y-74652380D01*
X166033333Y-74700000D01*
X165985714Y-74747619D01*
X165938095Y-74842857D01*
X165890476Y-75033333D01*
X165890476Y-75271428D01*
X165938095Y-75461904D01*
X165985714Y-75557142D01*
X166033333Y-75604761D01*
X166128571Y-75652380D01*
X166223809Y-75652380D01*
X166319047Y-75604761D01*
X166366666Y-75557142D01*
X166414285Y-75461904D01*
X166461904Y-75271428D01*
X166461904Y-75033333D01*
X166414285Y-74842857D01*
X166366666Y-74747619D01*
X166319047Y-74700000D01*
X166223809Y-74652380D01*
X150309523Y-75604761D02*
X150166666Y-75652380D01*
X149928571Y-75652380D01*
X149833333Y-75604761D01*
X149785714Y-75557142D01*
X149738095Y-75461904D01*
X149738095Y-75366666D01*
X149785714Y-75271428D01*
X149833333Y-75223809D01*
X149928571Y-75176190D01*
X150119047Y-75128571D01*
X150214285Y-75080952D01*
X150261904Y-75033333D01*
X150309523Y-74938095D01*
X150309523Y-74842857D01*
X150261904Y-74747619D01*
X150214285Y-74700000D01*
X150119047Y-74652380D01*
X149880952Y-74652380D01*
X149738095Y-74700000D01*
X149404761Y-74652380D02*
X149166666Y-75652380D01*
X148976190Y-74938095D01*
X148785714Y-75652380D01*
X148547619Y-74652380D01*
X147738095Y-74985714D02*
X147738095Y-75652380D01*
X147976190Y-74604761D02*
X148214285Y-75319047D01*
X147595238Y-75319047D01*
X147166666Y-75652380D02*
X146976190Y-75652380D01*
X146880952Y-75604761D01*
X146833333Y-75557142D01*
X146738095Y-75414285D01*
X146690476Y-75223809D01*
X146690476Y-74842857D01*
X146738095Y-74747619D01*
X146785714Y-74700000D01*
X146880952Y-74652380D01*
X147071428Y-74652380D01*
X147166666Y-74700000D01*
X147214285Y-74747619D01*
X147261904Y-74842857D01*
X147261904Y-75080952D01*
X147214285Y-75176190D01*
X147166666Y-75223809D01*
X147071428Y-75271428D01*
X146880952Y-75271428D01*
X146785714Y-75223809D01*
X146738095Y-75176190D01*
X146690476Y-75080952D01*
X131109523Y-75604761D02*
X130966666Y-75652380D01*
X130728571Y-75652380D01*
X130633333Y-75604761D01*
X130585714Y-75557142D01*
X130538095Y-75461904D01*
X130538095Y-75366666D01*
X130585714Y-75271428D01*
X130633333Y-75223809D01*
X130728571Y-75176190D01*
X130919047Y-75128571D01*
X131014285Y-75080952D01*
X131061904Y-75033333D01*
X131109523Y-74938095D01*
X131109523Y-74842857D01*
X131061904Y-74747619D01*
X131014285Y-74700000D01*
X130919047Y-74652380D01*
X130680952Y-74652380D01*
X130538095Y-74700000D01*
X130204761Y-74652380D02*
X129966666Y-75652380D01*
X129776190Y-74938095D01*
X129585714Y-75652380D01*
X129347619Y-74652380D01*
X128538095Y-74985714D02*
X128538095Y-75652380D01*
X128776190Y-74604761D02*
X129014285Y-75319047D01*
X128395238Y-75319047D01*
X127871428Y-75080952D02*
X127966666Y-75033333D01*
X128014285Y-74985714D01*
X128061904Y-74890476D01*
X128061904Y-74842857D01*
X128014285Y-74747619D01*
X127966666Y-74700000D01*
X127871428Y-74652380D01*
X127680952Y-74652380D01*
X127585714Y-74700000D01*
X127538095Y-74747619D01*
X127490476Y-74842857D01*
X127490476Y-74890476D01*
X127538095Y-74985714D01*
X127585714Y-75033333D01*
X127680952Y-75080952D01*
X127871428Y-75080952D01*
X127966666Y-75128571D01*
X128014285Y-75176190D01*
X128061904Y-75271428D01*
X128061904Y-75461904D01*
X128014285Y-75557142D01*
X127966666Y-75604761D01*
X127871428Y-75652380D01*
X127680952Y-75652380D01*
X127585714Y-75604761D01*
X127538095Y-75557142D01*
X127490476Y-75461904D01*
X127490476Y-75271428D01*
X127538095Y-75176190D01*
X127585714Y-75128571D01*
X127680952Y-75080952D01*
X111909523Y-75604761D02*
X111766666Y-75652380D01*
X111528571Y-75652380D01*
X111433333Y-75604761D01*
X111385714Y-75557142D01*
X111338095Y-75461904D01*
X111338095Y-75366666D01*
X111385714Y-75271428D01*
X111433333Y-75223809D01*
X111528571Y-75176190D01*
X111719047Y-75128571D01*
X111814285Y-75080952D01*
X111861904Y-75033333D01*
X111909523Y-74938095D01*
X111909523Y-74842857D01*
X111861904Y-74747619D01*
X111814285Y-74700000D01*
X111719047Y-74652380D01*
X111480952Y-74652380D01*
X111338095Y-74700000D01*
X111004761Y-74652380D02*
X110766666Y-75652380D01*
X110576190Y-74938095D01*
X110385714Y-75652380D01*
X110147619Y-74652380D01*
X109338095Y-74985714D02*
X109338095Y-75652380D01*
X109576190Y-74604761D02*
X109814285Y-75319047D01*
X109195238Y-75319047D01*
X108909523Y-74652380D02*
X108242857Y-74652380D01*
X108671428Y-75652380D01*
X92709523Y-75604761D02*
X92566666Y-75652380D01*
X92328571Y-75652380D01*
X92233333Y-75604761D01*
X92185714Y-75557142D01*
X92138095Y-75461904D01*
X92138095Y-75366666D01*
X92185714Y-75271428D01*
X92233333Y-75223809D01*
X92328571Y-75176190D01*
X92519047Y-75128571D01*
X92614285Y-75080952D01*
X92661904Y-75033333D01*
X92709523Y-74938095D01*
X92709523Y-74842857D01*
X92661904Y-74747619D01*
X92614285Y-74700000D01*
X92519047Y-74652380D01*
X92280952Y-74652380D01*
X92138095Y-74700000D01*
X91804761Y-74652380D02*
X91566666Y-75652380D01*
X91376190Y-74938095D01*
X91185714Y-75652380D01*
X90947619Y-74652380D01*
X90138095Y-74985714D02*
X90138095Y-75652380D01*
X90376190Y-74604761D02*
X90614285Y-75319047D01*
X89995238Y-75319047D01*
X89185714Y-74652380D02*
X89376190Y-74652380D01*
X89471428Y-74700000D01*
X89519047Y-74747619D01*
X89614285Y-74890476D01*
X89661904Y-75080952D01*
X89661904Y-75461904D01*
X89614285Y-75557142D01*
X89566666Y-75604761D01*
X89471428Y-75652380D01*
X89280952Y-75652380D01*
X89185714Y-75604761D01*
X89138095Y-75557142D01*
X89090476Y-75461904D01*
X89090476Y-75223809D01*
X89138095Y-75128571D01*
X89185714Y-75080952D01*
X89280952Y-75033333D01*
X89471428Y-75033333D01*
X89566666Y-75080952D01*
X89614285Y-75128571D01*
X89661904Y-75223809D01*
X73509523Y-75604761D02*
X73366666Y-75652380D01*
X73128571Y-75652380D01*
X73033333Y-75604761D01*
X72985714Y-75557142D01*
X72938095Y-75461904D01*
X72938095Y-75366666D01*
X72985714Y-75271428D01*
X73033333Y-75223809D01*
X73128571Y-75176190D01*
X73319047Y-75128571D01*
X73414285Y-75080952D01*
X73461904Y-75033333D01*
X73509523Y-74938095D01*
X73509523Y-74842857D01*
X73461904Y-74747619D01*
X73414285Y-74700000D01*
X73319047Y-74652380D01*
X73080952Y-74652380D01*
X72938095Y-74700000D01*
X72604761Y-74652380D02*
X72366666Y-75652380D01*
X72176190Y-74938095D01*
X71985714Y-75652380D01*
X71747619Y-74652380D01*
X70938095Y-74985714D02*
X70938095Y-75652380D01*
X71176190Y-74604761D02*
X71414285Y-75319047D01*
X70795238Y-75319047D01*
X69938095Y-74652380D02*
X70414285Y-74652380D01*
X70461904Y-75128571D01*
X70414285Y-75080952D01*
X70319047Y-75033333D01*
X70080952Y-75033333D01*
X69985714Y-75080952D01*
X69938095Y-75128571D01*
X69890476Y-75223809D01*
X69890476Y-75461904D01*
X69938095Y-75557142D01*
X69985714Y-75604761D01*
X70080952Y-75652380D01*
X70319047Y-75652380D01*
X70414285Y-75604761D01*
X70461904Y-75557142D01*
X54309523Y-75604761D02*
X54166666Y-75652380D01*
X53928571Y-75652380D01*
X53833333Y-75604761D01*
X53785714Y-75557142D01*
X53738095Y-75461904D01*
X53738095Y-75366666D01*
X53785714Y-75271428D01*
X53833333Y-75223809D01*
X53928571Y-75176190D01*
X54119047Y-75128571D01*
X54214285Y-75080952D01*
X54261904Y-75033333D01*
X54309523Y-74938095D01*
X54309523Y-74842857D01*
X54261904Y-74747619D01*
X54214285Y-74700000D01*
X54119047Y-74652380D01*
X53880952Y-74652380D01*
X53738095Y-74700000D01*
X53404761Y-74652380D02*
X53166666Y-75652380D01*
X52976190Y-74938095D01*
X52785714Y-75652380D01*
X52547619Y-74652380D01*
X51738095Y-74985714D02*
X51738095Y-75652380D01*
X51976190Y-74604761D02*
X52214285Y-75319047D01*
X51595238Y-75319047D01*
X50785714Y-74985714D02*
X50785714Y-75652380D01*
X51023809Y-74604761D02*
X51261904Y-75319047D01*
X50642857Y-75319047D01*
X20509523Y-74704761D02*
X20366666Y-74752380D01*
X20128571Y-74752380D01*
X20033333Y-74704761D01*
X19985714Y-74657142D01*
X19938095Y-74561904D01*
X19938095Y-74466666D01*
X19985714Y-74371428D01*
X20033333Y-74323809D01*
X20128571Y-74276190D01*
X20319047Y-74228571D01*
X20414285Y-74180952D01*
X20461904Y-74133333D01*
X20509523Y-74038095D01*
X20509523Y-73942857D01*
X20461904Y-73847619D01*
X20414285Y-73800000D01*
X20319047Y-73752380D01*
X20080952Y-73752380D01*
X19938095Y-73800000D01*
X19604761Y-73752380D02*
X19366666Y-74752380D01*
X19176190Y-74038095D01*
X18985714Y-74752380D01*
X18747619Y-73752380D01*
X17938095Y-74085714D02*
X17938095Y-74752380D01*
X18176190Y-73704761D02*
X18414285Y-74419047D01*
X17795238Y-74419047D01*
X17509523Y-73752380D02*
X16890476Y-73752380D01*
X17223809Y-74133333D01*
X17080952Y-74133333D01*
X16985714Y-74180952D01*
X16938095Y-74228571D01*
X16890476Y-74323809D01*
X16890476Y-74561904D01*
X16938095Y-74657142D01*
X16985714Y-74704761D01*
X17080952Y-74752380D01*
X17366666Y-74752380D01*
X17461904Y-74704761D01*
X17509523Y-74657142D01*
X275109523Y-56404761D02*
X274966666Y-56452380D01*
X274728571Y-56452380D01*
X274633333Y-56404761D01*
X274585714Y-56357142D01*
X274538095Y-56261904D01*
X274538095Y-56166666D01*
X274585714Y-56071428D01*
X274633333Y-56023809D01*
X274728571Y-55976190D01*
X274919047Y-55928571D01*
X275014285Y-55880952D01*
X275061904Y-55833333D01*
X275109523Y-55738095D01*
X275109523Y-55642857D01*
X275061904Y-55547619D01*
X275014285Y-55500000D01*
X274919047Y-55452380D01*
X274680952Y-55452380D01*
X274538095Y-55500000D01*
X274204761Y-55452380D02*
X273966666Y-56452380D01*
X273776190Y-55738095D01*
X273585714Y-56452380D01*
X273347619Y-55452380D01*
X272538095Y-55785714D02*
X272538095Y-56452380D01*
X272776190Y-55404761D02*
X273014285Y-56119047D01*
X272395238Y-56119047D01*
X272061904Y-55547619D02*
X272014285Y-55500000D01*
X271919047Y-55452380D01*
X271680952Y-55452380D01*
X271585714Y-55500000D01*
X271538095Y-55547619D01*
X271490476Y-55642857D01*
X271490476Y-55738095D01*
X271538095Y-55880952D01*
X272109523Y-56452380D01*
X271490476Y-56452380D01*
X246309523Y-56404761D02*
X246166666Y-56452380D01*
X245928571Y-56452380D01*
X245833333Y-56404761D01*
X245785714Y-56357142D01*
X245738095Y-56261904D01*
X245738095Y-56166666D01*
X245785714Y-56071428D01*
X245833333Y-56023809D01*
X245928571Y-55976190D01*
X246119047Y-55928571D01*
X246214285Y-55880952D01*
X246261904Y-55833333D01*
X246309523Y-55738095D01*
X246309523Y-55642857D01*
X246261904Y-55547619D01*
X246214285Y-55500000D01*
X246119047Y-55452380D01*
X245880952Y-55452380D01*
X245738095Y-55500000D01*
X245404761Y-55452380D02*
X245166666Y-56452380D01*
X244976190Y-55738095D01*
X244785714Y-56452380D01*
X244547619Y-55452380D01*
X243738095Y-55785714D02*
X243738095Y-56452380D01*
X243976190Y-55404761D02*
X244214285Y-56119047D01*
X243595238Y-56119047D01*
X242690476Y-56452380D02*
X243261904Y-56452380D01*
X242976190Y-56452380D02*
X242976190Y-55452380D01*
X243071428Y-55595238D01*
X243166666Y-55690476D01*
X243261904Y-55738095D01*
X227109523Y-56404761D02*
X226966666Y-56452380D01*
X226728571Y-56452380D01*
X226633333Y-56404761D01*
X226585714Y-56357142D01*
X226538095Y-56261904D01*
X226538095Y-56166666D01*
X226585714Y-56071428D01*
X226633333Y-56023809D01*
X226728571Y-55976190D01*
X226919047Y-55928571D01*
X227014285Y-55880952D01*
X227061904Y-55833333D01*
X227109523Y-55738095D01*
X227109523Y-55642857D01*
X227061904Y-55547619D01*
X227014285Y-55500000D01*
X226919047Y-55452380D01*
X226680952Y-55452380D01*
X226538095Y-55500000D01*
X226204761Y-55452380D02*
X225966666Y-56452380D01*
X225776190Y-55738095D01*
X225585714Y-56452380D01*
X225347619Y-55452380D01*
X224538095Y-55785714D02*
X224538095Y-56452380D01*
X224776190Y-55404761D02*
X225014285Y-56119047D01*
X224395238Y-56119047D01*
X223823809Y-55452380D02*
X223728571Y-55452380D01*
X223633333Y-55500000D01*
X223585714Y-55547619D01*
X223538095Y-55642857D01*
X223490476Y-55833333D01*
X223490476Y-56071428D01*
X223538095Y-56261904D01*
X223585714Y-56357142D01*
X223633333Y-56404761D01*
X223728571Y-56452380D01*
X223823809Y-56452380D01*
X223919047Y-56404761D01*
X223966666Y-56357142D01*
X224014285Y-56261904D01*
X224061904Y-56071428D01*
X224061904Y-55833333D01*
X224014285Y-55642857D01*
X223966666Y-55547619D01*
X223919047Y-55500000D01*
X223823809Y-55452380D01*
X207909523Y-56404761D02*
X207766666Y-56452380D01*
X207528571Y-56452380D01*
X207433333Y-56404761D01*
X207385714Y-56357142D01*
X207338095Y-56261904D01*
X207338095Y-56166666D01*
X207385714Y-56071428D01*
X207433333Y-56023809D01*
X207528571Y-55976190D01*
X207719047Y-55928571D01*
X207814285Y-55880952D01*
X207861904Y-55833333D01*
X207909523Y-55738095D01*
X207909523Y-55642857D01*
X207861904Y-55547619D01*
X207814285Y-55500000D01*
X207719047Y-55452380D01*
X207480952Y-55452380D01*
X207338095Y-55500000D01*
X207004761Y-55452380D02*
X206766666Y-56452380D01*
X206576190Y-55738095D01*
X206385714Y-56452380D01*
X206147619Y-55452380D01*
X205861904Y-55452380D02*
X205242857Y-55452380D01*
X205576190Y-55833333D01*
X205433333Y-55833333D01*
X205338095Y-55880952D01*
X205290476Y-55928571D01*
X205242857Y-56023809D01*
X205242857Y-56261904D01*
X205290476Y-56357142D01*
X205338095Y-56404761D01*
X205433333Y-56452380D01*
X205719047Y-56452380D01*
X205814285Y-56404761D01*
X205861904Y-56357142D01*
X204766666Y-56452380D02*
X204576190Y-56452380D01*
X204480952Y-56404761D01*
X204433333Y-56357142D01*
X204338095Y-56214285D01*
X204290476Y-56023809D01*
X204290476Y-55642857D01*
X204338095Y-55547619D01*
X204385714Y-55500000D01*
X204480952Y-55452380D01*
X204671428Y-55452380D01*
X204766666Y-55500000D01*
X204814285Y-55547619D01*
X204861904Y-55642857D01*
X204861904Y-55880952D01*
X204814285Y-55976190D01*
X204766666Y-56023809D01*
X204671428Y-56071428D01*
X204480952Y-56071428D01*
X204385714Y-56023809D01*
X204338095Y-55976190D01*
X204290476Y-55880952D01*
X188709523Y-56404761D02*
X188566666Y-56452380D01*
X188328571Y-56452380D01*
X188233333Y-56404761D01*
X188185714Y-56357142D01*
X188138095Y-56261904D01*
X188138095Y-56166666D01*
X188185714Y-56071428D01*
X188233333Y-56023809D01*
X188328571Y-55976190D01*
X188519047Y-55928571D01*
X188614285Y-55880952D01*
X188661904Y-55833333D01*
X188709523Y-55738095D01*
X188709523Y-55642857D01*
X188661904Y-55547619D01*
X188614285Y-55500000D01*
X188519047Y-55452380D01*
X188280952Y-55452380D01*
X188138095Y-55500000D01*
X187804761Y-55452380D02*
X187566666Y-56452380D01*
X187376190Y-55738095D01*
X187185714Y-56452380D01*
X186947619Y-55452380D01*
X186661904Y-55452380D02*
X186042857Y-55452380D01*
X186376190Y-55833333D01*
X186233333Y-55833333D01*
X186138095Y-55880952D01*
X186090476Y-55928571D01*
X186042857Y-56023809D01*
X186042857Y-56261904D01*
X186090476Y-56357142D01*
X186138095Y-56404761D01*
X186233333Y-56452380D01*
X186519047Y-56452380D01*
X186614285Y-56404761D01*
X186661904Y-56357142D01*
X185471428Y-55880952D02*
X185566666Y-55833333D01*
X185614285Y-55785714D01*
X185661904Y-55690476D01*
X185661904Y-55642857D01*
X185614285Y-55547619D01*
X185566666Y-55500000D01*
X185471428Y-55452380D01*
X185280952Y-55452380D01*
X185185714Y-55500000D01*
X185138095Y-55547619D01*
X185090476Y-55642857D01*
X185090476Y-55690476D01*
X185138095Y-55785714D01*
X185185714Y-55833333D01*
X185280952Y-55880952D01*
X185471428Y-55880952D01*
X185566666Y-55928571D01*
X185614285Y-55976190D01*
X185661904Y-56071428D01*
X185661904Y-56261904D01*
X185614285Y-56357142D01*
X185566666Y-56404761D01*
X185471428Y-56452380D01*
X185280952Y-56452380D01*
X185185714Y-56404761D01*
X185138095Y-56357142D01*
X185090476Y-56261904D01*
X185090476Y-56071428D01*
X185138095Y-55976190D01*
X185185714Y-55928571D01*
X185280952Y-55880952D01*
X169509523Y-56404761D02*
X169366666Y-56452380D01*
X169128571Y-56452380D01*
X169033333Y-56404761D01*
X168985714Y-56357142D01*
X168938095Y-56261904D01*
X168938095Y-56166666D01*
X168985714Y-56071428D01*
X169033333Y-56023809D01*
X169128571Y-55976190D01*
X169319047Y-55928571D01*
X169414285Y-55880952D01*
X169461904Y-55833333D01*
X169509523Y-55738095D01*
X169509523Y-55642857D01*
X169461904Y-55547619D01*
X169414285Y-55500000D01*
X169319047Y-55452380D01*
X169080952Y-55452380D01*
X168938095Y-55500000D01*
X168604761Y-55452380D02*
X168366666Y-56452380D01*
X168176190Y-55738095D01*
X167985714Y-56452380D01*
X167747619Y-55452380D01*
X167461904Y-55452380D02*
X166842857Y-55452380D01*
X167176190Y-55833333D01*
X167033333Y-55833333D01*
X166938095Y-55880952D01*
X166890476Y-55928571D01*
X166842857Y-56023809D01*
X166842857Y-56261904D01*
X166890476Y-56357142D01*
X166938095Y-56404761D01*
X167033333Y-56452380D01*
X167319047Y-56452380D01*
X167414285Y-56404761D01*
X167461904Y-56357142D01*
X166509523Y-55452380D02*
X165842857Y-55452380D01*
X166271428Y-56452380D01*
X150309523Y-56404761D02*
X150166666Y-56452380D01*
X149928571Y-56452380D01*
X149833333Y-56404761D01*
X149785714Y-56357142D01*
X149738095Y-56261904D01*
X149738095Y-56166666D01*
X149785714Y-56071428D01*
X149833333Y-56023809D01*
X149928571Y-55976190D01*
X150119047Y-55928571D01*
X150214285Y-55880952D01*
X150261904Y-55833333D01*
X150309523Y-55738095D01*
X150309523Y-55642857D01*
X150261904Y-55547619D01*
X150214285Y-55500000D01*
X150119047Y-55452380D01*
X149880952Y-55452380D01*
X149738095Y-55500000D01*
X149404761Y-55452380D02*
X149166666Y-56452380D01*
X148976190Y-55738095D01*
X148785714Y-56452380D01*
X148547619Y-55452380D01*
X148261904Y-55452380D02*
X147642857Y-55452380D01*
X147976190Y-55833333D01*
X147833333Y-55833333D01*
X147738095Y-55880952D01*
X147690476Y-55928571D01*
X147642857Y-56023809D01*
X147642857Y-56261904D01*
X147690476Y-56357142D01*
X147738095Y-56404761D01*
X147833333Y-56452380D01*
X148119047Y-56452380D01*
X148214285Y-56404761D01*
X148261904Y-56357142D01*
X146785714Y-55452380D02*
X146976190Y-55452380D01*
X147071428Y-55500000D01*
X147119047Y-55547619D01*
X147214285Y-55690476D01*
X147261904Y-55880952D01*
X147261904Y-56261904D01*
X147214285Y-56357142D01*
X147166666Y-56404761D01*
X147071428Y-56452380D01*
X146880952Y-56452380D01*
X146785714Y-56404761D01*
X146738095Y-56357142D01*
X146690476Y-56261904D01*
X146690476Y-56023809D01*
X146738095Y-55928571D01*
X146785714Y-55880952D01*
X146880952Y-55833333D01*
X147071428Y-55833333D01*
X147166666Y-55880952D01*
X147214285Y-55928571D01*
X147261904Y-56023809D01*
X131109523Y-56404761D02*
X130966666Y-56452380D01*
X130728571Y-56452380D01*
X130633333Y-56404761D01*
X130585714Y-56357142D01*
X130538095Y-56261904D01*
X130538095Y-56166666D01*
X130585714Y-56071428D01*
X130633333Y-56023809D01*
X130728571Y-55976190D01*
X130919047Y-55928571D01*
X131014285Y-55880952D01*
X131061904Y-55833333D01*
X131109523Y-55738095D01*
X131109523Y-55642857D01*
X131061904Y-55547619D01*
X131014285Y-55500000D01*
X130919047Y-55452380D01*
X130680952Y-55452380D01*
X130538095Y-55500000D01*
X130204761Y-55452380D02*
X129966666Y-56452380D01*
X129776190Y-55738095D01*
X129585714Y-56452380D01*
X129347619Y-55452380D01*
X129061904Y-55452380D02*
X128442857Y-55452380D01*
X128776190Y-55833333D01*
X128633333Y-55833333D01*
X128538095Y-55880952D01*
X128490476Y-55928571D01*
X128442857Y-56023809D01*
X128442857Y-56261904D01*
X128490476Y-56357142D01*
X128538095Y-56404761D01*
X128633333Y-56452380D01*
X128919047Y-56452380D01*
X129014285Y-56404761D01*
X129061904Y-56357142D01*
X127538095Y-55452380D02*
X128014285Y-55452380D01*
X128061904Y-55928571D01*
X128014285Y-55880952D01*
X127919047Y-55833333D01*
X127680952Y-55833333D01*
X127585714Y-55880952D01*
X127538095Y-55928571D01*
X127490476Y-56023809D01*
X127490476Y-56261904D01*
X127538095Y-56357142D01*
X127585714Y-56404761D01*
X127680952Y-56452380D01*
X127919047Y-56452380D01*
X128014285Y-56404761D01*
X128061904Y-56357142D01*
X111909523Y-56404761D02*
X111766666Y-56452380D01*
X111528571Y-56452380D01*
X111433333Y-56404761D01*
X111385714Y-56357142D01*
X111338095Y-56261904D01*
X111338095Y-56166666D01*
X111385714Y-56071428D01*
X111433333Y-56023809D01*
X111528571Y-55976190D01*
X111719047Y-55928571D01*
X111814285Y-55880952D01*
X111861904Y-55833333D01*
X111909523Y-55738095D01*
X111909523Y-55642857D01*
X111861904Y-55547619D01*
X111814285Y-55500000D01*
X111719047Y-55452380D01*
X111480952Y-55452380D01*
X111338095Y-55500000D01*
X111004761Y-55452380D02*
X110766666Y-56452380D01*
X110576190Y-55738095D01*
X110385714Y-56452380D01*
X110147619Y-55452380D01*
X109861904Y-55452380D02*
X109242857Y-55452380D01*
X109576190Y-55833333D01*
X109433333Y-55833333D01*
X109338095Y-55880952D01*
X109290476Y-55928571D01*
X109242857Y-56023809D01*
X109242857Y-56261904D01*
X109290476Y-56357142D01*
X109338095Y-56404761D01*
X109433333Y-56452380D01*
X109719047Y-56452380D01*
X109814285Y-56404761D01*
X109861904Y-56357142D01*
X108385714Y-55785714D02*
X108385714Y-56452380D01*
X108623809Y-55404761D02*
X108861904Y-56119047D01*
X108242857Y-56119047D01*
X92709523Y-56404761D02*
X92566666Y-56452380D01*
X92328571Y-56452380D01*
X92233333Y-56404761D01*
X92185714Y-56357142D01*
X92138095Y-56261904D01*
X92138095Y-56166666D01*
X92185714Y-56071428D01*
X92233333Y-56023809D01*
X92328571Y-55976190D01*
X92519047Y-55928571D01*
X92614285Y-55880952D01*
X92661904Y-55833333D01*
X92709523Y-55738095D01*
X92709523Y-55642857D01*
X92661904Y-55547619D01*
X92614285Y-55500000D01*
X92519047Y-55452380D01*
X92280952Y-55452380D01*
X92138095Y-55500000D01*
X91804761Y-55452380D02*
X91566666Y-56452380D01*
X91376190Y-55738095D01*
X91185714Y-56452380D01*
X90947619Y-55452380D01*
X90661904Y-55452380D02*
X90042857Y-55452380D01*
X90376190Y-55833333D01*
X90233333Y-55833333D01*
X90138095Y-55880952D01*
X90090476Y-55928571D01*
X90042857Y-56023809D01*
X90042857Y-56261904D01*
X90090476Y-56357142D01*
X90138095Y-56404761D01*
X90233333Y-56452380D01*
X90519047Y-56452380D01*
X90614285Y-56404761D01*
X90661904Y-56357142D01*
X89709523Y-55452380D02*
X89090476Y-55452380D01*
X89423809Y-55833333D01*
X89280952Y-55833333D01*
X89185714Y-55880952D01*
X89138095Y-55928571D01*
X89090476Y-56023809D01*
X89090476Y-56261904D01*
X89138095Y-56357142D01*
X89185714Y-56404761D01*
X89280952Y-56452380D01*
X89566666Y-56452380D01*
X89661904Y-56404761D01*
X89709523Y-56357142D01*
X73509523Y-56404761D02*
X73366666Y-56452380D01*
X73128571Y-56452380D01*
X73033333Y-56404761D01*
X72985714Y-56357142D01*
X72938095Y-56261904D01*
X72938095Y-56166666D01*
X72985714Y-56071428D01*
X73033333Y-56023809D01*
X73128571Y-55976190D01*
X73319047Y-55928571D01*
X73414285Y-55880952D01*
X73461904Y-55833333D01*
X73509523Y-55738095D01*
X73509523Y-55642857D01*
X73461904Y-55547619D01*
X73414285Y-55500000D01*
X73319047Y-55452380D01*
X73080952Y-55452380D01*
X72938095Y-55500000D01*
X72604761Y-55452380D02*
X72366666Y-56452380D01*
X72176190Y-55738095D01*
X71985714Y-56452380D01*
X71747619Y-55452380D01*
X71461904Y-55452380D02*
X70842857Y-55452380D01*
X71176190Y-55833333D01*
X71033333Y-55833333D01*
X70938095Y-55880952D01*
X70890476Y-55928571D01*
X70842857Y-56023809D01*
X70842857Y-56261904D01*
X70890476Y-56357142D01*
X70938095Y-56404761D01*
X71033333Y-56452380D01*
X71319047Y-56452380D01*
X71414285Y-56404761D01*
X71461904Y-56357142D01*
X70461904Y-55547619D02*
X70414285Y-55500000D01*
X70319047Y-55452380D01*
X70080952Y-55452380D01*
X69985714Y-55500000D01*
X69938095Y-55547619D01*
X69890476Y-55642857D01*
X69890476Y-55738095D01*
X69938095Y-55880952D01*
X70509523Y-56452380D01*
X69890476Y-56452380D01*
X54309523Y-56404761D02*
X54166666Y-56452380D01*
X53928571Y-56452380D01*
X53833333Y-56404761D01*
X53785714Y-56357142D01*
X53738095Y-56261904D01*
X53738095Y-56166666D01*
X53785714Y-56071428D01*
X53833333Y-56023809D01*
X53928571Y-55976190D01*
X54119047Y-55928571D01*
X54214285Y-55880952D01*
X54261904Y-55833333D01*
X54309523Y-55738095D01*
X54309523Y-55642857D01*
X54261904Y-55547619D01*
X54214285Y-55500000D01*
X54119047Y-55452380D01*
X53880952Y-55452380D01*
X53738095Y-55500000D01*
X53404761Y-55452380D02*
X53166666Y-56452380D01*
X52976190Y-55738095D01*
X52785714Y-56452380D01*
X52547619Y-55452380D01*
X52261904Y-55452380D02*
X51642857Y-55452380D01*
X51976190Y-55833333D01*
X51833333Y-55833333D01*
X51738095Y-55880952D01*
X51690476Y-55928571D01*
X51642857Y-56023809D01*
X51642857Y-56261904D01*
X51690476Y-56357142D01*
X51738095Y-56404761D01*
X51833333Y-56452380D01*
X52119047Y-56452380D01*
X52214285Y-56404761D01*
X52261904Y-56357142D01*
X50690476Y-56452380D02*
X51261904Y-56452380D01*
X50976190Y-56452380D02*
X50976190Y-55452380D01*
X51071428Y-55595238D01*
X51166666Y-55690476D01*
X51261904Y-55738095D01*
X25509523Y-56404761D02*
X25366666Y-56452380D01*
X25128571Y-56452380D01*
X25033333Y-56404761D01*
X24985714Y-56357142D01*
X24938095Y-56261904D01*
X24938095Y-56166666D01*
X24985714Y-56071428D01*
X25033333Y-56023809D01*
X25128571Y-55976190D01*
X25319047Y-55928571D01*
X25414285Y-55880952D01*
X25461904Y-55833333D01*
X25509523Y-55738095D01*
X25509523Y-55642857D01*
X25461904Y-55547619D01*
X25414285Y-55500000D01*
X25319047Y-55452380D01*
X25080952Y-55452380D01*
X24938095Y-55500000D01*
X24604761Y-55452380D02*
X24366666Y-56452380D01*
X24176190Y-55738095D01*
X23985714Y-56452380D01*
X23747619Y-55452380D01*
X23461904Y-55452380D02*
X22842857Y-55452380D01*
X23176190Y-55833333D01*
X23033333Y-55833333D01*
X22938095Y-55880952D01*
X22890476Y-55928571D01*
X22842857Y-56023809D01*
X22842857Y-56261904D01*
X22890476Y-56357142D01*
X22938095Y-56404761D01*
X23033333Y-56452380D01*
X23319047Y-56452380D01*
X23414285Y-56404761D01*
X23461904Y-56357142D01*
X22223809Y-55452380D02*
X22128571Y-55452380D01*
X22033333Y-55500000D01*
X21985714Y-55547619D01*
X21938095Y-55642857D01*
X21890476Y-55833333D01*
X21890476Y-56071428D01*
X21938095Y-56261904D01*
X21985714Y-56357142D01*
X22033333Y-56404761D01*
X22128571Y-56452380D01*
X22223809Y-56452380D01*
X22319047Y-56404761D01*
X22366666Y-56357142D01*
X22414285Y-56261904D01*
X22461904Y-56071428D01*
X22461904Y-55833333D01*
X22414285Y-55642857D01*
X22366666Y-55547619D01*
X22319047Y-55500000D01*
X22223809Y-55452380D01*
X284709523Y-37204761D02*
X284566666Y-37252380D01*
X284328571Y-37252380D01*
X284233333Y-37204761D01*
X284185714Y-37157142D01*
X284138095Y-37061904D01*
X284138095Y-36966666D01*
X284185714Y-36871428D01*
X284233333Y-36823809D01*
X284328571Y-36776190D01*
X284519047Y-36728571D01*
X284614285Y-36680952D01*
X284661904Y-36633333D01*
X284709523Y-36538095D01*
X284709523Y-36442857D01*
X284661904Y-36347619D01*
X284614285Y-36300000D01*
X284519047Y-36252380D01*
X284280952Y-36252380D01*
X284138095Y-36300000D01*
X283804761Y-36252380D02*
X283566666Y-37252380D01*
X283376190Y-36538095D01*
X283185714Y-37252380D01*
X282947619Y-36252380D01*
X282614285Y-36347619D02*
X282566666Y-36300000D01*
X282471428Y-36252380D01*
X282233333Y-36252380D01*
X282138095Y-36300000D01*
X282090476Y-36347619D01*
X282042857Y-36442857D01*
X282042857Y-36538095D01*
X282090476Y-36680952D01*
X282661904Y-37252380D01*
X282042857Y-37252380D01*
X281566666Y-37252380D02*
X281376190Y-37252380D01*
X281280952Y-37204761D01*
X281233333Y-37157142D01*
X281138095Y-37014285D01*
X281090476Y-36823809D01*
X281090476Y-36442857D01*
X281138095Y-36347619D01*
X281185714Y-36300000D01*
X281280952Y-36252380D01*
X281471428Y-36252380D01*
X281566666Y-36300000D01*
X281614285Y-36347619D01*
X281661904Y-36442857D01*
X281661904Y-36680952D01*
X281614285Y-36776190D01*
X281566666Y-36823809D01*
X281471428Y-36871428D01*
X281280952Y-36871428D01*
X281185714Y-36823809D01*
X281138095Y-36776190D01*
X281090476Y-36680952D01*
X265509523Y-37204761D02*
X265366666Y-37252380D01*
X265128571Y-37252380D01*
X265033333Y-37204761D01*
X264985714Y-37157142D01*
X264938095Y-37061904D01*
X264938095Y-36966666D01*
X264985714Y-36871428D01*
X265033333Y-36823809D01*
X265128571Y-36776190D01*
X265319047Y-36728571D01*
X265414285Y-36680952D01*
X265461904Y-36633333D01*
X265509523Y-36538095D01*
X265509523Y-36442857D01*
X265461904Y-36347619D01*
X265414285Y-36300000D01*
X265319047Y-36252380D01*
X265080952Y-36252380D01*
X264938095Y-36300000D01*
X264604761Y-36252380D02*
X264366666Y-37252380D01*
X264176190Y-36538095D01*
X263985714Y-37252380D01*
X263747619Y-36252380D01*
X263414285Y-36347619D02*
X263366666Y-36300000D01*
X263271428Y-36252380D01*
X263033333Y-36252380D01*
X262938095Y-36300000D01*
X262890476Y-36347619D01*
X262842857Y-36442857D01*
X262842857Y-36538095D01*
X262890476Y-36680952D01*
X263461904Y-37252380D01*
X262842857Y-37252380D01*
X262271428Y-36680952D02*
X262366666Y-36633333D01*
X262414285Y-36585714D01*
X262461904Y-36490476D01*
X262461904Y-36442857D01*
X262414285Y-36347619D01*
X262366666Y-36300000D01*
X262271428Y-36252380D01*
X262080952Y-36252380D01*
X261985714Y-36300000D01*
X261938095Y-36347619D01*
X261890476Y-36442857D01*
X261890476Y-36490476D01*
X261938095Y-36585714D01*
X261985714Y-36633333D01*
X262080952Y-36680952D01*
X262271428Y-36680952D01*
X262366666Y-36728571D01*
X262414285Y-36776190D01*
X262461904Y-36871428D01*
X262461904Y-37061904D01*
X262414285Y-37157142D01*
X262366666Y-37204761D01*
X262271428Y-37252380D01*
X262080952Y-37252380D01*
X261985714Y-37204761D01*
X261938095Y-37157142D01*
X261890476Y-37061904D01*
X261890476Y-36871428D01*
X261938095Y-36776190D01*
X261985714Y-36728571D01*
X262080952Y-36680952D01*
X246309523Y-37204761D02*
X246166666Y-37252380D01*
X245928571Y-37252380D01*
X245833333Y-37204761D01*
X245785714Y-37157142D01*
X245738095Y-37061904D01*
X245738095Y-36966666D01*
X245785714Y-36871428D01*
X245833333Y-36823809D01*
X245928571Y-36776190D01*
X246119047Y-36728571D01*
X246214285Y-36680952D01*
X246261904Y-36633333D01*
X246309523Y-36538095D01*
X246309523Y-36442857D01*
X246261904Y-36347619D01*
X246214285Y-36300000D01*
X246119047Y-36252380D01*
X245880952Y-36252380D01*
X245738095Y-36300000D01*
X245404761Y-36252380D02*
X245166666Y-37252380D01*
X244976190Y-36538095D01*
X244785714Y-37252380D01*
X244547619Y-36252380D01*
X244214285Y-36347619D02*
X244166666Y-36300000D01*
X244071428Y-36252380D01*
X243833333Y-36252380D01*
X243738095Y-36300000D01*
X243690476Y-36347619D01*
X243642857Y-36442857D01*
X243642857Y-36538095D01*
X243690476Y-36680952D01*
X244261904Y-37252380D01*
X243642857Y-37252380D01*
X243309523Y-36252380D02*
X242642857Y-36252380D01*
X243071428Y-37252380D01*
X227109523Y-37204761D02*
X226966666Y-37252380D01*
X226728571Y-37252380D01*
X226633333Y-37204761D01*
X226585714Y-37157142D01*
X226538095Y-37061904D01*
X226538095Y-36966666D01*
X226585714Y-36871428D01*
X226633333Y-36823809D01*
X226728571Y-36776190D01*
X226919047Y-36728571D01*
X227014285Y-36680952D01*
X227061904Y-36633333D01*
X227109523Y-36538095D01*
X227109523Y-36442857D01*
X227061904Y-36347619D01*
X227014285Y-36300000D01*
X226919047Y-36252380D01*
X226680952Y-36252380D01*
X226538095Y-36300000D01*
X226204761Y-36252380D02*
X225966666Y-37252380D01*
X225776190Y-36538095D01*
X225585714Y-37252380D01*
X225347619Y-36252380D01*
X225014285Y-36347619D02*
X224966666Y-36300000D01*
X224871428Y-36252380D01*
X224633333Y-36252380D01*
X224538095Y-36300000D01*
X224490476Y-36347619D01*
X224442857Y-36442857D01*
X224442857Y-36538095D01*
X224490476Y-36680952D01*
X225061904Y-37252380D01*
X224442857Y-37252380D01*
X223585714Y-36252380D02*
X223776190Y-36252380D01*
X223871428Y-36300000D01*
X223919047Y-36347619D01*
X224014285Y-36490476D01*
X224061904Y-36680952D01*
X224061904Y-37061904D01*
X224014285Y-37157142D01*
X223966666Y-37204761D01*
X223871428Y-37252380D01*
X223680952Y-37252380D01*
X223585714Y-37204761D01*
X223538095Y-37157142D01*
X223490476Y-37061904D01*
X223490476Y-36823809D01*
X223538095Y-36728571D01*
X223585714Y-36680952D01*
X223680952Y-36633333D01*
X223871428Y-36633333D01*
X223966666Y-36680952D01*
X224014285Y-36728571D01*
X224061904Y-36823809D01*
X207909523Y-37204761D02*
X207766666Y-37252380D01*
X207528571Y-37252380D01*
X207433333Y-37204761D01*
X207385714Y-37157142D01*
X207338095Y-37061904D01*
X207338095Y-36966666D01*
X207385714Y-36871428D01*
X207433333Y-36823809D01*
X207528571Y-36776190D01*
X207719047Y-36728571D01*
X207814285Y-36680952D01*
X207861904Y-36633333D01*
X207909523Y-36538095D01*
X207909523Y-36442857D01*
X207861904Y-36347619D01*
X207814285Y-36300000D01*
X207719047Y-36252380D01*
X207480952Y-36252380D01*
X207338095Y-36300000D01*
X207004761Y-36252380D02*
X206766666Y-37252380D01*
X206576190Y-36538095D01*
X206385714Y-37252380D01*
X206147619Y-36252380D01*
X205814285Y-36347619D02*
X205766666Y-36300000D01*
X205671428Y-36252380D01*
X205433333Y-36252380D01*
X205338095Y-36300000D01*
X205290476Y-36347619D01*
X205242857Y-36442857D01*
X205242857Y-36538095D01*
X205290476Y-36680952D01*
X205861904Y-37252380D01*
X205242857Y-37252380D01*
X204338095Y-36252380D02*
X204814285Y-36252380D01*
X204861904Y-36728571D01*
X204814285Y-36680952D01*
X204719047Y-36633333D01*
X204480952Y-36633333D01*
X204385714Y-36680952D01*
X204338095Y-36728571D01*
X204290476Y-36823809D01*
X204290476Y-37061904D01*
X204338095Y-37157142D01*
X204385714Y-37204761D01*
X204480952Y-37252380D01*
X204719047Y-37252380D01*
X204814285Y-37204761D01*
X204861904Y-37157142D01*
X188709523Y-37204761D02*
X188566666Y-37252380D01*
X188328571Y-37252380D01*
X188233333Y-37204761D01*
X188185714Y-37157142D01*
X188138095Y-37061904D01*
X188138095Y-36966666D01*
X188185714Y-36871428D01*
X188233333Y-36823809D01*
X188328571Y-36776190D01*
X188519047Y-36728571D01*
X188614285Y-36680952D01*
X188661904Y-36633333D01*
X188709523Y-36538095D01*
X188709523Y-36442857D01*
X188661904Y-36347619D01*
X188614285Y-36300000D01*
X188519047Y-36252380D01*
X188280952Y-36252380D01*
X188138095Y-36300000D01*
X187804761Y-36252380D02*
X187566666Y-37252380D01*
X187376190Y-36538095D01*
X187185714Y-37252380D01*
X186947619Y-36252380D01*
X186614285Y-36347619D02*
X186566666Y-36300000D01*
X186471428Y-36252380D01*
X186233333Y-36252380D01*
X186138095Y-36300000D01*
X186090476Y-36347619D01*
X186042857Y-36442857D01*
X186042857Y-36538095D01*
X186090476Y-36680952D01*
X186661904Y-37252380D01*
X186042857Y-37252380D01*
X185185714Y-36585714D02*
X185185714Y-37252380D01*
X185423809Y-36204761D02*
X185661904Y-36919047D01*
X185042857Y-36919047D01*
X169509523Y-37204761D02*
X169366666Y-37252380D01*
X169128571Y-37252380D01*
X169033333Y-37204761D01*
X168985714Y-37157142D01*
X168938095Y-37061904D01*
X168938095Y-36966666D01*
X168985714Y-36871428D01*
X169033333Y-36823809D01*
X169128571Y-36776190D01*
X169319047Y-36728571D01*
X169414285Y-36680952D01*
X169461904Y-36633333D01*
X169509523Y-36538095D01*
X169509523Y-36442857D01*
X169461904Y-36347619D01*
X169414285Y-36300000D01*
X169319047Y-36252380D01*
X169080952Y-36252380D01*
X168938095Y-36300000D01*
X168604761Y-36252380D02*
X168366666Y-37252380D01*
X168176190Y-36538095D01*
X167985714Y-37252380D01*
X167747619Y-36252380D01*
X167414285Y-36347619D02*
X167366666Y-36300000D01*
X167271428Y-36252380D01*
X167033333Y-36252380D01*
X166938095Y-36300000D01*
X166890476Y-36347619D01*
X166842857Y-36442857D01*
X166842857Y-36538095D01*
X166890476Y-36680952D01*
X167461904Y-37252380D01*
X166842857Y-37252380D01*
X166509523Y-36252380D02*
X165890476Y-36252380D01*
X166223809Y-36633333D01*
X166080952Y-36633333D01*
X165985714Y-36680952D01*
X165938095Y-36728571D01*
X165890476Y-36823809D01*
X165890476Y-37061904D01*
X165938095Y-37157142D01*
X165985714Y-37204761D01*
X166080952Y-37252380D01*
X166366666Y-37252380D01*
X166461904Y-37204761D01*
X166509523Y-37157142D01*
X150309523Y-37204761D02*
X150166666Y-37252380D01*
X149928571Y-37252380D01*
X149833333Y-37204761D01*
X149785714Y-37157142D01*
X149738095Y-37061904D01*
X149738095Y-36966666D01*
X149785714Y-36871428D01*
X149833333Y-36823809D01*
X149928571Y-36776190D01*
X150119047Y-36728571D01*
X150214285Y-36680952D01*
X150261904Y-36633333D01*
X150309523Y-36538095D01*
X150309523Y-36442857D01*
X150261904Y-36347619D01*
X150214285Y-36300000D01*
X150119047Y-36252380D01*
X149880952Y-36252380D01*
X149738095Y-36300000D01*
X149404761Y-36252380D02*
X149166666Y-37252380D01*
X148976190Y-36538095D01*
X148785714Y-37252380D01*
X148547619Y-36252380D01*
X148214285Y-36347619D02*
X148166666Y-36300000D01*
X148071428Y-36252380D01*
X147833333Y-36252380D01*
X147738095Y-36300000D01*
X147690476Y-36347619D01*
X147642857Y-36442857D01*
X147642857Y-36538095D01*
X147690476Y-36680952D01*
X148261904Y-37252380D01*
X147642857Y-37252380D01*
X147261904Y-36347619D02*
X147214285Y-36300000D01*
X147119047Y-36252380D01*
X146880952Y-36252380D01*
X146785714Y-36300000D01*
X146738095Y-36347619D01*
X146690476Y-36442857D01*
X146690476Y-36538095D01*
X146738095Y-36680952D01*
X147309523Y-37252380D01*
X146690476Y-37252380D01*
X131109523Y-37204761D02*
X130966666Y-37252380D01*
X130728571Y-37252380D01*
X130633333Y-37204761D01*
X130585714Y-37157142D01*
X130538095Y-37061904D01*
X130538095Y-36966666D01*
X130585714Y-36871428D01*
X130633333Y-36823809D01*
X130728571Y-36776190D01*
X130919047Y-36728571D01*
X131014285Y-36680952D01*
X131061904Y-36633333D01*
X131109523Y-36538095D01*
X131109523Y-36442857D01*
X131061904Y-36347619D01*
X131014285Y-36300000D01*
X130919047Y-36252380D01*
X130680952Y-36252380D01*
X130538095Y-36300000D01*
X130204761Y-36252380D02*
X129966666Y-37252380D01*
X129776190Y-36538095D01*
X129585714Y-37252380D01*
X129347619Y-36252380D01*
X129014285Y-36347619D02*
X128966666Y-36300000D01*
X128871428Y-36252380D01*
X128633333Y-36252380D01*
X128538095Y-36300000D01*
X128490476Y-36347619D01*
X128442857Y-36442857D01*
X128442857Y-36538095D01*
X128490476Y-36680952D01*
X129061904Y-37252380D01*
X128442857Y-37252380D01*
X127490476Y-37252380D02*
X128061904Y-37252380D01*
X127776190Y-37252380D02*
X127776190Y-36252380D01*
X127871428Y-36395238D01*
X127966666Y-36490476D01*
X128061904Y-36538095D01*
X111909523Y-37204761D02*
X111766666Y-37252380D01*
X111528571Y-37252380D01*
X111433333Y-37204761D01*
X111385714Y-37157142D01*
X111338095Y-37061904D01*
X111338095Y-36966666D01*
X111385714Y-36871428D01*
X111433333Y-36823809D01*
X111528571Y-36776190D01*
X111719047Y-36728571D01*
X111814285Y-36680952D01*
X111861904Y-36633333D01*
X111909523Y-36538095D01*
X111909523Y-36442857D01*
X111861904Y-36347619D01*
X111814285Y-36300000D01*
X111719047Y-36252380D01*
X111480952Y-36252380D01*
X111338095Y-36300000D01*
X111004761Y-36252380D02*
X110766666Y-37252380D01*
X110576190Y-36538095D01*
X110385714Y-37252380D01*
X110147619Y-36252380D01*
X109814285Y-36347619D02*
X109766666Y-36300000D01*
X109671428Y-36252380D01*
X109433333Y-36252380D01*
X109338095Y-36300000D01*
X109290476Y-36347619D01*
X109242857Y-36442857D01*
X109242857Y-36538095D01*
X109290476Y-36680952D01*
X109861904Y-37252380D01*
X109242857Y-37252380D01*
X108623809Y-36252380D02*
X108528571Y-36252380D01*
X108433333Y-36300000D01*
X108385714Y-36347619D01*
X108338095Y-36442857D01*
X108290476Y-36633333D01*
X108290476Y-36871428D01*
X108338095Y-37061904D01*
X108385714Y-37157142D01*
X108433333Y-37204761D01*
X108528571Y-37252380D01*
X108623809Y-37252380D01*
X108719047Y-37204761D01*
X108766666Y-37157142D01*
X108814285Y-37061904D01*
X108861904Y-36871428D01*
X108861904Y-36633333D01*
X108814285Y-36442857D01*
X108766666Y-36347619D01*
X108719047Y-36300000D01*
X108623809Y-36252380D01*
X92709523Y-37204761D02*
X92566666Y-37252380D01*
X92328571Y-37252380D01*
X92233333Y-37204761D01*
X92185714Y-37157142D01*
X92138095Y-37061904D01*
X92138095Y-36966666D01*
X92185714Y-36871428D01*
X92233333Y-36823809D01*
X92328571Y-36776190D01*
X92519047Y-36728571D01*
X92614285Y-36680952D01*
X92661904Y-36633333D01*
X92709523Y-36538095D01*
X92709523Y-36442857D01*
X92661904Y-36347619D01*
X92614285Y-36300000D01*
X92519047Y-36252380D01*
X92280952Y-36252380D01*
X92138095Y-36300000D01*
X91804761Y-36252380D02*
X91566666Y-37252380D01*
X91376190Y-36538095D01*
X91185714Y-37252380D01*
X90947619Y-36252380D01*
X90042857Y-37252380D02*
X90614285Y-37252380D01*
X90328571Y-37252380D02*
X90328571Y-36252380D01*
X90423809Y-36395238D01*
X90519047Y-36490476D01*
X90614285Y-36538095D01*
X89566666Y-37252380D02*
X89376190Y-37252380D01*
X89280952Y-37204761D01*
X89233333Y-37157142D01*
X89138095Y-37014285D01*
X89090476Y-36823809D01*
X89090476Y-36442857D01*
X89138095Y-36347619D01*
X89185714Y-36300000D01*
X89280952Y-36252380D01*
X89471428Y-36252380D01*
X89566666Y-36300000D01*
X89614285Y-36347619D01*
X89661904Y-36442857D01*
X89661904Y-36680952D01*
X89614285Y-36776190D01*
X89566666Y-36823809D01*
X89471428Y-36871428D01*
X89280952Y-36871428D01*
X89185714Y-36823809D01*
X89138095Y-36776190D01*
X89090476Y-36680952D01*
X73509523Y-37204761D02*
X73366666Y-37252380D01*
X73128571Y-37252380D01*
X73033333Y-37204761D01*
X72985714Y-37157142D01*
X72938095Y-37061904D01*
X72938095Y-36966666D01*
X72985714Y-36871428D01*
X73033333Y-36823809D01*
X73128571Y-36776190D01*
X73319047Y-36728571D01*
X73414285Y-36680952D01*
X73461904Y-36633333D01*
X73509523Y-36538095D01*
X73509523Y-36442857D01*
X73461904Y-36347619D01*
X73414285Y-36300000D01*
X73319047Y-36252380D01*
X73080952Y-36252380D01*
X72938095Y-36300000D01*
X72604761Y-36252380D02*
X72366666Y-37252380D01*
X72176190Y-36538095D01*
X71985714Y-37252380D01*
X71747619Y-36252380D01*
X70842857Y-37252380D02*
X71414285Y-37252380D01*
X71128571Y-37252380D02*
X71128571Y-36252380D01*
X71223809Y-36395238D01*
X71319047Y-36490476D01*
X71414285Y-36538095D01*
X70271428Y-36680952D02*
X70366666Y-36633333D01*
X70414285Y-36585714D01*
X70461904Y-36490476D01*
X70461904Y-36442857D01*
X70414285Y-36347619D01*
X70366666Y-36300000D01*
X70271428Y-36252380D01*
X70080952Y-36252380D01*
X69985714Y-36300000D01*
X69938095Y-36347619D01*
X69890476Y-36442857D01*
X69890476Y-36490476D01*
X69938095Y-36585714D01*
X69985714Y-36633333D01*
X70080952Y-36680952D01*
X70271428Y-36680952D01*
X70366666Y-36728571D01*
X70414285Y-36776190D01*
X70461904Y-36871428D01*
X70461904Y-37061904D01*
X70414285Y-37157142D01*
X70366666Y-37204761D01*
X70271428Y-37252380D01*
X70080952Y-37252380D01*
X69985714Y-37204761D01*
X69938095Y-37157142D01*
X69890476Y-37061904D01*
X69890476Y-36871428D01*
X69938095Y-36776190D01*
X69985714Y-36728571D01*
X70080952Y-36680952D01*
X54309523Y-37204761D02*
X54166666Y-37252380D01*
X53928571Y-37252380D01*
X53833333Y-37204761D01*
X53785714Y-37157142D01*
X53738095Y-37061904D01*
X53738095Y-36966666D01*
X53785714Y-36871428D01*
X53833333Y-36823809D01*
X53928571Y-36776190D01*
X54119047Y-36728571D01*
X54214285Y-36680952D01*
X54261904Y-36633333D01*
X54309523Y-36538095D01*
X54309523Y-36442857D01*
X54261904Y-36347619D01*
X54214285Y-36300000D01*
X54119047Y-36252380D01*
X53880952Y-36252380D01*
X53738095Y-36300000D01*
X53404761Y-36252380D02*
X53166666Y-37252380D01*
X52976190Y-36538095D01*
X52785714Y-37252380D01*
X52547619Y-36252380D01*
X51642857Y-37252380D02*
X52214285Y-37252380D01*
X51928571Y-37252380D02*
X51928571Y-36252380D01*
X52023809Y-36395238D01*
X52119047Y-36490476D01*
X52214285Y-36538095D01*
X51309523Y-36252380D02*
X50642857Y-36252380D01*
X51071428Y-37252380D01*
X25509523Y-37204761D02*
X25366666Y-37252380D01*
X25128571Y-37252380D01*
X25033333Y-37204761D01*
X24985714Y-37157142D01*
X24938095Y-37061904D01*
X24938095Y-36966666D01*
X24985714Y-36871428D01*
X25033333Y-36823809D01*
X25128571Y-36776190D01*
X25319047Y-36728571D01*
X25414285Y-36680952D01*
X25461904Y-36633333D01*
X25509523Y-36538095D01*
X25509523Y-36442857D01*
X25461904Y-36347619D01*
X25414285Y-36300000D01*
X25319047Y-36252380D01*
X25080952Y-36252380D01*
X24938095Y-36300000D01*
X24604761Y-36252380D02*
X24366666Y-37252380D01*
X24176190Y-36538095D01*
X23985714Y-37252380D01*
X23747619Y-36252380D01*
X22842857Y-37252380D02*
X23414285Y-37252380D01*
X23128571Y-37252380D02*
X23128571Y-36252380D01*
X23223809Y-36395238D01*
X23319047Y-36490476D01*
X23414285Y-36538095D01*
X21985714Y-36252380D02*
X22176190Y-36252380D01*
X22271428Y-36300000D01*
X22319047Y-36347619D01*
X22414285Y-36490476D01*
X22461904Y-36680952D01*
X22461904Y-37061904D01*
X22414285Y-37157142D01*
X22366666Y-37204761D01*
X22271428Y-37252380D01*
X22080952Y-37252380D01*
X21985714Y-37204761D01*
X21938095Y-37157142D01*
X21890476Y-37061904D01*
X21890476Y-36823809D01*
X21938095Y-36728571D01*
X21985714Y-36680952D01*
X22080952Y-36633333D01*
X22271428Y-36633333D01*
X22366666Y-36680952D01*
X22414285Y-36728571D01*
X22461904Y-36823809D01*
X284709523Y-18004761D02*
X284566666Y-18052380D01*
X284328571Y-18052380D01*
X284233333Y-18004761D01*
X284185714Y-17957142D01*
X284138095Y-17861904D01*
X284138095Y-17766666D01*
X284185714Y-17671428D01*
X284233333Y-17623809D01*
X284328571Y-17576190D01*
X284519047Y-17528571D01*
X284614285Y-17480952D01*
X284661904Y-17433333D01*
X284709523Y-17338095D01*
X284709523Y-17242857D01*
X284661904Y-17147619D01*
X284614285Y-17100000D01*
X284519047Y-17052380D01*
X284280952Y-17052380D01*
X284138095Y-17100000D01*
X283804761Y-17052380D02*
X283566666Y-18052380D01*
X283376190Y-17338095D01*
X283185714Y-18052380D01*
X282947619Y-17052380D01*
X282042857Y-18052380D02*
X282614285Y-18052380D01*
X282328571Y-18052380D02*
X282328571Y-17052380D01*
X282423809Y-17195238D01*
X282519047Y-17290476D01*
X282614285Y-17338095D01*
X281138095Y-17052380D02*
X281614285Y-17052380D01*
X281661904Y-17528571D01*
X281614285Y-17480952D01*
X281519047Y-17433333D01*
X281280952Y-17433333D01*
X281185714Y-17480952D01*
X281138095Y-17528571D01*
X281090476Y-17623809D01*
X281090476Y-17861904D01*
X281138095Y-17957142D01*
X281185714Y-18004761D01*
X281280952Y-18052380D01*
X281519047Y-18052380D01*
X281614285Y-18004761D01*
X281661904Y-17957142D01*
X265509523Y-18004761D02*
X265366666Y-18052380D01*
X265128571Y-18052380D01*
X265033333Y-18004761D01*
X264985714Y-17957142D01*
X264938095Y-17861904D01*
X264938095Y-17766666D01*
X264985714Y-17671428D01*
X265033333Y-17623809D01*
X265128571Y-17576190D01*
X265319047Y-17528571D01*
X265414285Y-17480952D01*
X265461904Y-17433333D01*
X265509523Y-17338095D01*
X265509523Y-17242857D01*
X265461904Y-17147619D01*
X265414285Y-17100000D01*
X265319047Y-17052380D01*
X265080952Y-17052380D01*
X264938095Y-17100000D01*
X264604761Y-17052380D02*
X264366666Y-18052380D01*
X264176190Y-17338095D01*
X263985714Y-18052380D01*
X263747619Y-17052380D01*
X262842857Y-18052380D02*
X263414285Y-18052380D01*
X263128571Y-18052380D02*
X263128571Y-17052380D01*
X263223809Y-17195238D01*
X263319047Y-17290476D01*
X263414285Y-17338095D01*
X261985714Y-17385714D02*
X261985714Y-18052380D01*
X262223809Y-17004761D02*
X262461904Y-17719047D01*
X261842857Y-17719047D01*
X246309523Y-18004761D02*
X246166666Y-18052380D01*
X245928571Y-18052380D01*
X245833333Y-18004761D01*
X245785714Y-17957142D01*
X245738095Y-17861904D01*
X245738095Y-17766666D01*
X245785714Y-17671428D01*
X245833333Y-17623809D01*
X245928571Y-17576190D01*
X246119047Y-17528571D01*
X246214285Y-17480952D01*
X246261904Y-17433333D01*
X246309523Y-17338095D01*
X246309523Y-17242857D01*
X246261904Y-17147619D01*
X246214285Y-17100000D01*
X246119047Y-17052380D01*
X245880952Y-17052380D01*
X245738095Y-17100000D01*
X245404761Y-17052380D02*
X245166666Y-18052380D01*
X244976190Y-17338095D01*
X244785714Y-18052380D01*
X244547619Y-17052380D01*
X243642857Y-18052380D02*
X244214285Y-18052380D01*
X243928571Y-18052380D02*
X243928571Y-17052380D01*
X244023809Y-17195238D01*
X244119047Y-17290476D01*
X244214285Y-17338095D01*
X243309523Y-17052380D02*
X242690476Y-17052380D01*
X243023809Y-17433333D01*
X242880952Y-17433333D01*
X242785714Y-17480952D01*
X242738095Y-17528571D01*
X242690476Y-17623809D01*
X242690476Y-17861904D01*
X242738095Y-17957142D01*
X242785714Y-18004761D01*
X242880952Y-18052380D01*
X243166666Y-18052380D01*
X243261904Y-18004761D01*
X243309523Y-17957142D01*
X227109523Y-18004761D02*
X226966666Y-18052380D01*
X226728571Y-18052380D01*
X226633333Y-18004761D01*
X226585714Y-17957142D01*
X226538095Y-17861904D01*
X226538095Y-17766666D01*
X226585714Y-17671428D01*
X226633333Y-17623809D01*
X226728571Y-17576190D01*
X226919047Y-17528571D01*
X227014285Y-17480952D01*
X227061904Y-17433333D01*
X227109523Y-17338095D01*
X227109523Y-17242857D01*
X227061904Y-17147619D01*
X227014285Y-17100000D01*
X226919047Y-17052380D01*
X226680952Y-17052380D01*
X226538095Y-17100000D01*
X226204761Y-17052380D02*
X225966666Y-18052380D01*
X225776190Y-17338095D01*
X225585714Y-18052380D01*
X225347619Y-17052380D01*
X224442857Y-18052380D02*
X225014285Y-18052380D01*
X224728571Y-18052380D02*
X224728571Y-17052380D01*
X224823809Y-17195238D01*
X224919047Y-17290476D01*
X225014285Y-17338095D01*
X224061904Y-17147619D02*
X224014285Y-17100000D01*
X223919047Y-17052380D01*
X223680952Y-17052380D01*
X223585714Y-17100000D01*
X223538095Y-17147619D01*
X223490476Y-17242857D01*
X223490476Y-17338095D01*
X223538095Y-17480952D01*
X224109523Y-18052380D01*
X223490476Y-18052380D01*
X207909523Y-18004761D02*
X207766666Y-18052380D01*
X207528571Y-18052380D01*
X207433333Y-18004761D01*
X207385714Y-17957142D01*
X207338095Y-17861904D01*
X207338095Y-17766666D01*
X207385714Y-17671428D01*
X207433333Y-17623809D01*
X207528571Y-17576190D01*
X207719047Y-17528571D01*
X207814285Y-17480952D01*
X207861904Y-17433333D01*
X207909523Y-17338095D01*
X207909523Y-17242857D01*
X207861904Y-17147619D01*
X207814285Y-17100000D01*
X207719047Y-17052380D01*
X207480952Y-17052380D01*
X207338095Y-17100000D01*
X207004761Y-17052380D02*
X206766666Y-18052380D01*
X206576190Y-17338095D01*
X206385714Y-18052380D01*
X206147619Y-17052380D01*
X205242857Y-18052380D02*
X205814285Y-18052380D01*
X205528571Y-18052380D02*
X205528571Y-17052380D01*
X205623809Y-17195238D01*
X205719047Y-17290476D01*
X205814285Y-17338095D01*
X204290476Y-18052380D02*
X204861904Y-18052380D01*
X204576190Y-18052380D02*
X204576190Y-17052380D01*
X204671428Y-17195238D01*
X204766666Y-17290476D01*
X204861904Y-17338095D01*
X188709523Y-18004761D02*
X188566666Y-18052380D01*
X188328571Y-18052380D01*
X188233333Y-18004761D01*
X188185714Y-17957142D01*
X188138095Y-17861904D01*
X188138095Y-17766666D01*
X188185714Y-17671428D01*
X188233333Y-17623809D01*
X188328571Y-17576190D01*
X188519047Y-17528571D01*
X188614285Y-17480952D01*
X188661904Y-17433333D01*
X188709523Y-17338095D01*
X188709523Y-17242857D01*
X188661904Y-17147619D01*
X188614285Y-17100000D01*
X188519047Y-17052380D01*
X188280952Y-17052380D01*
X188138095Y-17100000D01*
X187804761Y-17052380D02*
X187566666Y-18052380D01*
X187376190Y-17338095D01*
X187185714Y-18052380D01*
X186947619Y-17052380D01*
X186042857Y-18052380D02*
X186614285Y-18052380D01*
X186328571Y-18052380D02*
X186328571Y-17052380D01*
X186423809Y-17195238D01*
X186519047Y-17290476D01*
X186614285Y-17338095D01*
X185423809Y-17052380D02*
X185328571Y-17052380D01*
X185233333Y-17100000D01*
X185185714Y-17147619D01*
X185138095Y-17242857D01*
X185090476Y-17433333D01*
X185090476Y-17671428D01*
X185138095Y-17861904D01*
X185185714Y-17957142D01*
X185233333Y-18004761D01*
X185328571Y-18052380D01*
X185423809Y-18052380D01*
X185519047Y-18004761D01*
X185566666Y-17957142D01*
X185614285Y-17861904D01*
X185661904Y-17671428D01*
X185661904Y-17433333D01*
X185614285Y-17242857D01*
X185566666Y-17147619D01*
X185519047Y-17100000D01*
X185423809Y-17052380D01*
X169033333Y-18004761D02*
X168890476Y-18052380D01*
X168652380Y-18052380D01*
X168557142Y-18004761D01*
X168509523Y-17957142D01*
X168461904Y-17861904D01*
X168461904Y-17766666D01*
X168509523Y-17671428D01*
X168557142Y-17623809D01*
X168652380Y-17576190D01*
X168842857Y-17528571D01*
X168938095Y-17480952D01*
X168985714Y-17433333D01*
X169033333Y-17338095D01*
X169033333Y-17242857D01*
X168985714Y-17147619D01*
X168938095Y-17100000D01*
X168842857Y-17052380D01*
X168604761Y-17052380D01*
X168461904Y-17100000D01*
X168128571Y-17052380D02*
X167890476Y-18052380D01*
X167700000Y-17338095D01*
X167509523Y-18052380D01*
X167271428Y-17052380D01*
X166842857Y-18052380D02*
X166652380Y-18052380D01*
X166557142Y-18004761D01*
X166509523Y-17957142D01*
X166414285Y-17814285D01*
X166366666Y-17623809D01*
X166366666Y-17242857D01*
X166414285Y-17147619D01*
X166461904Y-17100000D01*
X166557142Y-17052380D01*
X166747619Y-17052380D01*
X166842857Y-17100000D01*
X166890476Y-17147619D01*
X166938095Y-17242857D01*
X166938095Y-17480952D01*
X166890476Y-17576190D01*
X166842857Y-17623809D01*
X166747619Y-17671428D01*
X166557142Y-17671428D01*
X166461904Y-17623809D01*
X166414285Y-17576190D01*
X166366666Y-17480952D01*
X149833333Y-18004761D02*
X149690476Y-18052380D01*
X149452380Y-18052380D01*
X149357142Y-18004761D01*
X149309523Y-17957142D01*
X149261904Y-17861904D01*
X149261904Y-17766666D01*
X149309523Y-17671428D01*
X149357142Y-17623809D01*
X149452380Y-17576190D01*
X149642857Y-17528571D01*
X149738095Y-17480952D01*
X149785714Y-17433333D01*
X149833333Y-17338095D01*
X149833333Y-17242857D01*
X149785714Y-17147619D01*
X149738095Y-17100000D01*
X149642857Y-17052380D01*
X149404761Y-17052380D01*
X149261904Y-17100000D01*
X148928571Y-17052380D02*
X148690476Y-18052380D01*
X148500000Y-17338095D01*
X148309523Y-18052380D01*
X148071428Y-17052380D01*
X147547619Y-17480952D02*
X147642857Y-17433333D01*
X147690476Y-17385714D01*
X147738095Y-17290476D01*
X147738095Y-17242857D01*
X147690476Y-17147619D01*
X147642857Y-17100000D01*
X147547619Y-17052380D01*
X147357142Y-17052380D01*
X147261904Y-17100000D01*
X147214285Y-17147619D01*
X147166666Y-17242857D01*
X147166666Y-17290476D01*
X147214285Y-17385714D01*
X147261904Y-17433333D01*
X147357142Y-17480952D01*
X147547619Y-17480952D01*
X147642857Y-17528571D01*
X147690476Y-17576190D01*
X147738095Y-17671428D01*
X147738095Y-17861904D01*
X147690476Y-17957142D01*
X147642857Y-18004761D01*
X147547619Y-18052380D01*
X147357142Y-18052380D01*
X147261904Y-18004761D01*
X147214285Y-17957142D01*
X147166666Y-17861904D01*
X147166666Y-17671428D01*
X147214285Y-17576190D01*
X147261904Y-17528571D01*
X147357142Y-17480952D01*
X130633333Y-18004761D02*
X130490476Y-18052380D01*
X130252380Y-18052380D01*
X130157142Y-18004761D01*
X130109523Y-17957142D01*
X130061904Y-17861904D01*
X130061904Y-17766666D01*
X130109523Y-17671428D01*
X130157142Y-17623809D01*
X130252380Y-17576190D01*
X130442857Y-17528571D01*
X130538095Y-17480952D01*
X130585714Y-17433333D01*
X130633333Y-17338095D01*
X130633333Y-17242857D01*
X130585714Y-17147619D01*
X130538095Y-17100000D01*
X130442857Y-17052380D01*
X130204761Y-17052380D01*
X130061904Y-17100000D01*
X129728571Y-17052380D02*
X129490476Y-18052380D01*
X129300000Y-17338095D01*
X129109523Y-18052380D01*
X128871428Y-17052380D01*
X128585714Y-17052380D02*
X127919047Y-17052380D01*
X128347619Y-18052380D01*
X111433333Y-18004761D02*
X111290476Y-18052380D01*
X111052380Y-18052380D01*
X110957142Y-18004761D01*
X110909523Y-17957142D01*
X110861904Y-17861904D01*
X110861904Y-17766666D01*
X110909523Y-17671428D01*
X110957142Y-17623809D01*
X111052380Y-17576190D01*
X111242857Y-17528571D01*
X111338095Y-17480952D01*
X111385714Y-17433333D01*
X111433333Y-17338095D01*
X111433333Y-17242857D01*
X111385714Y-17147619D01*
X111338095Y-17100000D01*
X111242857Y-17052380D01*
X111004761Y-17052380D01*
X110861904Y-17100000D01*
X110528571Y-17052380D02*
X110290476Y-18052380D01*
X110100000Y-17338095D01*
X109909523Y-18052380D01*
X109671428Y-17052380D01*
X108861904Y-17052380D02*
X109052380Y-17052380D01*
X109147619Y-17100000D01*
X109195238Y-17147619D01*
X109290476Y-17290476D01*
X109338095Y-17480952D01*
X109338095Y-17861904D01*
X109290476Y-17957142D01*
X109242857Y-18004761D01*
X109147619Y-18052380D01*
X108957142Y-18052380D01*
X108861904Y-18004761D01*
X108814285Y-17957142D01*
X108766666Y-17861904D01*
X108766666Y-17623809D01*
X108814285Y-17528571D01*
X108861904Y-17480952D01*
X108957142Y-17433333D01*
X109147619Y-17433333D01*
X109242857Y-17480952D01*
X109290476Y-17528571D01*
X109338095Y-17623809D01*
X92233333Y-18004761D02*
X92090476Y-18052380D01*
X91852380Y-18052380D01*
X91757142Y-18004761D01*
X91709523Y-17957142D01*
X91661904Y-17861904D01*
X91661904Y-17766666D01*
X91709523Y-17671428D01*
X91757142Y-17623809D01*
X91852380Y-17576190D01*
X92042857Y-17528571D01*
X92138095Y-17480952D01*
X92185714Y-17433333D01*
X92233333Y-17338095D01*
X92233333Y-17242857D01*
X92185714Y-17147619D01*
X92138095Y-17100000D01*
X92042857Y-17052380D01*
X91804761Y-17052380D01*
X91661904Y-17100000D01*
X91328571Y-17052380D02*
X91090476Y-18052380D01*
X90900000Y-17338095D01*
X90709523Y-18052380D01*
X90471428Y-17052380D01*
X89614285Y-17052380D02*
X90090476Y-17052380D01*
X90138095Y-17528571D01*
X90090476Y-17480952D01*
X89995238Y-17433333D01*
X89757142Y-17433333D01*
X89661904Y-17480952D01*
X89614285Y-17528571D01*
X89566666Y-17623809D01*
X89566666Y-17861904D01*
X89614285Y-17957142D01*
X89661904Y-18004761D01*
X89757142Y-18052380D01*
X89995238Y-18052380D01*
X90090476Y-18004761D01*
X90138095Y-17957142D01*
X73033333Y-18004761D02*
X72890476Y-18052380D01*
X72652380Y-18052380D01*
X72557142Y-18004761D01*
X72509523Y-17957142D01*
X72461904Y-17861904D01*
X72461904Y-17766666D01*
X72509523Y-17671428D01*
X72557142Y-17623809D01*
X72652380Y-17576190D01*
X72842857Y-17528571D01*
X72938095Y-17480952D01*
X72985714Y-17433333D01*
X73033333Y-17338095D01*
X73033333Y-17242857D01*
X72985714Y-17147619D01*
X72938095Y-17100000D01*
X72842857Y-17052380D01*
X72604761Y-17052380D01*
X72461904Y-17100000D01*
X72128571Y-17052380D02*
X71890476Y-18052380D01*
X71700000Y-17338095D01*
X71509523Y-18052380D01*
X71271428Y-17052380D01*
X70461904Y-17385714D02*
X70461904Y-18052380D01*
X70700000Y-17004761D02*
X70938095Y-17719047D01*
X70319047Y-17719047D01*
X53833333Y-18004761D02*
X53690476Y-18052380D01*
X53452380Y-18052380D01*
X53357142Y-18004761D01*
X53309523Y-17957142D01*
X53261904Y-17861904D01*
X53261904Y-17766666D01*
X53309523Y-17671428D01*
X53357142Y-17623809D01*
X53452380Y-17576190D01*
X53642857Y-17528571D01*
X53738095Y-17480952D01*
X53785714Y-17433333D01*
X53833333Y-17338095D01*
X53833333Y-17242857D01*
X53785714Y-17147619D01*
X53738095Y-17100000D01*
X53642857Y-17052380D01*
X53404761Y-17052380D01*
X53261904Y-17100000D01*
X52928571Y-17052380D02*
X52690476Y-18052380D01*
X52500000Y-17338095D01*
X52309523Y-18052380D01*
X52071428Y-17052380D01*
X51785714Y-17052380D02*
X51166666Y-17052380D01*
X51500000Y-17433333D01*
X51357142Y-17433333D01*
X51261904Y-17480952D01*
X51214285Y-17528571D01*
X51166666Y-17623809D01*
X51166666Y-17861904D01*
X51214285Y-17957142D01*
X51261904Y-18004761D01*
X51357142Y-18052380D01*
X51642857Y-18052380D01*
X51738095Y-18004761D01*
X51785714Y-17957142D01*
X34633333Y-18004761D02*
X34490476Y-18052380D01*
X34252380Y-18052380D01*
X34157142Y-18004761D01*
X34109523Y-17957142D01*
X34061904Y-17861904D01*
X34061904Y-17766666D01*
X34109523Y-17671428D01*
X34157142Y-17623809D01*
X34252380Y-17576190D01*
X34442857Y-17528571D01*
X34538095Y-17480952D01*
X34585714Y-17433333D01*
X34633333Y-17338095D01*
X34633333Y-17242857D01*
X34585714Y-17147619D01*
X34538095Y-17100000D01*
X34442857Y-17052380D01*
X34204761Y-17052380D01*
X34061904Y-17100000D01*
X33728571Y-17052380D02*
X33490476Y-18052380D01*
X33300000Y-17338095D01*
X33109523Y-18052380D01*
X32871428Y-17052380D01*
X32538095Y-17147619D02*
X32490476Y-17100000D01*
X32395238Y-17052380D01*
X32157142Y-17052380D01*
X32061904Y-17100000D01*
X32014285Y-17147619D01*
X31966666Y-17242857D01*
X31966666Y-17338095D01*
X32014285Y-17480952D01*
X32585714Y-18052380D01*
X31966666Y-18052380D01*
X15433333Y-18004761D02*
X15290476Y-18052380D01*
X15052380Y-18052380D01*
X14957142Y-18004761D01*
X14909523Y-17957142D01*
X14861904Y-17861904D01*
X14861904Y-17766666D01*
X14909523Y-17671428D01*
X14957142Y-17623809D01*
X15052380Y-17576190D01*
X15242857Y-17528571D01*
X15338095Y-17480952D01*
X15385714Y-17433333D01*
X15433333Y-17338095D01*
X15433333Y-17242857D01*
X15385714Y-17147619D01*
X15338095Y-17100000D01*
X15242857Y-17052380D01*
X15004761Y-17052380D01*
X14861904Y-17100000D01*
X14528571Y-17052380D02*
X14290476Y-18052380D01*
X14100000Y-17338095D01*
X13909523Y-18052380D01*
X13671428Y-17052380D01*
X12766666Y-18052380D02*
X13338095Y-18052380D01*
X13052380Y-18052380D02*
X13052380Y-17052380D01*
X13147619Y-17195238D01*
X13242857Y-17290476D01*
X13338095Y-17338095D01*
D10*
X214357142Y-94179285D02*
X213457142Y-94179285D01*
X213457142Y-94393571D01*
X213500000Y-94522142D01*
X213585714Y-94607857D01*
X213671428Y-94650714D01*
X213842857Y-94693571D01*
X213971428Y-94693571D01*
X214142857Y-94650714D01*
X214228571Y-94607857D01*
X214314285Y-94522142D01*
X214357142Y-94393571D01*
X214357142Y-94179285D01*
X213457142Y-95465000D02*
X213457142Y-95293571D01*
X213500000Y-95207857D01*
X213542857Y-95165000D01*
X213671428Y-95079285D01*
X213842857Y-95036428D01*
X214185714Y-95036428D01*
X214271428Y-95079285D01*
X214314285Y-95122142D01*
X214357142Y-95207857D01*
X214357142Y-95379285D01*
X214314285Y-95465000D01*
X214271428Y-95507857D01*
X214185714Y-95550714D01*
X213971428Y-95550714D01*
X213885714Y-95507857D01*
X213842857Y-95465000D01*
X213800000Y-95379285D01*
X213800000Y-95207857D01*
X213842857Y-95122142D01*
X213885714Y-95079285D01*
X213971428Y-95036428D01*
X214357142Y-96407857D02*
X214357142Y-95893571D01*
X214357142Y-96150714D02*
X213457142Y-96150714D01*
X213585714Y-96065000D01*
X213671428Y-95979285D01*
X213714285Y-95893571D01*
X195157142Y-94179285D02*
X194257142Y-94179285D01*
X194257142Y-94393571D01*
X194300000Y-94522142D01*
X194385714Y-94607857D01*
X194471428Y-94650714D01*
X194642857Y-94693571D01*
X194771428Y-94693571D01*
X194942857Y-94650714D01*
X195028571Y-94607857D01*
X195114285Y-94522142D01*
X195157142Y-94393571D01*
X195157142Y-94179285D01*
X194257142Y-95465000D02*
X194257142Y-95293571D01*
X194300000Y-95207857D01*
X194342857Y-95165000D01*
X194471428Y-95079285D01*
X194642857Y-95036428D01*
X194985714Y-95036428D01*
X195071428Y-95079285D01*
X195114285Y-95122142D01*
X195157142Y-95207857D01*
X195157142Y-95379285D01*
X195114285Y-95465000D01*
X195071428Y-95507857D01*
X194985714Y-95550714D01*
X194771428Y-95550714D01*
X194685714Y-95507857D01*
X194642857Y-95465000D01*
X194600000Y-95379285D01*
X194600000Y-95207857D01*
X194642857Y-95122142D01*
X194685714Y-95079285D01*
X194771428Y-95036428D01*
X194257142Y-96107857D02*
X194257142Y-96193571D01*
X194300000Y-96279285D01*
X194342857Y-96322142D01*
X194428571Y-96365000D01*
X194600000Y-96407857D01*
X194814285Y-96407857D01*
X194985714Y-96365000D01*
X195071428Y-96322142D01*
X195114285Y-96279285D01*
X195157142Y-96193571D01*
X195157142Y-96107857D01*
X195114285Y-96022142D01*
X195071428Y-95979285D01*
X194985714Y-95936428D01*
X194814285Y-95893571D01*
X194600000Y-95893571D01*
X194428571Y-95936428D01*
X194342857Y-95979285D01*
X194300000Y-96022142D01*
X194257142Y-96107857D01*
X166357142Y-94179285D02*
X165457142Y-94179285D01*
X165457142Y-94393571D01*
X165500000Y-94522142D01*
X165585714Y-94607857D01*
X165671428Y-94650714D01*
X165842857Y-94693571D01*
X165971428Y-94693571D01*
X166142857Y-94650714D01*
X166228571Y-94607857D01*
X166314285Y-94522142D01*
X166357142Y-94393571D01*
X166357142Y-94179285D01*
X165457142Y-95507857D02*
X165457142Y-95079285D01*
X165885714Y-95036428D01*
X165842857Y-95079285D01*
X165800000Y-95165000D01*
X165800000Y-95379285D01*
X165842857Y-95465000D01*
X165885714Y-95507857D01*
X165971428Y-95550714D01*
X166185714Y-95550714D01*
X166271428Y-95507857D01*
X166314285Y-95465000D01*
X166357142Y-95379285D01*
X166357142Y-95165000D01*
X166314285Y-95079285D01*
X166271428Y-95036428D01*
X166357142Y-95979285D02*
X166357142Y-96150714D01*
X166314285Y-96236428D01*
X166271428Y-96279285D01*
X166142857Y-96365000D01*
X165971428Y-96407857D01*
X165628571Y-96407857D01*
X165542857Y-96365000D01*
X165500000Y-96322142D01*
X165457142Y-96236428D01*
X165457142Y-96065000D01*
X165500000Y-95979285D01*
X165542857Y-95936428D01*
X165628571Y-95893571D01*
X165842857Y-95893571D01*
X165928571Y-95936428D01*
X165971428Y-95979285D01*
X166014285Y-96065000D01*
X166014285Y-96236428D01*
X165971428Y-96322142D01*
X165928571Y-96365000D01*
X165842857Y-96407857D01*
X127957142Y-94179285D02*
X127057142Y-94179285D01*
X127057142Y-94393571D01*
X127100000Y-94522142D01*
X127185714Y-94607857D01*
X127271428Y-94650714D01*
X127442857Y-94693571D01*
X127571428Y-94693571D01*
X127742857Y-94650714D01*
X127828571Y-94607857D01*
X127914285Y-94522142D01*
X127957142Y-94393571D01*
X127957142Y-94179285D01*
X127057142Y-95507857D02*
X127057142Y-95079285D01*
X127485714Y-95036428D01*
X127442857Y-95079285D01*
X127400000Y-95165000D01*
X127400000Y-95379285D01*
X127442857Y-95465000D01*
X127485714Y-95507857D01*
X127571428Y-95550714D01*
X127785714Y-95550714D01*
X127871428Y-95507857D01*
X127914285Y-95465000D01*
X127957142Y-95379285D01*
X127957142Y-95165000D01*
X127914285Y-95079285D01*
X127871428Y-95036428D01*
X127442857Y-96065000D02*
X127400000Y-95979285D01*
X127357142Y-95936428D01*
X127271428Y-95893571D01*
X127228571Y-95893571D01*
X127142857Y-95936428D01*
X127100000Y-95979285D01*
X127057142Y-96065000D01*
X127057142Y-96236428D01*
X127100000Y-96322142D01*
X127142857Y-96365000D01*
X127228571Y-96407857D01*
X127271428Y-96407857D01*
X127357142Y-96365000D01*
X127400000Y-96322142D01*
X127442857Y-96236428D01*
X127442857Y-96065000D01*
X127485714Y-95979285D01*
X127528571Y-95936428D01*
X127614285Y-95893571D01*
X127785714Y-95893571D01*
X127871428Y-95936428D01*
X127914285Y-95979285D01*
X127957142Y-96065000D01*
X127957142Y-96236428D01*
X127914285Y-96322142D01*
X127871428Y-96365000D01*
X127785714Y-96407857D01*
X127614285Y-96407857D01*
X127528571Y-96365000D01*
X127485714Y-96322142D01*
X127442857Y-96236428D01*
X99157142Y-94179285D02*
X98257142Y-94179285D01*
X98257142Y-94393571D01*
X98300000Y-94522142D01*
X98385714Y-94607857D01*
X98471428Y-94650714D01*
X98642857Y-94693571D01*
X98771428Y-94693571D01*
X98942857Y-94650714D01*
X99028571Y-94607857D01*
X99114285Y-94522142D01*
X99157142Y-94393571D01*
X99157142Y-94179285D01*
X98257142Y-95507857D02*
X98257142Y-95079285D01*
X98685714Y-95036428D01*
X98642857Y-95079285D01*
X98600000Y-95165000D01*
X98600000Y-95379285D01*
X98642857Y-95465000D01*
X98685714Y-95507857D01*
X98771428Y-95550714D01*
X98985714Y-95550714D01*
X99071428Y-95507857D01*
X99114285Y-95465000D01*
X99157142Y-95379285D01*
X99157142Y-95165000D01*
X99114285Y-95079285D01*
X99071428Y-95036428D01*
X98257142Y-95850714D02*
X98257142Y-96450714D01*
X99157142Y-96065000D01*
X79957142Y-94179285D02*
X79057142Y-94179285D01*
X79057142Y-94393571D01*
X79100000Y-94522142D01*
X79185714Y-94607857D01*
X79271428Y-94650714D01*
X79442857Y-94693571D01*
X79571428Y-94693571D01*
X79742857Y-94650714D01*
X79828571Y-94607857D01*
X79914285Y-94522142D01*
X79957142Y-94393571D01*
X79957142Y-94179285D01*
X79057142Y-95507857D02*
X79057142Y-95079285D01*
X79485714Y-95036428D01*
X79442857Y-95079285D01*
X79400000Y-95165000D01*
X79400000Y-95379285D01*
X79442857Y-95465000D01*
X79485714Y-95507857D01*
X79571428Y-95550714D01*
X79785714Y-95550714D01*
X79871428Y-95507857D01*
X79914285Y-95465000D01*
X79957142Y-95379285D01*
X79957142Y-95165000D01*
X79914285Y-95079285D01*
X79871428Y-95036428D01*
X79057142Y-96322142D02*
X79057142Y-96150714D01*
X79100000Y-96065000D01*
X79142857Y-96022142D01*
X79271428Y-95936428D01*
X79442857Y-95893571D01*
X79785714Y-95893571D01*
X79871428Y-95936428D01*
X79914285Y-95979285D01*
X79957142Y-96065000D01*
X79957142Y-96236428D01*
X79914285Y-96322142D01*
X79871428Y-96365000D01*
X79785714Y-96407857D01*
X79571428Y-96407857D01*
X79485714Y-96365000D01*
X79442857Y-96322142D01*
X79400000Y-96236428D01*
X79400000Y-96065000D01*
X79442857Y-95979285D01*
X79485714Y-95936428D01*
X79571428Y-95893571D01*
X291157142Y-74979285D02*
X290257142Y-74979285D01*
X290257142Y-75193571D01*
X290300000Y-75322142D01*
X290385714Y-75407857D01*
X290471428Y-75450714D01*
X290642857Y-75493571D01*
X290771428Y-75493571D01*
X290942857Y-75450714D01*
X291028571Y-75407857D01*
X291114285Y-75322142D01*
X291157142Y-75193571D01*
X291157142Y-74979285D01*
X290257142Y-76307857D02*
X290257142Y-75879285D01*
X290685714Y-75836428D01*
X290642857Y-75879285D01*
X290600000Y-75965000D01*
X290600000Y-76179285D01*
X290642857Y-76265000D01*
X290685714Y-76307857D01*
X290771428Y-76350714D01*
X290985714Y-76350714D01*
X291071428Y-76307857D01*
X291114285Y-76265000D01*
X291157142Y-76179285D01*
X291157142Y-75965000D01*
X291114285Y-75879285D01*
X291071428Y-75836428D01*
X290257142Y-77165000D02*
X290257142Y-76736428D01*
X290685714Y-76693571D01*
X290642857Y-76736428D01*
X290600000Y-76822142D01*
X290600000Y-77036428D01*
X290642857Y-77122142D01*
X290685714Y-77165000D01*
X290771428Y-77207857D01*
X290985714Y-77207857D01*
X291071428Y-77165000D01*
X291114285Y-77122142D01*
X291157142Y-77036428D01*
X291157142Y-76822142D01*
X291114285Y-76736428D01*
X291071428Y-76693571D01*
X262357142Y-74979285D02*
X261457142Y-74979285D01*
X261457142Y-75193571D01*
X261500000Y-75322142D01*
X261585714Y-75407857D01*
X261671428Y-75450714D01*
X261842857Y-75493571D01*
X261971428Y-75493571D01*
X262142857Y-75450714D01*
X262228571Y-75407857D01*
X262314285Y-75322142D01*
X262357142Y-75193571D01*
X262357142Y-74979285D01*
X261457142Y-76307857D02*
X261457142Y-75879285D01*
X261885714Y-75836428D01*
X261842857Y-75879285D01*
X261800000Y-75965000D01*
X261800000Y-76179285D01*
X261842857Y-76265000D01*
X261885714Y-76307857D01*
X261971428Y-76350714D01*
X262185714Y-76350714D01*
X262271428Y-76307857D01*
X262314285Y-76265000D01*
X262357142Y-76179285D01*
X262357142Y-75965000D01*
X262314285Y-75879285D01*
X262271428Y-75836428D01*
X261757142Y-77122142D02*
X262357142Y-77122142D01*
X261414285Y-76907857D02*
X262057142Y-76693571D01*
X262057142Y-77250714D01*
X233557142Y-74979285D02*
X232657142Y-74979285D01*
X232657142Y-75193571D01*
X232700000Y-75322142D01*
X232785714Y-75407857D01*
X232871428Y-75450714D01*
X233042857Y-75493571D01*
X233171428Y-75493571D01*
X233342857Y-75450714D01*
X233428571Y-75407857D01*
X233514285Y-75322142D01*
X233557142Y-75193571D01*
X233557142Y-74979285D01*
X232657142Y-76307857D02*
X232657142Y-75879285D01*
X233085714Y-75836428D01*
X233042857Y-75879285D01*
X233000000Y-75965000D01*
X233000000Y-76179285D01*
X233042857Y-76265000D01*
X233085714Y-76307857D01*
X233171428Y-76350714D01*
X233385714Y-76350714D01*
X233471428Y-76307857D01*
X233514285Y-76265000D01*
X233557142Y-76179285D01*
X233557142Y-75965000D01*
X233514285Y-75879285D01*
X233471428Y-75836428D01*
X232657142Y-76650714D02*
X232657142Y-77207857D01*
X233000000Y-76907857D01*
X233000000Y-77036428D01*
X233042857Y-77122142D01*
X233085714Y-77165000D01*
X233171428Y-77207857D01*
X233385714Y-77207857D01*
X233471428Y-77165000D01*
X233514285Y-77122142D01*
X233557142Y-77036428D01*
X233557142Y-76779285D01*
X233514285Y-76693571D01*
X233471428Y-76650714D01*
X214357142Y-74979285D02*
X213457142Y-74979285D01*
X213457142Y-75193571D01*
X213500000Y-75322142D01*
X213585714Y-75407857D01*
X213671428Y-75450714D01*
X213842857Y-75493571D01*
X213971428Y-75493571D01*
X214142857Y-75450714D01*
X214228571Y-75407857D01*
X214314285Y-75322142D01*
X214357142Y-75193571D01*
X214357142Y-74979285D01*
X213457142Y-76307857D02*
X213457142Y-75879285D01*
X213885714Y-75836428D01*
X213842857Y-75879285D01*
X213800000Y-75965000D01*
X213800000Y-76179285D01*
X213842857Y-76265000D01*
X213885714Y-76307857D01*
X213971428Y-76350714D01*
X214185714Y-76350714D01*
X214271428Y-76307857D01*
X214314285Y-76265000D01*
X214357142Y-76179285D01*
X214357142Y-75965000D01*
X214314285Y-75879285D01*
X214271428Y-75836428D01*
X213542857Y-76693571D02*
X213500000Y-76736428D01*
X213457142Y-76822142D01*
X213457142Y-77036428D01*
X213500000Y-77122142D01*
X213542857Y-77165000D01*
X213628571Y-77207857D01*
X213714285Y-77207857D01*
X213842857Y-77165000D01*
X214357142Y-76650714D01*
X214357142Y-77207857D01*
X195157142Y-74979285D02*
X194257142Y-74979285D01*
X194257142Y-75193571D01*
X194300000Y-75322142D01*
X194385714Y-75407857D01*
X194471428Y-75450714D01*
X194642857Y-75493571D01*
X194771428Y-75493571D01*
X194942857Y-75450714D01*
X195028571Y-75407857D01*
X195114285Y-75322142D01*
X195157142Y-75193571D01*
X195157142Y-74979285D01*
X194257142Y-76307857D02*
X194257142Y-75879285D01*
X194685714Y-75836428D01*
X194642857Y-75879285D01*
X194600000Y-75965000D01*
X194600000Y-76179285D01*
X194642857Y-76265000D01*
X194685714Y-76307857D01*
X194771428Y-76350714D01*
X194985714Y-76350714D01*
X195071428Y-76307857D01*
X195114285Y-76265000D01*
X195157142Y-76179285D01*
X195157142Y-75965000D01*
X195114285Y-75879285D01*
X195071428Y-75836428D01*
X195157142Y-77207857D02*
X195157142Y-76693571D01*
X195157142Y-76950714D02*
X194257142Y-76950714D01*
X194385714Y-76865000D01*
X194471428Y-76779285D01*
X194514285Y-76693571D01*
X175957142Y-74979285D02*
X175057142Y-74979285D01*
X175057142Y-75193571D01*
X175100000Y-75322142D01*
X175185714Y-75407857D01*
X175271428Y-75450714D01*
X175442857Y-75493571D01*
X175571428Y-75493571D01*
X175742857Y-75450714D01*
X175828571Y-75407857D01*
X175914285Y-75322142D01*
X175957142Y-75193571D01*
X175957142Y-74979285D01*
X175057142Y-76307857D02*
X175057142Y-75879285D01*
X175485714Y-75836428D01*
X175442857Y-75879285D01*
X175400000Y-75965000D01*
X175400000Y-76179285D01*
X175442857Y-76265000D01*
X175485714Y-76307857D01*
X175571428Y-76350714D01*
X175785714Y-76350714D01*
X175871428Y-76307857D01*
X175914285Y-76265000D01*
X175957142Y-76179285D01*
X175957142Y-75965000D01*
X175914285Y-75879285D01*
X175871428Y-75836428D01*
X175057142Y-76907857D02*
X175057142Y-76993571D01*
X175100000Y-77079285D01*
X175142857Y-77122142D01*
X175228571Y-77165000D01*
X175400000Y-77207857D01*
X175614285Y-77207857D01*
X175785714Y-77165000D01*
X175871428Y-77122142D01*
X175914285Y-77079285D01*
X175957142Y-76993571D01*
X175957142Y-76907857D01*
X175914285Y-76822142D01*
X175871428Y-76779285D01*
X175785714Y-76736428D01*
X175614285Y-76693571D01*
X175400000Y-76693571D01*
X175228571Y-76736428D01*
X175142857Y-76779285D01*
X175100000Y-76822142D01*
X175057142Y-76907857D01*
X156757142Y-74979285D02*
X155857142Y-74979285D01*
X155857142Y-75193571D01*
X155900000Y-75322142D01*
X155985714Y-75407857D01*
X156071428Y-75450714D01*
X156242857Y-75493571D01*
X156371428Y-75493571D01*
X156542857Y-75450714D01*
X156628571Y-75407857D01*
X156714285Y-75322142D01*
X156757142Y-75193571D01*
X156757142Y-74979285D01*
X156157142Y-76265000D02*
X156757142Y-76265000D01*
X155814285Y-76050714D02*
X156457142Y-75836428D01*
X156457142Y-76393571D01*
X156757142Y-76779285D02*
X156757142Y-76950714D01*
X156714285Y-77036428D01*
X156671428Y-77079285D01*
X156542857Y-77165000D01*
X156371428Y-77207857D01*
X156028571Y-77207857D01*
X155942857Y-77165000D01*
X155900000Y-77122142D01*
X155857142Y-77036428D01*
X155857142Y-76865000D01*
X155900000Y-76779285D01*
X155942857Y-76736428D01*
X156028571Y-76693571D01*
X156242857Y-76693571D01*
X156328571Y-76736428D01*
X156371428Y-76779285D01*
X156414285Y-76865000D01*
X156414285Y-77036428D01*
X156371428Y-77122142D01*
X156328571Y-77165000D01*
X156242857Y-77207857D01*
X137557142Y-74979285D02*
X136657142Y-74979285D01*
X136657142Y-75193571D01*
X136700000Y-75322142D01*
X136785714Y-75407857D01*
X136871428Y-75450714D01*
X137042857Y-75493571D01*
X137171428Y-75493571D01*
X137342857Y-75450714D01*
X137428571Y-75407857D01*
X137514285Y-75322142D01*
X137557142Y-75193571D01*
X137557142Y-74979285D01*
X136957142Y-76265000D02*
X137557142Y-76265000D01*
X136614285Y-76050714D02*
X137257142Y-75836428D01*
X137257142Y-76393571D01*
X137042857Y-76865000D02*
X137000000Y-76779285D01*
X136957142Y-76736428D01*
X136871428Y-76693571D01*
X136828571Y-76693571D01*
X136742857Y-76736428D01*
X136700000Y-76779285D01*
X136657142Y-76865000D01*
X136657142Y-77036428D01*
X136700000Y-77122142D01*
X136742857Y-77165000D01*
X136828571Y-77207857D01*
X136871428Y-77207857D01*
X136957142Y-77165000D01*
X137000000Y-77122142D01*
X137042857Y-77036428D01*
X137042857Y-76865000D01*
X137085714Y-76779285D01*
X137128571Y-76736428D01*
X137214285Y-76693571D01*
X137385714Y-76693571D01*
X137471428Y-76736428D01*
X137514285Y-76779285D01*
X137557142Y-76865000D01*
X137557142Y-77036428D01*
X137514285Y-77122142D01*
X137471428Y-77165000D01*
X137385714Y-77207857D01*
X137214285Y-77207857D01*
X137128571Y-77165000D01*
X137085714Y-77122142D01*
X137042857Y-77036428D01*
X118357142Y-74979285D02*
X117457142Y-74979285D01*
X117457142Y-75193571D01*
X117500000Y-75322142D01*
X117585714Y-75407857D01*
X117671428Y-75450714D01*
X117842857Y-75493571D01*
X117971428Y-75493571D01*
X118142857Y-75450714D01*
X118228571Y-75407857D01*
X118314285Y-75322142D01*
X118357142Y-75193571D01*
X118357142Y-74979285D01*
X117757142Y-76265000D02*
X118357142Y-76265000D01*
X117414285Y-76050714D02*
X118057142Y-75836428D01*
X118057142Y-76393571D01*
X117457142Y-76650714D02*
X117457142Y-77250714D01*
X118357142Y-76865000D01*
X99157142Y-74979285D02*
X98257142Y-74979285D01*
X98257142Y-75193571D01*
X98300000Y-75322142D01*
X98385714Y-75407857D01*
X98471428Y-75450714D01*
X98642857Y-75493571D01*
X98771428Y-75493571D01*
X98942857Y-75450714D01*
X99028571Y-75407857D01*
X99114285Y-75322142D01*
X99157142Y-75193571D01*
X99157142Y-74979285D01*
X98557142Y-76265000D02*
X99157142Y-76265000D01*
X98214285Y-76050714D02*
X98857142Y-75836428D01*
X98857142Y-76393571D01*
X98257142Y-77122142D02*
X98257142Y-76950714D01*
X98300000Y-76865000D01*
X98342857Y-76822142D01*
X98471428Y-76736428D01*
X98642857Y-76693571D01*
X98985714Y-76693571D01*
X99071428Y-76736428D01*
X99114285Y-76779285D01*
X99157142Y-76865000D01*
X99157142Y-77036428D01*
X99114285Y-77122142D01*
X99071428Y-77165000D01*
X98985714Y-77207857D01*
X98771428Y-77207857D01*
X98685714Y-77165000D01*
X98642857Y-77122142D01*
X98600000Y-77036428D01*
X98600000Y-76865000D01*
X98642857Y-76779285D01*
X98685714Y-76736428D01*
X98771428Y-76693571D01*
X79957142Y-74979285D02*
X79057142Y-74979285D01*
X79057142Y-75193571D01*
X79100000Y-75322142D01*
X79185714Y-75407857D01*
X79271428Y-75450714D01*
X79442857Y-75493571D01*
X79571428Y-75493571D01*
X79742857Y-75450714D01*
X79828571Y-75407857D01*
X79914285Y-75322142D01*
X79957142Y-75193571D01*
X79957142Y-74979285D01*
X79357142Y-76265000D02*
X79957142Y-76265000D01*
X79014285Y-76050714D02*
X79657142Y-75836428D01*
X79657142Y-76393571D01*
X79057142Y-77165000D02*
X79057142Y-76736428D01*
X79485714Y-76693571D01*
X79442857Y-76736428D01*
X79400000Y-76822142D01*
X79400000Y-77036428D01*
X79442857Y-77122142D01*
X79485714Y-77165000D01*
X79571428Y-77207857D01*
X79785714Y-77207857D01*
X79871428Y-77165000D01*
X79914285Y-77122142D01*
X79957142Y-77036428D01*
X79957142Y-76822142D01*
X79914285Y-76736428D01*
X79871428Y-76693571D01*
X60757142Y-74979285D02*
X59857142Y-74979285D01*
X59857142Y-75193571D01*
X59900000Y-75322142D01*
X59985714Y-75407857D01*
X60071428Y-75450714D01*
X60242857Y-75493571D01*
X60371428Y-75493571D01*
X60542857Y-75450714D01*
X60628571Y-75407857D01*
X60714285Y-75322142D01*
X60757142Y-75193571D01*
X60757142Y-74979285D01*
X60157142Y-76265000D02*
X60757142Y-76265000D01*
X59814285Y-76050714D02*
X60457142Y-75836428D01*
X60457142Y-76393571D01*
X60157142Y-77122142D02*
X60757142Y-77122142D01*
X59814285Y-76907857D02*
X60457142Y-76693571D01*
X60457142Y-77250714D01*
X31957142Y-74979285D02*
X31057142Y-74979285D01*
X31057142Y-75193571D01*
X31100000Y-75322142D01*
X31185714Y-75407857D01*
X31271428Y-75450714D01*
X31442857Y-75493571D01*
X31571428Y-75493571D01*
X31742857Y-75450714D01*
X31828571Y-75407857D01*
X31914285Y-75322142D01*
X31957142Y-75193571D01*
X31957142Y-74979285D01*
X31357142Y-76265000D02*
X31957142Y-76265000D01*
X31014285Y-76050714D02*
X31657142Y-75836428D01*
X31657142Y-76393571D01*
X31057142Y-76650714D02*
X31057142Y-77207857D01*
X31400000Y-76907857D01*
X31400000Y-77036428D01*
X31442857Y-77122142D01*
X31485714Y-77165000D01*
X31571428Y-77207857D01*
X31785714Y-77207857D01*
X31871428Y-77165000D01*
X31914285Y-77122142D01*
X31957142Y-77036428D01*
X31957142Y-76779285D01*
X31914285Y-76693571D01*
X31871428Y-76650714D01*
X281557142Y-55779285D02*
X280657142Y-55779285D01*
X280657142Y-55993571D01*
X280700000Y-56122142D01*
X280785714Y-56207857D01*
X280871428Y-56250714D01*
X281042857Y-56293571D01*
X281171428Y-56293571D01*
X281342857Y-56250714D01*
X281428571Y-56207857D01*
X281514285Y-56122142D01*
X281557142Y-55993571D01*
X281557142Y-55779285D01*
X280957142Y-57065000D02*
X281557142Y-57065000D01*
X280614285Y-56850714D02*
X281257142Y-56636428D01*
X281257142Y-57193571D01*
X280742857Y-57493571D02*
X280700000Y-57536428D01*
X280657142Y-57622142D01*
X280657142Y-57836428D01*
X280700000Y-57922142D01*
X280742857Y-57965000D01*
X280828571Y-58007857D01*
X280914285Y-58007857D01*
X281042857Y-57965000D01*
X281557142Y-57450714D01*
X281557142Y-58007857D01*
X252757142Y-55779285D02*
X251857142Y-55779285D01*
X251857142Y-55993571D01*
X251900000Y-56122142D01*
X251985714Y-56207857D01*
X252071428Y-56250714D01*
X252242857Y-56293571D01*
X252371428Y-56293571D01*
X252542857Y-56250714D01*
X252628571Y-56207857D01*
X252714285Y-56122142D01*
X252757142Y-55993571D01*
X252757142Y-55779285D01*
X252157142Y-57065000D02*
X252757142Y-57065000D01*
X251814285Y-56850714D02*
X252457142Y-56636428D01*
X252457142Y-57193571D01*
X252757142Y-58007857D02*
X252757142Y-57493571D01*
X252757142Y-57750714D02*
X251857142Y-57750714D01*
X251985714Y-57665000D01*
X252071428Y-57579285D01*
X252114285Y-57493571D01*
X233557142Y-55779285D02*
X232657142Y-55779285D01*
X232657142Y-55993571D01*
X232700000Y-56122142D01*
X232785714Y-56207857D01*
X232871428Y-56250714D01*
X233042857Y-56293571D01*
X233171428Y-56293571D01*
X233342857Y-56250714D01*
X233428571Y-56207857D01*
X233514285Y-56122142D01*
X233557142Y-55993571D01*
X233557142Y-55779285D01*
X232957142Y-57065000D02*
X233557142Y-57065000D01*
X232614285Y-56850714D02*
X233257142Y-56636428D01*
X233257142Y-57193571D01*
X232657142Y-57707857D02*
X232657142Y-57793571D01*
X232700000Y-57879285D01*
X232742857Y-57922142D01*
X232828571Y-57965000D01*
X233000000Y-58007857D01*
X233214285Y-58007857D01*
X233385714Y-57965000D01*
X233471428Y-57922142D01*
X233514285Y-57879285D01*
X233557142Y-57793571D01*
X233557142Y-57707857D01*
X233514285Y-57622142D01*
X233471428Y-57579285D01*
X233385714Y-57536428D01*
X233214285Y-57493571D01*
X233000000Y-57493571D01*
X232828571Y-57536428D01*
X232742857Y-57579285D01*
X232700000Y-57622142D01*
X232657142Y-57707857D01*
X214357142Y-55779285D02*
X213457142Y-55779285D01*
X213457142Y-55993571D01*
X213500000Y-56122142D01*
X213585714Y-56207857D01*
X213671428Y-56250714D01*
X213842857Y-56293571D01*
X213971428Y-56293571D01*
X214142857Y-56250714D01*
X214228571Y-56207857D01*
X214314285Y-56122142D01*
X214357142Y-55993571D01*
X214357142Y-55779285D01*
X213457142Y-56593571D02*
X213457142Y-57150714D01*
X213800000Y-56850714D01*
X213800000Y-56979285D01*
X213842857Y-57065000D01*
X213885714Y-57107857D01*
X213971428Y-57150714D01*
X214185714Y-57150714D01*
X214271428Y-57107857D01*
X214314285Y-57065000D01*
X214357142Y-56979285D01*
X214357142Y-56722142D01*
X214314285Y-56636428D01*
X214271428Y-56593571D01*
X214357142Y-57579285D02*
X214357142Y-57750714D01*
X214314285Y-57836428D01*
X214271428Y-57879285D01*
X214142857Y-57965000D01*
X213971428Y-58007857D01*
X213628571Y-58007857D01*
X213542857Y-57965000D01*
X213500000Y-57922142D01*
X213457142Y-57836428D01*
X213457142Y-57665000D01*
X213500000Y-57579285D01*
X213542857Y-57536428D01*
X213628571Y-57493571D01*
X213842857Y-57493571D01*
X213928571Y-57536428D01*
X213971428Y-57579285D01*
X214014285Y-57665000D01*
X214014285Y-57836428D01*
X213971428Y-57922142D01*
X213928571Y-57965000D01*
X213842857Y-58007857D01*
X195157142Y-55779285D02*
X194257142Y-55779285D01*
X194257142Y-55993571D01*
X194300000Y-56122142D01*
X194385714Y-56207857D01*
X194471428Y-56250714D01*
X194642857Y-56293571D01*
X194771428Y-56293571D01*
X194942857Y-56250714D01*
X195028571Y-56207857D01*
X195114285Y-56122142D01*
X195157142Y-55993571D01*
X195157142Y-55779285D01*
X194257142Y-56593571D02*
X194257142Y-57150714D01*
X194600000Y-56850714D01*
X194600000Y-56979285D01*
X194642857Y-57065000D01*
X194685714Y-57107857D01*
X194771428Y-57150714D01*
X194985714Y-57150714D01*
X195071428Y-57107857D01*
X195114285Y-57065000D01*
X195157142Y-56979285D01*
X195157142Y-56722142D01*
X195114285Y-56636428D01*
X195071428Y-56593571D01*
X194642857Y-57665000D02*
X194600000Y-57579285D01*
X194557142Y-57536428D01*
X194471428Y-57493571D01*
X194428571Y-57493571D01*
X194342857Y-57536428D01*
X194300000Y-57579285D01*
X194257142Y-57665000D01*
X194257142Y-57836428D01*
X194300000Y-57922142D01*
X194342857Y-57965000D01*
X194428571Y-58007857D01*
X194471428Y-58007857D01*
X194557142Y-57965000D01*
X194600000Y-57922142D01*
X194642857Y-57836428D01*
X194642857Y-57665000D01*
X194685714Y-57579285D01*
X194728571Y-57536428D01*
X194814285Y-57493571D01*
X194985714Y-57493571D01*
X195071428Y-57536428D01*
X195114285Y-57579285D01*
X195157142Y-57665000D01*
X195157142Y-57836428D01*
X195114285Y-57922142D01*
X195071428Y-57965000D01*
X194985714Y-58007857D01*
X194814285Y-58007857D01*
X194728571Y-57965000D01*
X194685714Y-57922142D01*
X194642857Y-57836428D01*
X175957142Y-55779285D02*
X175057142Y-55779285D01*
X175057142Y-55993571D01*
X175100000Y-56122142D01*
X175185714Y-56207857D01*
X175271428Y-56250714D01*
X175442857Y-56293571D01*
X175571428Y-56293571D01*
X175742857Y-56250714D01*
X175828571Y-56207857D01*
X175914285Y-56122142D01*
X175957142Y-55993571D01*
X175957142Y-55779285D01*
X175057142Y-56593571D02*
X175057142Y-57150714D01*
X175400000Y-56850714D01*
X175400000Y-56979285D01*
X175442857Y-57065000D01*
X175485714Y-57107857D01*
X175571428Y-57150714D01*
X175785714Y-57150714D01*
X175871428Y-57107857D01*
X175914285Y-57065000D01*
X175957142Y-56979285D01*
X175957142Y-56722142D01*
X175914285Y-56636428D01*
X175871428Y-56593571D01*
X175057142Y-57450714D02*
X175057142Y-58050714D01*
X175957142Y-57665000D01*
X156757142Y-55779285D02*
X155857142Y-55779285D01*
X155857142Y-55993571D01*
X155900000Y-56122142D01*
X155985714Y-56207857D01*
X156071428Y-56250714D01*
X156242857Y-56293571D01*
X156371428Y-56293571D01*
X156542857Y-56250714D01*
X156628571Y-56207857D01*
X156714285Y-56122142D01*
X156757142Y-55993571D01*
X156757142Y-55779285D01*
X155857142Y-56593571D02*
X155857142Y-57150714D01*
X156200000Y-56850714D01*
X156200000Y-56979285D01*
X156242857Y-57065000D01*
X156285714Y-57107857D01*
X156371428Y-57150714D01*
X156585714Y-57150714D01*
X156671428Y-57107857D01*
X156714285Y-57065000D01*
X156757142Y-56979285D01*
X156757142Y-56722142D01*
X156714285Y-56636428D01*
X156671428Y-56593571D01*
X155857142Y-57922142D02*
X155857142Y-57750714D01*
X155900000Y-57665000D01*
X155942857Y-57622142D01*
X156071428Y-57536428D01*
X156242857Y-57493571D01*
X156585714Y-57493571D01*
X156671428Y-57536428D01*
X156714285Y-57579285D01*
X156757142Y-57665000D01*
X156757142Y-57836428D01*
X156714285Y-57922142D01*
X156671428Y-57965000D01*
X156585714Y-58007857D01*
X156371428Y-58007857D01*
X156285714Y-57965000D01*
X156242857Y-57922142D01*
X156200000Y-57836428D01*
X156200000Y-57665000D01*
X156242857Y-57579285D01*
X156285714Y-57536428D01*
X156371428Y-57493571D01*
X137557142Y-55779285D02*
X136657142Y-55779285D01*
X136657142Y-55993571D01*
X136700000Y-56122142D01*
X136785714Y-56207857D01*
X136871428Y-56250714D01*
X137042857Y-56293571D01*
X137171428Y-56293571D01*
X137342857Y-56250714D01*
X137428571Y-56207857D01*
X137514285Y-56122142D01*
X137557142Y-55993571D01*
X137557142Y-55779285D01*
X136657142Y-56593571D02*
X136657142Y-57150714D01*
X137000000Y-56850714D01*
X137000000Y-56979285D01*
X137042857Y-57065000D01*
X137085714Y-57107857D01*
X137171428Y-57150714D01*
X137385714Y-57150714D01*
X137471428Y-57107857D01*
X137514285Y-57065000D01*
X137557142Y-56979285D01*
X137557142Y-56722142D01*
X137514285Y-56636428D01*
X137471428Y-56593571D01*
X136657142Y-57965000D02*
X136657142Y-57536428D01*
X137085714Y-57493571D01*
X137042857Y-57536428D01*
X137000000Y-57622142D01*
X137000000Y-57836428D01*
X137042857Y-57922142D01*
X137085714Y-57965000D01*
X137171428Y-58007857D01*
X137385714Y-58007857D01*
X137471428Y-57965000D01*
X137514285Y-57922142D01*
X137557142Y-57836428D01*
X137557142Y-57622142D01*
X137514285Y-57536428D01*
X137471428Y-57493571D01*
X118357142Y-55779285D02*
X117457142Y-55779285D01*
X117457142Y-55993571D01*
X117500000Y-56122142D01*
X117585714Y-56207857D01*
X117671428Y-56250714D01*
X117842857Y-56293571D01*
X117971428Y-56293571D01*
X118142857Y-56250714D01*
X118228571Y-56207857D01*
X118314285Y-56122142D01*
X118357142Y-55993571D01*
X118357142Y-55779285D01*
X117457142Y-56593571D02*
X117457142Y-57150714D01*
X117800000Y-56850714D01*
X117800000Y-56979285D01*
X117842857Y-57065000D01*
X117885714Y-57107857D01*
X117971428Y-57150714D01*
X118185714Y-57150714D01*
X118271428Y-57107857D01*
X118314285Y-57065000D01*
X118357142Y-56979285D01*
X118357142Y-56722142D01*
X118314285Y-56636428D01*
X118271428Y-56593571D01*
X117757142Y-57922142D02*
X118357142Y-57922142D01*
X117414285Y-57707857D02*
X118057142Y-57493571D01*
X118057142Y-58050714D01*
X99157142Y-55779285D02*
X98257142Y-55779285D01*
X98257142Y-55993571D01*
X98300000Y-56122142D01*
X98385714Y-56207857D01*
X98471428Y-56250714D01*
X98642857Y-56293571D01*
X98771428Y-56293571D01*
X98942857Y-56250714D01*
X99028571Y-56207857D01*
X99114285Y-56122142D01*
X99157142Y-55993571D01*
X99157142Y-55779285D01*
X98257142Y-56593571D02*
X98257142Y-57150714D01*
X98600000Y-56850714D01*
X98600000Y-56979285D01*
X98642857Y-57065000D01*
X98685714Y-57107857D01*
X98771428Y-57150714D01*
X98985714Y-57150714D01*
X99071428Y-57107857D01*
X99114285Y-57065000D01*
X99157142Y-56979285D01*
X99157142Y-56722142D01*
X99114285Y-56636428D01*
X99071428Y-56593571D01*
X98257142Y-57450714D02*
X98257142Y-58007857D01*
X98600000Y-57707857D01*
X98600000Y-57836428D01*
X98642857Y-57922142D01*
X98685714Y-57965000D01*
X98771428Y-58007857D01*
X98985714Y-58007857D01*
X99071428Y-57965000D01*
X99114285Y-57922142D01*
X99157142Y-57836428D01*
X99157142Y-57579285D01*
X99114285Y-57493571D01*
X99071428Y-57450714D01*
X79957142Y-55779285D02*
X79057142Y-55779285D01*
X79057142Y-55993571D01*
X79100000Y-56122142D01*
X79185714Y-56207857D01*
X79271428Y-56250714D01*
X79442857Y-56293571D01*
X79571428Y-56293571D01*
X79742857Y-56250714D01*
X79828571Y-56207857D01*
X79914285Y-56122142D01*
X79957142Y-55993571D01*
X79957142Y-55779285D01*
X79057142Y-56593571D02*
X79057142Y-57150714D01*
X79400000Y-56850714D01*
X79400000Y-56979285D01*
X79442857Y-57065000D01*
X79485714Y-57107857D01*
X79571428Y-57150714D01*
X79785714Y-57150714D01*
X79871428Y-57107857D01*
X79914285Y-57065000D01*
X79957142Y-56979285D01*
X79957142Y-56722142D01*
X79914285Y-56636428D01*
X79871428Y-56593571D01*
X79142857Y-57493571D02*
X79100000Y-57536428D01*
X79057142Y-57622142D01*
X79057142Y-57836428D01*
X79100000Y-57922142D01*
X79142857Y-57965000D01*
X79228571Y-58007857D01*
X79314285Y-58007857D01*
X79442857Y-57965000D01*
X79957142Y-57450714D01*
X79957142Y-58007857D01*
X60757142Y-55779285D02*
X59857142Y-55779285D01*
X59857142Y-55993571D01*
X59900000Y-56122142D01*
X59985714Y-56207857D01*
X60071428Y-56250714D01*
X60242857Y-56293571D01*
X60371428Y-56293571D01*
X60542857Y-56250714D01*
X60628571Y-56207857D01*
X60714285Y-56122142D01*
X60757142Y-55993571D01*
X60757142Y-55779285D01*
X59857142Y-56593571D02*
X59857142Y-57150714D01*
X60200000Y-56850714D01*
X60200000Y-56979285D01*
X60242857Y-57065000D01*
X60285714Y-57107857D01*
X60371428Y-57150714D01*
X60585714Y-57150714D01*
X60671428Y-57107857D01*
X60714285Y-57065000D01*
X60757142Y-56979285D01*
X60757142Y-56722142D01*
X60714285Y-56636428D01*
X60671428Y-56593571D01*
X60757142Y-58007857D02*
X60757142Y-57493571D01*
X60757142Y-57750714D02*
X59857142Y-57750714D01*
X59985714Y-57665000D01*
X60071428Y-57579285D01*
X60114285Y-57493571D01*
X31957142Y-55779285D02*
X31057142Y-55779285D01*
X31057142Y-55993571D01*
X31100000Y-56122142D01*
X31185714Y-56207857D01*
X31271428Y-56250714D01*
X31442857Y-56293571D01*
X31571428Y-56293571D01*
X31742857Y-56250714D01*
X31828571Y-56207857D01*
X31914285Y-56122142D01*
X31957142Y-55993571D01*
X31957142Y-55779285D01*
X31057142Y-56593571D02*
X31057142Y-57150714D01*
X31400000Y-56850714D01*
X31400000Y-56979285D01*
X31442857Y-57065000D01*
X31485714Y-57107857D01*
X31571428Y-57150714D01*
X31785714Y-57150714D01*
X31871428Y-57107857D01*
X31914285Y-57065000D01*
X31957142Y-56979285D01*
X31957142Y-56722142D01*
X31914285Y-56636428D01*
X31871428Y-56593571D01*
X31057142Y-57707857D02*
X31057142Y-57793571D01*
X31100000Y-57879285D01*
X31142857Y-57922142D01*
X31228571Y-57965000D01*
X31400000Y-58007857D01*
X31614285Y-58007857D01*
X31785714Y-57965000D01*
X31871428Y-57922142D01*
X31914285Y-57879285D01*
X31957142Y-57793571D01*
X31957142Y-57707857D01*
X31914285Y-57622142D01*
X31871428Y-57579285D01*
X31785714Y-57536428D01*
X31614285Y-57493571D01*
X31400000Y-57493571D01*
X31228571Y-57536428D01*
X31142857Y-57579285D01*
X31100000Y-57622142D01*
X31057142Y-57707857D01*
X291157142Y-36579285D02*
X290257142Y-36579285D01*
X290257142Y-36793571D01*
X290300000Y-36922142D01*
X290385714Y-37007857D01*
X290471428Y-37050714D01*
X290642857Y-37093571D01*
X290771428Y-37093571D01*
X290942857Y-37050714D01*
X291028571Y-37007857D01*
X291114285Y-36922142D01*
X291157142Y-36793571D01*
X291157142Y-36579285D01*
X290342857Y-37436428D02*
X290300000Y-37479285D01*
X290257142Y-37565000D01*
X290257142Y-37779285D01*
X290300000Y-37865000D01*
X290342857Y-37907857D01*
X290428571Y-37950714D01*
X290514285Y-37950714D01*
X290642857Y-37907857D01*
X291157142Y-37393571D01*
X291157142Y-37950714D01*
X291157142Y-38379285D02*
X291157142Y-38550714D01*
X291114285Y-38636428D01*
X291071428Y-38679285D01*
X290942857Y-38765000D01*
X290771428Y-38807857D01*
X290428571Y-38807857D01*
X290342857Y-38765000D01*
X290300000Y-38722142D01*
X290257142Y-38636428D01*
X290257142Y-38465000D01*
X290300000Y-38379285D01*
X290342857Y-38336428D01*
X290428571Y-38293571D01*
X290642857Y-38293571D01*
X290728571Y-38336428D01*
X290771428Y-38379285D01*
X290814285Y-38465000D01*
X290814285Y-38636428D01*
X290771428Y-38722142D01*
X290728571Y-38765000D01*
X290642857Y-38807857D01*
X271957142Y-36579285D02*
X271057142Y-36579285D01*
X271057142Y-36793571D01*
X271100000Y-36922142D01*
X271185714Y-37007857D01*
X271271428Y-37050714D01*
X271442857Y-37093571D01*
X271571428Y-37093571D01*
X271742857Y-37050714D01*
X271828571Y-37007857D01*
X271914285Y-36922142D01*
X271957142Y-36793571D01*
X271957142Y-36579285D01*
X271142857Y-37436428D02*
X271100000Y-37479285D01*
X271057142Y-37565000D01*
X271057142Y-37779285D01*
X271100000Y-37865000D01*
X271142857Y-37907857D01*
X271228571Y-37950714D01*
X271314285Y-37950714D01*
X271442857Y-37907857D01*
X271957142Y-37393571D01*
X271957142Y-37950714D01*
X271442857Y-38465000D02*
X271400000Y-38379285D01*
X271357142Y-38336428D01*
X271271428Y-38293571D01*
X271228571Y-38293571D01*
X271142857Y-38336428D01*
X271100000Y-38379285D01*
X271057142Y-38465000D01*
X271057142Y-38636428D01*
X271100000Y-38722142D01*
X271142857Y-38765000D01*
X271228571Y-38807857D01*
X271271428Y-38807857D01*
X271357142Y-38765000D01*
X271400000Y-38722142D01*
X271442857Y-38636428D01*
X271442857Y-38465000D01*
X271485714Y-38379285D01*
X271528571Y-38336428D01*
X271614285Y-38293571D01*
X271785714Y-38293571D01*
X271871428Y-38336428D01*
X271914285Y-38379285D01*
X271957142Y-38465000D01*
X271957142Y-38636428D01*
X271914285Y-38722142D01*
X271871428Y-38765000D01*
X271785714Y-38807857D01*
X271614285Y-38807857D01*
X271528571Y-38765000D01*
X271485714Y-38722142D01*
X271442857Y-38636428D01*
X252757142Y-36579285D02*
X251857142Y-36579285D01*
X251857142Y-36793571D01*
X251900000Y-36922142D01*
X251985714Y-37007857D01*
X252071428Y-37050714D01*
X252242857Y-37093571D01*
X252371428Y-37093571D01*
X252542857Y-37050714D01*
X252628571Y-37007857D01*
X252714285Y-36922142D01*
X252757142Y-36793571D01*
X252757142Y-36579285D01*
X251942857Y-37436428D02*
X251900000Y-37479285D01*
X251857142Y-37565000D01*
X251857142Y-37779285D01*
X251900000Y-37865000D01*
X251942857Y-37907857D01*
X252028571Y-37950714D01*
X252114285Y-37950714D01*
X252242857Y-37907857D01*
X252757142Y-37393571D01*
X252757142Y-37950714D01*
X251857142Y-38250714D02*
X251857142Y-38850714D01*
X252757142Y-38465000D01*
X233557142Y-36579285D02*
X232657142Y-36579285D01*
X232657142Y-36793571D01*
X232700000Y-36922142D01*
X232785714Y-37007857D01*
X232871428Y-37050714D01*
X233042857Y-37093571D01*
X233171428Y-37093571D01*
X233342857Y-37050714D01*
X233428571Y-37007857D01*
X233514285Y-36922142D01*
X233557142Y-36793571D01*
X233557142Y-36579285D01*
X232742857Y-37436428D02*
X232700000Y-37479285D01*
X232657142Y-37565000D01*
X232657142Y-37779285D01*
X232700000Y-37865000D01*
X232742857Y-37907857D01*
X232828571Y-37950714D01*
X232914285Y-37950714D01*
X233042857Y-37907857D01*
X233557142Y-37393571D01*
X233557142Y-37950714D01*
X232657142Y-38722142D02*
X232657142Y-38550714D01*
X232700000Y-38465000D01*
X232742857Y-38422142D01*
X232871428Y-38336428D01*
X233042857Y-38293571D01*
X233385714Y-38293571D01*
X233471428Y-38336428D01*
X233514285Y-38379285D01*
X233557142Y-38465000D01*
X233557142Y-38636428D01*
X233514285Y-38722142D01*
X233471428Y-38765000D01*
X233385714Y-38807857D01*
X233171428Y-38807857D01*
X233085714Y-38765000D01*
X233042857Y-38722142D01*
X233000000Y-38636428D01*
X233000000Y-38465000D01*
X233042857Y-38379285D01*
X233085714Y-38336428D01*
X233171428Y-38293571D01*
X214357142Y-36579285D02*
X213457142Y-36579285D01*
X213457142Y-36793571D01*
X213500000Y-36922142D01*
X213585714Y-37007857D01*
X213671428Y-37050714D01*
X213842857Y-37093571D01*
X213971428Y-37093571D01*
X214142857Y-37050714D01*
X214228571Y-37007857D01*
X214314285Y-36922142D01*
X214357142Y-36793571D01*
X214357142Y-36579285D01*
X213542857Y-37436428D02*
X213500000Y-37479285D01*
X213457142Y-37565000D01*
X213457142Y-37779285D01*
X213500000Y-37865000D01*
X213542857Y-37907857D01*
X213628571Y-37950714D01*
X213714285Y-37950714D01*
X213842857Y-37907857D01*
X214357142Y-37393571D01*
X214357142Y-37950714D01*
X213457142Y-38765000D02*
X213457142Y-38336428D01*
X213885714Y-38293571D01*
X213842857Y-38336428D01*
X213800000Y-38422142D01*
X213800000Y-38636428D01*
X213842857Y-38722142D01*
X213885714Y-38765000D01*
X213971428Y-38807857D01*
X214185714Y-38807857D01*
X214271428Y-38765000D01*
X214314285Y-38722142D01*
X214357142Y-38636428D01*
X214357142Y-38422142D01*
X214314285Y-38336428D01*
X214271428Y-38293571D01*
X195157142Y-36579285D02*
X194257142Y-36579285D01*
X194257142Y-36793571D01*
X194300000Y-36922142D01*
X194385714Y-37007857D01*
X194471428Y-37050714D01*
X194642857Y-37093571D01*
X194771428Y-37093571D01*
X194942857Y-37050714D01*
X195028571Y-37007857D01*
X195114285Y-36922142D01*
X195157142Y-36793571D01*
X195157142Y-36579285D01*
X194342857Y-37436428D02*
X194300000Y-37479285D01*
X194257142Y-37565000D01*
X194257142Y-37779285D01*
X194300000Y-37865000D01*
X194342857Y-37907857D01*
X194428571Y-37950714D01*
X194514285Y-37950714D01*
X194642857Y-37907857D01*
X195157142Y-37393571D01*
X195157142Y-37950714D01*
X194557142Y-38722142D02*
X195157142Y-38722142D01*
X194214285Y-38507857D02*
X194857142Y-38293571D01*
X194857142Y-38850714D01*
X175957142Y-36579285D02*
X175057142Y-36579285D01*
X175057142Y-36793571D01*
X175100000Y-36922142D01*
X175185714Y-37007857D01*
X175271428Y-37050714D01*
X175442857Y-37093571D01*
X175571428Y-37093571D01*
X175742857Y-37050714D01*
X175828571Y-37007857D01*
X175914285Y-36922142D01*
X175957142Y-36793571D01*
X175957142Y-36579285D01*
X175142857Y-37436428D02*
X175100000Y-37479285D01*
X175057142Y-37565000D01*
X175057142Y-37779285D01*
X175100000Y-37865000D01*
X175142857Y-37907857D01*
X175228571Y-37950714D01*
X175314285Y-37950714D01*
X175442857Y-37907857D01*
X175957142Y-37393571D01*
X175957142Y-37950714D01*
X175057142Y-38250714D02*
X175057142Y-38807857D01*
X175400000Y-38507857D01*
X175400000Y-38636428D01*
X175442857Y-38722142D01*
X175485714Y-38765000D01*
X175571428Y-38807857D01*
X175785714Y-38807857D01*
X175871428Y-38765000D01*
X175914285Y-38722142D01*
X175957142Y-38636428D01*
X175957142Y-38379285D01*
X175914285Y-38293571D01*
X175871428Y-38250714D01*
X156757142Y-36579285D02*
X155857142Y-36579285D01*
X155857142Y-36793571D01*
X155900000Y-36922142D01*
X155985714Y-37007857D01*
X156071428Y-37050714D01*
X156242857Y-37093571D01*
X156371428Y-37093571D01*
X156542857Y-37050714D01*
X156628571Y-37007857D01*
X156714285Y-36922142D01*
X156757142Y-36793571D01*
X156757142Y-36579285D01*
X155942857Y-37436428D02*
X155900000Y-37479285D01*
X155857142Y-37565000D01*
X155857142Y-37779285D01*
X155900000Y-37865000D01*
X155942857Y-37907857D01*
X156028571Y-37950714D01*
X156114285Y-37950714D01*
X156242857Y-37907857D01*
X156757142Y-37393571D01*
X156757142Y-37950714D01*
X155942857Y-38293571D02*
X155900000Y-38336428D01*
X155857142Y-38422142D01*
X155857142Y-38636428D01*
X155900000Y-38722142D01*
X155942857Y-38765000D01*
X156028571Y-38807857D01*
X156114285Y-38807857D01*
X156242857Y-38765000D01*
X156757142Y-38250714D01*
X156757142Y-38807857D01*
X137557142Y-36579285D02*
X136657142Y-36579285D01*
X136657142Y-36793571D01*
X136700000Y-36922142D01*
X136785714Y-37007857D01*
X136871428Y-37050714D01*
X137042857Y-37093571D01*
X137171428Y-37093571D01*
X137342857Y-37050714D01*
X137428571Y-37007857D01*
X137514285Y-36922142D01*
X137557142Y-36793571D01*
X137557142Y-36579285D01*
X136742857Y-37436428D02*
X136700000Y-37479285D01*
X136657142Y-37565000D01*
X136657142Y-37779285D01*
X136700000Y-37865000D01*
X136742857Y-37907857D01*
X136828571Y-37950714D01*
X136914285Y-37950714D01*
X137042857Y-37907857D01*
X137557142Y-37393571D01*
X137557142Y-37950714D01*
X137557142Y-38807857D02*
X137557142Y-38293571D01*
X137557142Y-38550714D02*
X136657142Y-38550714D01*
X136785714Y-38465000D01*
X136871428Y-38379285D01*
X136914285Y-38293571D01*
X118357142Y-36579285D02*
X117457142Y-36579285D01*
X117457142Y-36793571D01*
X117500000Y-36922142D01*
X117585714Y-37007857D01*
X117671428Y-37050714D01*
X117842857Y-37093571D01*
X117971428Y-37093571D01*
X118142857Y-37050714D01*
X118228571Y-37007857D01*
X118314285Y-36922142D01*
X118357142Y-36793571D01*
X118357142Y-36579285D01*
X117542857Y-37436428D02*
X117500000Y-37479285D01*
X117457142Y-37565000D01*
X117457142Y-37779285D01*
X117500000Y-37865000D01*
X117542857Y-37907857D01*
X117628571Y-37950714D01*
X117714285Y-37950714D01*
X117842857Y-37907857D01*
X118357142Y-37393571D01*
X118357142Y-37950714D01*
X117457142Y-38507857D02*
X117457142Y-38593571D01*
X117500000Y-38679285D01*
X117542857Y-38722142D01*
X117628571Y-38765000D01*
X117800000Y-38807857D01*
X118014285Y-38807857D01*
X118185714Y-38765000D01*
X118271428Y-38722142D01*
X118314285Y-38679285D01*
X118357142Y-38593571D01*
X118357142Y-38507857D01*
X118314285Y-38422142D01*
X118271428Y-38379285D01*
X118185714Y-38336428D01*
X118014285Y-38293571D01*
X117800000Y-38293571D01*
X117628571Y-38336428D01*
X117542857Y-38379285D01*
X117500000Y-38422142D01*
X117457142Y-38507857D01*
X99157142Y-36579285D02*
X98257142Y-36579285D01*
X98257142Y-36793571D01*
X98300000Y-36922142D01*
X98385714Y-37007857D01*
X98471428Y-37050714D01*
X98642857Y-37093571D01*
X98771428Y-37093571D01*
X98942857Y-37050714D01*
X99028571Y-37007857D01*
X99114285Y-36922142D01*
X99157142Y-36793571D01*
X99157142Y-36579285D01*
X99157142Y-37950714D02*
X99157142Y-37436428D01*
X99157142Y-37693571D02*
X98257142Y-37693571D01*
X98385714Y-37607857D01*
X98471428Y-37522142D01*
X98514285Y-37436428D01*
X99157142Y-38379285D02*
X99157142Y-38550714D01*
X99114285Y-38636428D01*
X99071428Y-38679285D01*
X98942857Y-38765000D01*
X98771428Y-38807857D01*
X98428571Y-38807857D01*
X98342857Y-38765000D01*
X98300000Y-38722142D01*
X98257142Y-38636428D01*
X98257142Y-38465000D01*
X98300000Y-38379285D01*
X98342857Y-38336428D01*
X98428571Y-38293571D01*
X98642857Y-38293571D01*
X98728571Y-38336428D01*
X98771428Y-38379285D01*
X98814285Y-38465000D01*
X98814285Y-38636428D01*
X98771428Y-38722142D01*
X98728571Y-38765000D01*
X98642857Y-38807857D01*
X79957142Y-36579285D02*
X79057142Y-36579285D01*
X79057142Y-36793571D01*
X79100000Y-36922142D01*
X79185714Y-37007857D01*
X79271428Y-37050714D01*
X79442857Y-37093571D01*
X79571428Y-37093571D01*
X79742857Y-37050714D01*
X79828571Y-37007857D01*
X79914285Y-36922142D01*
X79957142Y-36793571D01*
X79957142Y-36579285D01*
X79957142Y-37950714D02*
X79957142Y-37436428D01*
X79957142Y-37693571D02*
X79057142Y-37693571D01*
X79185714Y-37607857D01*
X79271428Y-37522142D01*
X79314285Y-37436428D01*
X79442857Y-38465000D02*
X79400000Y-38379285D01*
X79357142Y-38336428D01*
X79271428Y-38293571D01*
X79228571Y-38293571D01*
X79142857Y-38336428D01*
X79100000Y-38379285D01*
X79057142Y-38465000D01*
X79057142Y-38636428D01*
X79100000Y-38722142D01*
X79142857Y-38765000D01*
X79228571Y-38807857D01*
X79271428Y-38807857D01*
X79357142Y-38765000D01*
X79400000Y-38722142D01*
X79442857Y-38636428D01*
X79442857Y-38465000D01*
X79485714Y-38379285D01*
X79528571Y-38336428D01*
X79614285Y-38293571D01*
X79785714Y-38293571D01*
X79871428Y-38336428D01*
X79914285Y-38379285D01*
X79957142Y-38465000D01*
X79957142Y-38636428D01*
X79914285Y-38722142D01*
X79871428Y-38765000D01*
X79785714Y-38807857D01*
X79614285Y-38807857D01*
X79528571Y-38765000D01*
X79485714Y-38722142D01*
X79442857Y-38636428D01*
X60757142Y-36579285D02*
X59857142Y-36579285D01*
X59857142Y-36793571D01*
X59900000Y-36922142D01*
X59985714Y-37007857D01*
X60071428Y-37050714D01*
X60242857Y-37093571D01*
X60371428Y-37093571D01*
X60542857Y-37050714D01*
X60628571Y-37007857D01*
X60714285Y-36922142D01*
X60757142Y-36793571D01*
X60757142Y-36579285D01*
X60757142Y-37950714D02*
X60757142Y-37436428D01*
X60757142Y-37693571D02*
X59857142Y-37693571D01*
X59985714Y-37607857D01*
X60071428Y-37522142D01*
X60114285Y-37436428D01*
X59857142Y-38250714D02*
X59857142Y-38850714D01*
X60757142Y-38465000D01*
X31957142Y-36579285D02*
X31057142Y-36579285D01*
X31057142Y-36793571D01*
X31100000Y-36922142D01*
X31185714Y-37007857D01*
X31271428Y-37050714D01*
X31442857Y-37093571D01*
X31571428Y-37093571D01*
X31742857Y-37050714D01*
X31828571Y-37007857D01*
X31914285Y-36922142D01*
X31957142Y-36793571D01*
X31957142Y-36579285D01*
X31957142Y-37950714D02*
X31957142Y-37436428D01*
X31957142Y-37693571D02*
X31057142Y-37693571D01*
X31185714Y-37607857D01*
X31271428Y-37522142D01*
X31314285Y-37436428D01*
X31057142Y-38722142D02*
X31057142Y-38550714D01*
X31100000Y-38465000D01*
X31142857Y-38422142D01*
X31271428Y-38336428D01*
X31442857Y-38293571D01*
X31785714Y-38293571D01*
X31871428Y-38336428D01*
X31914285Y-38379285D01*
X31957142Y-38465000D01*
X31957142Y-38636428D01*
X31914285Y-38722142D01*
X31871428Y-38765000D01*
X31785714Y-38807857D01*
X31571428Y-38807857D01*
X31485714Y-38765000D01*
X31442857Y-38722142D01*
X31400000Y-38636428D01*
X31400000Y-38465000D01*
X31442857Y-38379285D01*
X31485714Y-38336428D01*
X31571428Y-38293571D01*
X291157142Y-17379285D02*
X290257142Y-17379285D01*
X290257142Y-17593571D01*
X290300000Y-17722142D01*
X290385714Y-17807857D01*
X290471428Y-17850714D01*
X290642857Y-17893571D01*
X290771428Y-17893571D01*
X290942857Y-17850714D01*
X291028571Y-17807857D01*
X291114285Y-17722142D01*
X291157142Y-17593571D01*
X291157142Y-17379285D01*
X291157142Y-18750714D02*
X291157142Y-18236428D01*
X291157142Y-18493571D02*
X290257142Y-18493571D01*
X290385714Y-18407857D01*
X290471428Y-18322142D01*
X290514285Y-18236428D01*
X290257142Y-19565000D02*
X290257142Y-19136428D01*
X290685714Y-19093571D01*
X290642857Y-19136428D01*
X290600000Y-19222142D01*
X290600000Y-19436428D01*
X290642857Y-19522142D01*
X290685714Y-19565000D01*
X290771428Y-19607857D01*
X290985714Y-19607857D01*
X291071428Y-19565000D01*
X291114285Y-19522142D01*
X291157142Y-19436428D01*
X291157142Y-19222142D01*
X291114285Y-19136428D01*
X291071428Y-19093571D01*
X271957142Y-17379285D02*
X271057142Y-17379285D01*
X271057142Y-17593571D01*
X271100000Y-17722142D01*
X271185714Y-17807857D01*
X271271428Y-17850714D01*
X271442857Y-17893571D01*
X271571428Y-17893571D01*
X271742857Y-17850714D01*
X271828571Y-17807857D01*
X271914285Y-17722142D01*
X271957142Y-17593571D01*
X271957142Y-17379285D01*
X271957142Y-18750714D02*
X271957142Y-18236428D01*
X271957142Y-18493571D02*
X271057142Y-18493571D01*
X271185714Y-18407857D01*
X271271428Y-18322142D01*
X271314285Y-18236428D01*
X271357142Y-19522142D02*
X271957142Y-19522142D01*
X271014285Y-19307857D02*
X271657142Y-19093571D01*
X271657142Y-19650714D01*
X252757142Y-17379285D02*
X251857142Y-17379285D01*
X251857142Y-17593571D01*
X251900000Y-17722142D01*
X251985714Y-17807857D01*
X252071428Y-17850714D01*
X252242857Y-17893571D01*
X252371428Y-17893571D01*
X252542857Y-17850714D01*
X252628571Y-17807857D01*
X252714285Y-17722142D01*
X252757142Y-17593571D01*
X252757142Y-17379285D01*
X252757142Y-18750714D02*
X252757142Y-18236428D01*
X252757142Y-18493571D02*
X251857142Y-18493571D01*
X251985714Y-18407857D01*
X252071428Y-18322142D01*
X252114285Y-18236428D01*
X251857142Y-19050714D02*
X251857142Y-19607857D01*
X252200000Y-19307857D01*
X252200000Y-19436428D01*
X252242857Y-19522142D01*
X252285714Y-19565000D01*
X252371428Y-19607857D01*
X252585714Y-19607857D01*
X252671428Y-19565000D01*
X252714285Y-19522142D01*
X252757142Y-19436428D01*
X252757142Y-19179285D01*
X252714285Y-19093571D01*
X252671428Y-19050714D01*
X233557142Y-17379285D02*
X232657142Y-17379285D01*
X232657142Y-17593571D01*
X232700000Y-17722142D01*
X232785714Y-17807857D01*
X232871428Y-17850714D01*
X233042857Y-17893571D01*
X233171428Y-17893571D01*
X233342857Y-17850714D01*
X233428571Y-17807857D01*
X233514285Y-17722142D01*
X233557142Y-17593571D01*
X233557142Y-17379285D01*
X233557142Y-18750714D02*
X233557142Y-18236428D01*
X233557142Y-18493571D02*
X232657142Y-18493571D01*
X232785714Y-18407857D01*
X232871428Y-18322142D01*
X232914285Y-18236428D01*
X232742857Y-19093571D02*
X232700000Y-19136428D01*
X232657142Y-19222142D01*
X232657142Y-19436428D01*
X232700000Y-19522142D01*
X232742857Y-19565000D01*
X232828571Y-19607857D01*
X232914285Y-19607857D01*
X233042857Y-19565000D01*
X233557142Y-19050714D01*
X233557142Y-19607857D01*
X214357142Y-17379285D02*
X213457142Y-17379285D01*
X213457142Y-17593571D01*
X213500000Y-17722142D01*
X213585714Y-17807857D01*
X213671428Y-17850714D01*
X213842857Y-17893571D01*
X213971428Y-17893571D01*
X214142857Y-17850714D01*
X214228571Y-17807857D01*
X214314285Y-17722142D01*
X214357142Y-17593571D01*
X214357142Y-17379285D01*
X214357142Y-18750714D02*
X214357142Y-18236428D01*
X214357142Y-18493571D02*
X213457142Y-18493571D01*
X213585714Y-18407857D01*
X213671428Y-18322142D01*
X213714285Y-18236428D01*
X214357142Y-19607857D02*
X214357142Y-19093571D01*
X214357142Y-19350714D02*
X213457142Y-19350714D01*
X213585714Y-19265000D01*
X213671428Y-19179285D01*
X213714285Y-19093571D01*
X195157142Y-17379285D02*
X194257142Y-17379285D01*
X194257142Y-17593571D01*
X194300000Y-17722142D01*
X194385714Y-17807857D01*
X194471428Y-17850714D01*
X194642857Y-17893571D01*
X194771428Y-17893571D01*
X194942857Y-17850714D01*
X195028571Y-17807857D01*
X195114285Y-17722142D01*
X195157142Y-17593571D01*
X195157142Y-17379285D01*
X195157142Y-18750714D02*
X195157142Y-18236428D01*
X195157142Y-18493571D02*
X194257142Y-18493571D01*
X194385714Y-18407857D01*
X194471428Y-18322142D01*
X194514285Y-18236428D01*
X194257142Y-19307857D02*
X194257142Y-19393571D01*
X194300000Y-19479285D01*
X194342857Y-19522142D01*
X194428571Y-19565000D01*
X194600000Y-19607857D01*
X194814285Y-19607857D01*
X194985714Y-19565000D01*
X195071428Y-19522142D01*
X195114285Y-19479285D01*
X195157142Y-19393571D01*
X195157142Y-19307857D01*
X195114285Y-19222142D01*
X195071428Y-19179285D01*
X194985714Y-19136428D01*
X194814285Y-19093571D01*
X194600000Y-19093571D01*
X194428571Y-19136428D01*
X194342857Y-19179285D01*
X194300000Y-19222142D01*
X194257142Y-19307857D01*
X175957142Y-17379285D02*
X175057142Y-17379285D01*
X175057142Y-17593571D01*
X175100000Y-17722142D01*
X175185714Y-17807857D01*
X175271428Y-17850714D01*
X175442857Y-17893571D01*
X175571428Y-17893571D01*
X175742857Y-17850714D01*
X175828571Y-17807857D01*
X175914285Y-17722142D01*
X175957142Y-17593571D01*
X175957142Y-17379285D01*
X175957142Y-18322142D02*
X175957142Y-18493571D01*
X175914285Y-18579285D01*
X175871428Y-18622142D01*
X175742857Y-18707857D01*
X175571428Y-18750714D01*
X175228571Y-18750714D01*
X175142857Y-18707857D01*
X175100000Y-18665000D01*
X175057142Y-18579285D01*
X175057142Y-18407857D01*
X175100000Y-18322142D01*
X175142857Y-18279285D01*
X175228571Y-18236428D01*
X175442857Y-18236428D01*
X175528571Y-18279285D01*
X175571428Y-18322142D01*
X175614285Y-18407857D01*
X175614285Y-18579285D01*
X175571428Y-18665000D01*
X175528571Y-18707857D01*
X175442857Y-18750714D01*
X156757142Y-17379285D02*
X155857142Y-17379285D01*
X155857142Y-17593571D01*
X155900000Y-17722142D01*
X155985714Y-17807857D01*
X156071428Y-17850714D01*
X156242857Y-17893571D01*
X156371428Y-17893571D01*
X156542857Y-17850714D01*
X156628571Y-17807857D01*
X156714285Y-17722142D01*
X156757142Y-17593571D01*
X156757142Y-17379285D01*
X156242857Y-18407857D02*
X156200000Y-18322142D01*
X156157142Y-18279285D01*
X156071428Y-18236428D01*
X156028571Y-18236428D01*
X155942857Y-18279285D01*
X155900000Y-18322142D01*
X155857142Y-18407857D01*
X155857142Y-18579285D01*
X155900000Y-18665000D01*
X155942857Y-18707857D01*
X156028571Y-18750714D01*
X156071428Y-18750714D01*
X156157142Y-18707857D01*
X156200000Y-18665000D01*
X156242857Y-18579285D01*
X156242857Y-18407857D01*
X156285714Y-18322142D01*
X156328571Y-18279285D01*
X156414285Y-18236428D01*
X156585714Y-18236428D01*
X156671428Y-18279285D01*
X156714285Y-18322142D01*
X156757142Y-18407857D01*
X156757142Y-18579285D01*
X156714285Y-18665000D01*
X156671428Y-18707857D01*
X156585714Y-18750714D01*
X156414285Y-18750714D01*
X156328571Y-18707857D01*
X156285714Y-18665000D01*
X156242857Y-18579285D01*
X137557142Y-17379285D02*
X136657142Y-17379285D01*
X136657142Y-17593571D01*
X136700000Y-17722142D01*
X136785714Y-17807857D01*
X136871428Y-17850714D01*
X137042857Y-17893571D01*
X137171428Y-17893571D01*
X137342857Y-17850714D01*
X137428571Y-17807857D01*
X137514285Y-17722142D01*
X137557142Y-17593571D01*
X137557142Y-17379285D01*
X136657142Y-18193571D02*
X136657142Y-18793571D01*
X137557142Y-18407857D01*
X118357142Y-17379285D02*
X117457142Y-17379285D01*
X117457142Y-17593571D01*
X117500000Y-17722142D01*
X117585714Y-17807857D01*
X117671428Y-17850714D01*
X117842857Y-17893571D01*
X117971428Y-17893571D01*
X118142857Y-17850714D01*
X118228571Y-17807857D01*
X118314285Y-17722142D01*
X118357142Y-17593571D01*
X118357142Y-17379285D01*
X117457142Y-18665000D02*
X117457142Y-18493571D01*
X117500000Y-18407857D01*
X117542857Y-18365000D01*
X117671428Y-18279285D01*
X117842857Y-18236428D01*
X118185714Y-18236428D01*
X118271428Y-18279285D01*
X118314285Y-18322142D01*
X118357142Y-18407857D01*
X118357142Y-18579285D01*
X118314285Y-18665000D01*
X118271428Y-18707857D01*
X118185714Y-18750714D01*
X117971428Y-18750714D01*
X117885714Y-18707857D01*
X117842857Y-18665000D01*
X117800000Y-18579285D01*
X117800000Y-18407857D01*
X117842857Y-18322142D01*
X117885714Y-18279285D01*
X117971428Y-18236428D01*
X99157142Y-17379285D02*
X98257142Y-17379285D01*
X98257142Y-17593571D01*
X98300000Y-17722142D01*
X98385714Y-17807857D01*
X98471428Y-17850714D01*
X98642857Y-17893571D01*
X98771428Y-17893571D01*
X98942857Y-17850714D01*
X99028571Y-17807857D01*
X99114285Y-17722142D01*
X99157142Y-17593571D01*
X99157142Y-17379285D01*
X98257142Y-18707857D02*
X98257142Y-18279285D01*
X98685714Y-18236428D01*
X98642857Y-18279285D01*
X98600000Y-18365000D01*
X98600000Y-18579285D01*
X98642857Y-18665000D01*
X98685714Y-18707857D01*
X98771428Y-18750714D01*
X98985714Y-18750714D01*
X99071428Y-18707857D01*
X99114285Y-18665000D01*
X99157142Y-18579285D01*
X99157142Y-18365000D01*
X99114285Y-18279285D01*
X99071428Y-18236428D01*
X79957142Y-17379285D02*
X79057142Y-17379285D01*
X79057142Y-17593571D01*
X79100000Y-17722142D01*
X79185714Y-17807857D01*
X79271428Y-17850714D01*
X79442857Y-17893571D01*
X79571428Y-17893571D01*
X79742857Y-17850714D01*
X79828571Y-17807857D01*
X79914285Y-17722142D01*
X79957142Y-17593571D01*
X79957142Y-17379285D01*
X79357142Y-18665000D02*
X79957142Y-18665000D01*
X79014285Y-18450714D02*
X79657142Y-18236428D01*
X79657142Y-18793571D01*
X60757142Y-17379285D02*
X59857142Y-17379285D01*
X59857142Y-17593571D01*
X59900000Y-17722142D01*
X59985714Y-17807857D01*
X60071428Y-17850714D01*
X60242857Y-17893571D01*
X60371428Y-17893571D01*
X60542857Y-17850714D01*
X60628571Y-17807857D01*
X60714285Y-17722142D01*
X60757142Y-17593571D01*
X60757142Y-17379285D01*
X59857142Y-18193571D02*
X59857142Y-18750714D01*
X60200000Y-18450714D01*
X60200000Y-18579285D01*
X60242857Y-18665000D01*
X60285714Y-18707857D01*
X60371428Y-18750714D01*
X60585714Y-18750714D01*
X60671428Y-18707857D01*
X60714285Y-18665000D01*
X60757142Y-18579285D01*
X60757142Y-18322142D01*
X60714285Y-18236428D01*
X60671428Y-18193571D01*
X41557142Y-17379285D02*
X40657142Y-17379285D01*
X40657142Y-17593571D01*
X40700000Y-17722142D01*
X40785714Y-17807857D01*
X40871428Y-17850714D01*
X41042857Y-17893571D01*
X41171428Y-17893571D01*
X41342857Y-17850714D01*
X41428571Y-17807857D01*
X41514285Y-17722142D01*
X41557142Y-17593571D01*
X41557142Y-17379285D01*
X40742857Y-18236428D02*
X40700000Y-18279285D01*
X40657142Y-18365000D01*
X40657142Y-18579285D01*
X40700000Y-18665000D01*
X40742857Y-18707857D01*
X40828571Y-18750714D01*
X40914285Y-18750714D01*
X41042857Y-18707857D01*
X41557142Y-18193571D01*
X41557142Y-18750714D01*
X22357142Y-17379285D02*
X21457142Y-17379285D01*
X21457142Y-17593571D01*
X21500000Y-17722142D01*
X21585714Y-17807857D01*
X21671428Y-17850714D01*
X21842857Y-17893571D01*
X21971428Y-17893571D01*
X22142857Y-17850714D01*
X22228571Y-17807857D01*
X22314285Y-17722142D01*
X22357142Y-17593571D01*
X22357142Y-17379285D01*
X22357142Y-18750714D02*
X22357142Y-18236428D01*
X22357142Y-18493571D02*
X21457142Y-18493571D01*
X21585714Y-18407857D01*
X21671428Y-18322142D01*
X21714285Y-18236428D01*
M02*
