M48
; DRILL file {KiCad (5.1.2)-2} date 2020/03/21 0:37:48
; FORMAT={-:-/ absolute / metric / decimal}
; #@! TF.CreationDate,2020-03-21T00:37:48+09:00
; #@! TF.GenerationSoftware,Kicad,Pcbnew,(5.1.2)-2
FMAT,2
METRIC
T1C0.400
T2C0.600
T3C1.000
T4C0.650
T5C1.700
T6C3.000
T7C4.000
%
G90
G05
T1
X4.5Y-52.5
X6.85Y-14.1
X6.85Y-17.3
X10.9Y-48.47
X10.9Y-49.7
X10.9Y-54.95
X10.9Y-56.53
X11.7Y-89.3
X14.1Y-90.1
X16.45Y-33.3
X16.45Y-36.5
X16.45Y-52.5
X16.45Y-55.7
X16.45Y-71.7
X19.7Y-83.7
X20.5Y-90.9
X20.5Y-95.7
X22.1Y-95.7
X22.9Y-94.9
X23.7Y-94.1
X24.5Y-93.3
X25.3Y-83.7
X25.3Y-92.5
X26.05Y-14.1
X26.1Y-82.9
X26.1Y-93.3
X26.9Y-83.7
X27.7Y-86.1
X30.1Y-17.3
X30.9Y-86.9
X30.9Y-91.7
X32.1Y-91.7
X33.3Y-38.1
X33.3Y-91.7
X34.5Y-91.7
X35.7Y-57.3
X35.7Y-91.7
X38.1Y-76.5
X45.25Y-14.1
X45.25Y-17.3
X45.25Y-33.3
X45.25Y-36.5
X45.25Y-52.5
X45.25Y-55.7
X45.25Y-71.7
X52.5Y-23.7
X52.5Y-42.9
X52.5Y-62.1
X62.1Y-82.1
X64.45Y-14.1
X64.45Y-17.3
X64.45Y-33.3
X64.45Y-36.5
X64.45Y-52.5
X64.45Y-55.7
X64.45Y-71.7
X64.45Y-74.9
X64.45Y-90.9
X71.7Y-23.7
X71.7Y-42.9
X71.7Y-62.1
X71.7Y-85.9
X79.5Y-97.7
X83.65Y-14.1
X83.65Y-17.3
X83.65Y-33.3
X83.65Y-36.5
X83.65Y-52.5
X83.65Y-55.7
X83.65Y-71.7
X83.65Y-74.9
X83.65Y-82.9
X90.9Y-23.7
X90.9Y-42.9
X90.9Y-62.1
X90.9Y-85.9
X102.85Y-14.1
X102.85Y-17.3
X102.85Y-33.3
X102.85Y-36.5
X102.85Y-52.5
X102.85Y-55.7
X102.85Y-71.7
X102.85Y-74.9
X110.1Y-23.7
X110.1Y-42.9
X110.1Y-62.1
X112.45Y-90.9
X119.7Y-85.9
X122.05Y-14.1
X122.05Y-17.3
X122.05Y-33.3
X122.05Y-36.5
X122.05Y-52.5
X122.05Y-55.7
X122.05Y-71.7
X129.3Y-23.7
X129.3Y-42.9
X129.3Y-62.1
X141.25Y-14.1
X141.25Y-17.3
X141.25Y-33.3
X141.25Y-36.5
X141.25Y-52.5
X141.25Y-55.7
X141.25Y-71.7
X148.5Y-23.7
X148.5Y-42.9
X148.5Y-62.1
X150.85Y-90.9
X160.45Y-14.1
X160.45Y-17.3
X160.45Y-33.3
X160.45Y-36.5
X160.45Y-52.5
X160.45Y-55.7
X160.45Y-71.7
X160.45Y-74.9
X167.7Y-23.7
X167.7Y-42.9
X167.7Y-62.1
X167.7Y-83.1
X179.65Y-14.1
X179.65Y-17.3
X179.65Y-33.3
X179.65Y-36.5
X179.65Y-52.5
X179.65Y-55.7
X179.65Y-71.7
X179.65Y-74.9
X179.65Y-90.9
X186.9Y-23.7
X186.9Y-42.9
X186.9Y-62.1
X186.9Y-83.1
X198.85Y-14.1
X198.85Y-17.3
X198.85Y-33.3
X198.85Y-36.5
X198.85Y-52.5
X198.85Y-55.7
X198.85Y-71.7
X198.85Y-74.9
X198.85Y-90.9
X206.1Y-23.7
X206.1Y-42.9
X206.1Y-62.1
X218.05Y-14.1
X218.05Y-17.3
X218.05Y-33.3
X218.05Y-36.5
X218.05Y-52.5
X218.05Y-55.7
X218.05Y-71.7
X225.3Y-23.7
X225.3Y-42.9
X225.3Y-62.1
X237.25Y-14.1
X237.25Y-17.3
X237.25Y-33.3
X237.25Y-36.5
X237.25Y-52.5
X244.5Y-23.7
X244.5Y-42.9
X244.5Y-62.1
X246.85Y-71.7
X256.45Y-14.1
X256.45Y-17.3
X256.45Y-33.3
X256.45Y-36.5
X256.45Y-52.5
X256.45Y-55.7
X263.7Y-23.7
X263.7Y-42.9
X263.7Y-62.1
X266.05Y-52.5
X266.05Y-55.7
X275.65Y-14.1
X275.65Y-17.3
X275.65Y-33.3
X275.65Y-36.5
X275.65Y-71.7
X282.9Y-23.7
X287.7Y-52.5
T2
X42.9Y-88.45
X42.9Y-93.35
T3
X135.65Y-88.65
X135.65Y-93.15
X142.15Y-88.65
X142.15Y-93.15
T4
X7.95Y-49.61
X7.95Y-55.39
T5
X181.9Y-14.1
X191.9Y-14.1
X124.3Y-71.7
X134.3Y-71.7
X220.3Y-14.1
X230.3Y-14.1
X143.5Y-52.5
X153.5Y-52.5
X277.9Y-33.3
X287.9Y-33.3
X28.3Y-14.1
X38.3Y-14.1
X18.7Y-33.3
X28.7Y-33.3
X201.1Y-33.3
X211.1Y-33.3
X239.5Y-14.1
X249.5Y-14.1
X66.7Y-52.5
X76.7Y-52.5
X153.1Y-90.9
X163.1Y-90.9
X105.1Y-33.3
X115.1Y-33.3
X277.9Y-71.7
X287.9Y-71.7
X268.3Y-52.5
X278.3Y-52.5
X66.7Y-33.3
X76.7Y-33.3
X66.7Y-90.9
X76.7Y-90.9
X85.9Y-71.7
X95.9Y-71.7
X162.7Y-14.1
X172.7Y-14.1
X220.3Y-52.5
X230.3Y-52.5
X124.3Y-14.1
X134.3Y-14.1
X105.1Y-52.5
X115.1Y-52.5
X162.7Y-71.7
X172.7Y-71.7
X258.7Y-14.1
X268.7Y-14.1
X143.5Y-71.7
X153.5Y-71.7
X47.5Y-33.3
X57.5Y-33.3
X201.1Y-14.1
X211.1Y-14.1
X277.9Y-14.1
X287.9Y-14.1
X162.7Y-33.3
X172.7Y-33.3
X249.1Y-71.7
X259.1Y-71.7
X220.3Y-33.3
X230.3Y-33.3
X114.7Y-90.9
X124.7Y-90.9
X201.1Y-52.5
X211.1Y-52.5
X239.5Y-33.3
X249.5Y-33.3
X220.3Y-71.7
X230.3Y-71.7
X162.7Y-52.5
X172.7Y-52.5
X47.5Y-52.5
X57.5Y-52.5
X47.5Y-71.7
X57.5Y-71.7
X66.7Y-14.1
X76.7Y-14.1
X105.1Y-71.7
X115.1Y-71.7
X105.1Y-14.1
X115.1Y-14.1
X85.9Y-52.5
X95.9Y-52.5
X239.5Y-52.5
X249.5Y-52.5
X85.9Y-14.1
X95.9Y-14.1
X124.3Y-33.3
X134.3Y-33.3
X9.1Y-14.1
X19.1Y-14.1
X258.7Y-33.3
X268.7Y-33.3
X143.5Y-14.1
X153.5Y-14.1
X201.1Y-90.9
X211.1Y-90.9
X181.9Y-33.3
X191.9Y-33.3
X181.9Y-71.7
X191.9Y-71.7
X143.5Y-33.3
X153.5Y-33.3
X85.9Y-90.9
X95.9Y-90.9
X18.7Y-71.7
X28.7Y-71.7
X18.7Y-52.5
X28.7Y-52.5
X201.1Y-71.7
X211.1Y-71.7
X124.3Y-52.5
X134.3Y-52.5
X85.9Y-33.3
X95.9Y-33.3
X66.7Y-71.7
X76.7Y-71.7
X181.9Y-90.9
X191.9Y-90.9
X47.5Y-14.1
X57.5Y-14.1
X181.9Y-52.5
X191.9Y-52.5
T6
X221.5Y-50.0
X227.8Y-47.5
X125.5Y-11.6
X131.8Y-9.1
X106.3Y-50.0
X112.6Y-47.5
X163.9Y-69.2
X170.2Y-66.7
X259.9Y-11.6
X266.2Y-9.1
X144.7Y-69.2
X151.0Y-66.7
X48.7Y-30.8
X55.0Y-28.3
X202.3Y-11.6
X208.6Y-9.1
X279.1Y-11.6
X285.4Y-9.1
X163.9Y-30.8
X170.2Y-28.3
X250.3Y-69.2
X256.6Y-66.7
X221.5Y-30.8
X227.8Y-28.3
X115.9Y-88.4
X122.2Y-85.9
X202.3Y-50.0
X208.6Y-47.5
X240.7Y-30.8
X247.0Y-28.3
X221.5Y-69.2
X227.8Y-66.7
X163.9Y-50.0
X170.2Y-47.5
X48.7Y-50.0
X55.0Y-47.5
X48.7Y-69.2
X55.0Y-66.7
X67.9Y-11.6
X74.2Y-9.1
X106.3Y-69.2
X112.6Y-66.7
X106.3Y-11.6
X112.6Y-9.1
X87.1Y-50.0
X93.4Y-47.5
X240.7Y-50.0
X247.0Y-47.5
X87.1Y-11.6
X93.4Y-9.1
X125.5Y-30.8
X131.8Y-28.3
X10.3Y-11.6
X16.6Y-9.1
X259.9Y-30.8
X266.2Y-28.3
X144.7Y-11.6
X151.0Y-9.1
X202.3Y-88.4
X208.6Y-85.9
X183.1Y-30.8
X189.4Y-28.3
X183.1Y-69.2
X189.4Y-66.7
X144.7Y-30.8
X151.0Y-28.3
X87.1Y-88.4
X93.4Y-85.9
X19.9Y-69.2
X26.2Y-66.7
X19.9Y-50.0
X26.2Y-47.5
X202.3Y-69.2
X208.6Y-66.7
X125.5Y-50.0
X131.8Y-47.5
X87.1Y-30.8
X93.4Y-28.3
X67.9Y-69.2
X74.2Y-66.7
X183.1Y-88.4
X189.4Y-85.9
X48.7Y-11.6
X55.0Y-9.1
X183.1Y-50.0
X189.4Y-47.5
X183.1Y-11.6
X189.4Y-9.1
X125.5Y-69.2
X131.8Y-66.7
X221.5Y-11.6
X227.8Y-9.1
X144.7Y-50.0
X151.0Y-47.5
X279.1Y-30.8
X285.4Y-28.3
X29.5Y-11.6
X35.8Y-9.1
X19.9Y-30.8
X26.2Y-28.3
X202.3Y-30.8
X208.6Y-28.3
X240.7Y-11.6
X247.0Y-9.1
X67.9Y-50.0
X74.2Y-47.5
X154.3Y-88.4
X160.6Y-85.9
X106.3Y-30.8
X112.6Y-28.3
X279.1Y-69.2
X285.4Y-66.7
X269.5Y-50.0
X275.8Y-47.5
X67.9Y-30.8
X74.2Y-28.3
X67.9Y-88.4
X74.2Y-85.9
X87.1Y-69.2
X93.4Y-66.7
X163.9Y-11.6
X170.2Y-9.1
T7
X167.7Y-14.1
X225.3Y-52.5
X129.3Y-14.1
X110.1Y-52.5
X167.7Y-71.7
X263.7Y-14.1
X148.5Y-71.7
X52.5Y-33.3
X206.1Y-14.1
X282.9Y-14.1
X167.7Y-33.3
X254.1Y-71.7
X225.3Y-33.3
X119.7Y-90.9
X206.1Y-52.5
X244.5Y-33.3
X225.3Y-71.7
X167.7Y-52.5
X52.5Y-52.5
X52.5Y-71.7
X71.7Y-14.1
X110.1Y-71.7
X110.1Y-14.1
X90.9Y-52.5
X244.5Y-52.5
X90.9Y-14.1
X129.3Y-33.3
X14.1Y-14.1
X263.7Y-33.3
X148.5Y-14.1
X206.1Y-90.9
X186.9Y-33.3
X186.9Y-71.7
X148.5Y-33.3
X90.9Y-90.9
X23.7Y-71.7
X23.7Y-52.5
X206.1Y-71.7
X129.3Y-52.5
X90.9Y-33.3
X71.7Y-71.7
X186.9Y-90.9
X52.5Y-14.1
X186.9Y-52.5
X186.9Y-14.1
X129.3Y-71.7
X225.3Y-14.1
X148.5Y-52.5
X282.9Y-33.3
X33.3Y-14.1
X23.7Y-33.3
X206.1Y-33.3
X244.5Y-14.1
X71.7Y-52.5
X158.1Y-90.9
X110.1Y-33.3
X282.9Y-71.7
X273.3Y-52.5
X71.7Y-33.3
X71.7Y-90.9
X90.9Y-71.7
T2
G00X4.6Y-48.18
M15
G01X4.0Y-48.18
M16
G05
G00X4.6Y-56.82
M15
G01X4.0Y-56.82
M16
G05
G00X9.03Y-48.18
M15
G01X7.93Y-48.18
M16
G05
G00X9.03Y-56.82
M15
G01X7.93Y-56.82
M16
G05
T0
M30
